<svg width="14" height="15" viewBox="0 0 14 15" fill="none" xmlns="http://www.w3.org/2000/svg">
  <path fill-rule="evenodd" clip-rule="evenodd"
    d="M9.69421 3.45494C9.61607 3.57082 9.52803 3.67904 9.42795 3.77912C9.32785 3.87923 9.21961 3.96728 9.10369 4.04544C9.21958 4.12358 9.32779 4.21162 9.42788 4.3117C9.52798 4.41181 9.61603 4.52005 9.69419 4.63596C9.77234 4.52008 9.86037 4.41186 9.96045 4.31178C10.0606 4.21167 10.1688 4.12362 10.2847 4.04546C10.1688 3.96732 10.0606 3.87928 9.96053 3.7792C9.86042 3.67909 9.77237 3.57085 9.69421 3.45494ZM8.9872 1.41808C9.06649 1.01443 9.42001 0.836426 9.6942 0.836426C9.96835 0.836426 10.3219 1.0144 10.4012 1.41808L10.4013 1.41882C10.5753 2.30946 10.7219 2.64118 10.9102 2.82949C11.0985 3.01779 11.4302 3.16444 12.3208 3.3383L12.3216 3.33845C12.7252 3.41774 12.9032 3.77126 12.9032 4.04545C12.9032 4.31963 12.7252 4.67316 12.3216 4.75245L12.3208 4.75259C11.4302 4.92651 11.0985 5.07317 10.9102 5.26148C10.7219 5.44979 10.5752 5.78147 10.4014 6.67205L10.4012 6.67282C10.3219 7.0765 9.96835 7.25447 9.6942 7.25447C9.42093 7.25447 9.06663 7.07716 8.9872 6.67282L8.98706 6.67208C8.81315 5.78144 8.66648 5.44972 8.47817 5.26141C8.28987 5.07311 7.95818 4.92646 7.0676 4.7526L7.06684 4.75245C6.66318 4.67316 6.48518 4.31963 6.48518 4.04545C6.48518 3.77126 6.66319 3.41774 7.06684 3.33845L7.06757 3.33831C7.95821 3.16439 8.28993 3.01773 8.47824 2.82942C8.66654 2.64111 8.81319 2.30943 8.98705 1.41885L8.9872 1.41808Z"
    fill="url(#paint0_linear_2451_1712)" />
  <path fill-rule="evenodd" clip-rule="evenodd"
    d="M10.7144 9.52697C10.7917 9.13588 11.1348 8.96197 11.4019 8.96197C11.6691 8.96197 12.0122 9.13588 12.0894 9.52697L12.0898 9.52875C12.1902 10.0444 12.2637 10.1517 12.3031 10.1912C12.3426 10.2307 12.4499 10.3041 12.9656 10.4045L12.9673 10.4049C13.3585 10.4822 13.5323 10.8253 13.5323 11.0924C13.5323 11.3595 13.3585 11.7026 12.9673 11.7799L12.9656 11.7803C12.4499 11.8807 12.3426 11.9541 12.3031 11.9936C12.2637 12.033 12.1902 12.1404 12.0898 12.656L12.0894 12.6578C12.0122 13.0489 11.6691 13.2228 11.4019 13.2228C11.1387 13.2228 10.7907 13.0518 10.7139 12.6555C10.7138 12.655 10.7138 12.6545 10.7137 12.654L11.3732 12.5276L10.7139 12.6555C10.7139 12.6553 10.714 12.6557 10.7139 12.6555C10.6136 12.1403 10.5402 12.033 10.5007 11.9936C10.4613 11.9541 10.3539 11.8807 9.83828 11.7803L9.83649 11.7799C9.44536 11.7026 9.2715 11.3595 9.2715 11.0924C9.2715 10.8253 9.44533 10.4822 9.83649 10.4049L9.83828 10.4045C10.3539 10.3041 10.4613 10.2307 10.5007 10.1912C10.5402 10.1517 10.6136 10.0444 10.7141 9.52875L10.7144 9.52697ZM12.0321 12.3981C12.0322 12.3985 12.0323 12.3989 12.0324 12.3992L12.0328 12.4013"
    fill="url(#paint1_linear_2451_1712)" />
  <path fill-rule="evenodd" clip-rule="evenodd"
    d="M4.46816 4.68913C4.55645 4.24895 4.94057 4.05454 5.2425 4.05454C5.54445 4.05454 5.92855 4.24897 6.01685 4.68913C6.31948 6.20052 6.60309 6.92612 7.05748 7.3805C7.51187 7.83489 8.23724 8.11846 9.74863 8.42109C10.1888 8.50939 10.3834 8.89355 10.3834 9.19548C10.3834 9.49742 10.189 9.88154 9.74886 9.96983C8.23747 10.2725 7.51187 10.5561 7.05748 11.0105C6.60309 11.4649 6.31952 12.1902 6.01689 13.7016C5.9286 14.1418 5.54445 14.3364 5.2425 14.3364C4.94057 14.3364 4.55645 14.142 4.46816 13.7018C4.16553 12.1904 3.88191 11.4649 3.42752 11.0105C2.97313 10.5561 2.24777 10.2725 0.736376 9.96988C0.296208 9.88158 0.101562 9.49742 0.101562 9.19548C0.101562 8.89355 0.295979 8.50943 0.736147 8.42114C2.24754 8.11851 2.97313 7.83489 3.42752 7.3805C3.88191 6.92612 4.16553 6.20052 4.46816 4.68913ZM5.2425 6.98C5.45746 7.51541 5.72864 7.96509 6.10074 8.3372C6.47282 8.7093 6.92248 8.98047 7.45787 9.19544C6.92251 9.41039 6.47286 9.68155 6.10078 10.0536C5.72866 10.4257 5.45747 10.8754 5.2425 11.4109C5.02754 10.8755 4.75637 10.4258 4.38427 10.0537C4.01218 9.68157 3.56252 9.4104 3.02714 9.19543C3.5625 8.98048 4.01214 8.70932 4.38422 8.33725C4.75634 7.96513 5.02753 7.51544 5.2425 6.98Z"
    fill="url(#paint2_linear_2451_1712)" />
  <defs>
    <linearGradient id="paint0_linear_2451_1712" x1="3.24846" y1="0.836426" x2="3.24846"
      y2="14.3364" gradientUnits="userSpaceOnUse">
      <stop stop-color="#435FF0" />
      <stop offset="1" stop-color="#EB4B98" />
    </linearGradient>
    <linearGradient id="paint1_linear_2451_1712" x1="3.24846" y1="0.836426" x2="3.24846"
      y2="14.3364" gradientUnits="userSpaceOnUse">
      <stop stop-color="#435FF0" />
      <stop offset="1" stop-color="#EB4B98" />
    </linearGradient>
    <linearGradient id="paint2_linear_2451_1712" x1="3.24846" y1="0.836426" x2="3.24846"
      y2="14.3364" gradientUnits="userSpaceOnUse">
      <stop stop-color="#435FF0" />
      <stop offset="1" stop-color="#EB4B98" />
    </linearGradient>
  </defs>
</svg>
  