<svg width="25" height="24" viewBox="0 0 25 24" fill="none" xmlns="http://www.w3.org/2000/svg">
<path d="M10.4434 2.91309C8.93128 2.91309 7.70657 3.96339 7.40019 5.32719C5.55403 5.6422 4.11003 7.1158 4.11003 8.97106C4.11003 9.15734 4.1314 9.32318 4.1599 9.49204C3.64928 10.2099 3.31836 11.0558 3.31836 12C3.31836 13.3608 4.0269 14.5058 5.02519 15.3365C4.95394 15.6061 4.90169 15.8749 4.90169 16.1649C4.90169 18.0376 6.5064 19.5725 8.46419 19.5725H8.51407C8.97482 20.4274 9.77282 21.087 10.8392 21.087C11.2086 21.0862 11.5741 21.0145 11.914 20.8763C12.254 20.738 12.5615 20.536 12.8184 20.282C13.0752 20.536 13.3828 20.738 13.7227 20.8763C14.0626 21.0145 14.4281 21.0862 14.7975 21.087C15.8647 21.087 16.6619 20.4274 17.1234 19.5725H17.1725C19.0314 19.5725 20.5553 18.1883 20.7105 16.4489H20.735C20.735 16.4012 20.7137 16.3542 20.7105 16.3065C20.7137 16.2596 20.735 16.2118 20.735 16.1649C20.735 15.884 20.6297 15.6439 20.5617 15.3842C21.5884 14.5497 22.3184 13.385 22.3184 12C22.3184 11.0565 21.9874 10.2107 21.4768 9.49129C21.5053 9.32318 21.5267 9.1581 21.5267 8.97106C21.5267 7.1158 20.0827 5.64296 18.2365 5.32643C17.9302 3.96414 16.7054 2.91309 15.1934 2.91309C14.2434 2.91309 13.3994 3.33639 12.8184 3.97777C12.2373 3.33714 11.3934 2.91309 10.4434 2.91309ZM10.4434 4.42758C11.3277 4.42758 12.0267 5.09623 12.0267 5.94207V7.45656C12.0267 8.71965 10.9722 9.7283 9.65169 9.7283V11.2428C10.5487 11.2428 11.3617 10.9475 12.0267 10.4621V18.4366C12.0267 19.0727 11.5042 19.5725 10.8392 19.5725C10.5622 19.5762 10.2929 19.4853 10.0798 19.3161C9.86659 19.1469 9.72351 18.9105 9.67623 18.6494L9.52819 17.9164L8.76107 18.0345C8.4792 18.0771 8.19101 18.0606 7.91648 17.9861C7.64195 17.9116 7.38763 17.7809 7.17114 17.6031C6.95465 17.4252 6.78116 17.2045 6.66269 16.9562C6.54422 16.7078 6.4836 16.4379 6.48503 16.1649C6.48503 15.9309 6.52461 15.7121 6.60853 15.5023C6.61486 15.4849 6.62753 15.472 6.63307 15.4546C6.87848 14.8723 7.40969 14.4459 8.06836 14.3187L7.74694 12.8285C6.93896 12.9811 6.21238 13.3996 5.69336 14.0113C5.17862 13.4575 4.89659 12.741 4.90169 12C4.90034 11.3191 5.14505 10.6586 5.5944 10.1304L5.84219 9.84643L5.76778 9.46781C5.72292 9.30555 5.69794 9.13884 5.69336 8.97106C5.69336 7.70797 6.74786 6.69932 8.06836 6.69932H8.86003V5.94207C8.86003 5.09623 9.55907 4.42758 10.4434 4.42758ZM15.1934 4.42758C16.0777 4.42758 16.7767 5.09623 16.7767 5.94207V6.69932H17.5684C18.8889 6.69932 19.9434 7.70797 19.9434 8.97106C19.9434 9.13387 19.9117 9.29062 19.8689 9.46781L19.7953 9.84643L20.0423 10.1304C20.4917 10.6586 20.7364 11.3191 20.735 12C20.735 12.9087 20.3297 13.719 19.671 14.2718C19.1303 13.8136 18.4408 13.5145 17.6673 13.5145C16.9192 13.5145 16.2447 13.769 15.7127 14.2006L16.7276 15.3607C16.9888 15.1454 17.3225 15.0276 17.6673 15.029C18.4313 15.029 19.0401 15.5765 19.1272 16.283C19.0622 17.2803 18.2302 18.058 17.1725 18.058C17.1013 18.058 17.0142 18.055 16.8757 18.0345L16.1085 17.9157L15.9605 18.6502C15.913 18.9111 15.7699 19.1473 15.5567 19.3164C15.3436 19.4854 15.0744 19.5762 14.7975 19.5725C14.1325 19.5725 13.61 19.0727 13.61 18.4366V10.4621C14.2897 10.9662 15.1249 11.2408 15.985 11.2428V9.7283C14.6645 9.7283 13.61 8.71965 13.61 7.45656V5.94207C13.61 5.09623 14.3091 4.42758 15.1934 4.42758Z" fill="#435FF0"/>
</svg>
