<svg width="14" height="19" viewBox="0 0 14 19" fill="none" xmlns="http://www.w3.org/2000/svg">
  <path
    d="M11.6478 11.1942C11.3267 11.5686 11.1089 11.8645 10.9725 12.1628C10.8348 12.4637 10.7822 12.7617 10.7822 13.1371V14.9371C10.7822 16.8755 9.21056 18.4471 7.27217 18.4471C5.33377 18.4471 3.76217 16.8755 3.76217 14.9371V13.1371C3.76217 12.7617 3.70956 12.4637 3.57188 12.1628C3.43541 11.8645 3.2176 11.5686 2.89651 11.1942C2.87851 11.1729 2.82935 11.1136 2.77643 11.0498C2.7119 10.972 2.64178 10.8874 2.6158 10.8568L2.61548 10.8564C2.07676 10.2283 1.68965 9.65802 1.43646 9.02941C1.1835 8.40135 1.06217 7.70988 1.06217 6.83711C1.06217 3.40742 3.84247 0.627109 7.27217 0.627109C10.7019 0.627109 13.4822 3.40742 13.4822 6.83711C13.4822 7.70988 13.3608 8.40135 13.1079 9.02941C12.8547 9.65802 12.4676 10.2283 11.9289 10.8564L11.9285 10.8568C11.9026 10.8874 11.8325 10.9719 11.768 11.0497C11.715 11.1136 11.6658 11.1729 11.6478 11.1942ZM11.6478 11.1942C11.6479 11.1941 11.648 11.194 11.648 11.1939L11.7164 11.2525M11.6478 11.1942C11.6477 11.1943 11.6477 11.1944 11.6476 11.1944L11.7164 11.2525M11.7164 11.2525C11.0765 11.9986 10.8722 12.4054 10.8722 13.1371V14.9371C10.8722 16.9252 9.26027 18.5371 7.27217 18.5371C5.28407 18.5371 3.67217 16.9252 3.67217 14.9371V13.1371C3.67217 12.4054 3.46788 11.9986 2.82798 11.2525L11.9972 10.915C11.9698 10.9472 11.9026 11.0284 11.8397 11.1042C11.7866 11.1683 11.7366 11.2286 11.7164 11.2525ZM10.7155 9.79275L10.7152 9.79315C10.6918 9.82007 10.6309 9.88568 10.5698 9.95151L10.559 9.96317L10.7155 9.79275ZM10.7155 9.79275C11.1322 9.30629 11.4207 8.89192 11.6037 8.43452C11.7871 7.97638 11.8622 7.48149 11.8622 6.83711C11.8622 4.3025 9.80677 2.24711 7.27217 2.24711C4.73756 2.24711 2.68217 4.3025 2.68217 6.83711C2.68217 7.48149 2.75726 7.97638 2.94061 8.43452C3.12366 8.89192 3.41211 9.30629 3.82882 9.79276L3.82916 9.79315C3.8525 9.82008 3.91343 9.88571 3.97455 9.95156L3.98533 9.96317C4.05166 10.0346 4.11563 10.1037 4.13843 10.1303C4.77348 10.8713 5.13535 11.535 5.29421 12.2661L5.30962 12.337H5.38216C5.95285 12.337 6.61196 12.3359 7.27096 12.3348C7.93001 12.3336 8.58895 12.3325 9.15945 12.3325H9.23198M10.7155 9.79275L9.23198 12.3325M9.23198 12.3325L9.2474 12.2616M9.23198 12.3325L9.2474 12.2616M9.2474 12.2616C9.4062 11.5317 9.77061 10.8716 10.4059 10.1303L9.2474 12.2616ZM5.47217 13.9471H5.38217V14.0371V14.9371C5.38217 15.9813 6.22796 16.8271 7.27217 16.8271C8.31637 16.8271 9.16217 15.9813 9.16217 14.9371V14.0371V13.9471H9.07217H9.06565H9.05912H9.05259H9.04605H9.0395H9.03295H9.0264H9.01983H9.01327H9.00669H9.00011H8.99353H8.98693H8.98034H8.97374H8.96713H8.96051H8.95389H8.94727H8.94064H8.934H8.92736H8.92071H8.91406H8.9074H8.90074H8.89407H8.88739H8.88071H8.87403H8.86734H8.86064H8.85394H8.84723H8.84052H8.83381H8.82708H8.82036H8.81363H8.80689H8.80015H8.7934H8.78665H8.77989H8.77313H8.76636H8.75959H8.75281H8.74603H8.73924H8.73245H8.72565H8.71885H8.71204H8.70523H8.69842H8.6916H8.68477H8.67794H8.67111H8.66427H8.65743H8.65058H8.64373H8.63687H8.63001H8.62314H8.61627H8.6094H8.60252H8.59563H8.58875H8.58185H8.57496H8.56806H8.56115H8.55424H8.54733H8.54041H8.53349H8.52656H8.51963H8.5127H8.50576H8.49882H8.49187H8.48492H8.47797H8.47101H8.46405H8.45708H8.45011H8.44314H8.43616H8.42918H8.42219H8.4152H8.40821H8.40121H8.39421H8.38721H8.3802H8.37319H8.36618H8.35916H8.35214H8.34511H8.33808H8.33105H8.32401H8.31697H8.30993H8.30289H8.29584H8.28878H8.28173H8.27467H8.26761H8.26054H8.25347H8.2464H8.23932H8.23224H8.22516H8.21808H8.21099H8.2039H8.19681H8.18971H8.18261H8.17551H8.1684H8.16129H8.15418H8.14707H8.13995H8.13283H8.12571H8.11858H8.11145H8.10432H8.09719H8.09005H8.08291H8.07577H8.06862H8.06148H8.05433H8.04718H8.04002H8.03286H8.0257H8.01854H8.01138H8.00421H7.99704H7.98987H7.9827H7.97552H7.96834H7.96116H7.95398H7.94679H7.9396H7.93242H7.92522H7.91803H7.91083H7.90364H7.89644H7.88923H7.88203H7.87482H7.86762H7.86041H7.85319H7.84598H7.83877H7.83155H7.82433H7.81711H7.80989H7.80266H7.79543H7.78821H7.78098H7.77375H7.76651H7.75928H7.75204H7.74481H7.73757H7.73033H7.72308H7.71584H7.7086H7.70135H7.6941H7.68685H7.6796H7.67235H7.6651H7.65784H7.65059H7.64333H7.63607H7.62881H7.62155H7.61429H7.60703H7.59977H7.5925H7.58524H7.57797H7.5707H7.56343H7.55616H7.54889H7.54162H7.53435H7.52708H7.5198H7.51253H7.50525H7.49798H7.4907H7.48342H7.47614H7.46886H7.46158H7.4543H7.44702H7.43974H7.43246H7.42518H7.41789H7.41061H7.40333H7.39604H7.38876H7.38147H7.37419H7.3669H7.35962H7.35233H7.34504H7.33776H7.33047H7.32318H7.31589H7.30861H7.30132H7.29403H7.28674H7.27946H7.27217H7.26488H7.25759H7.2503H7.24302H7.23573H7.22844H7.22115H7.21387H7.20658H7.19929H7.19201H7.18472H7.17743H7.17015H7.16286H7.15558H7.14829H7.14101H7.13373H7.12644H7.11916H7.11188H7.10459H7.09731H7.09003H7.08275H7.07547H7.06819H7.06091H7.05364H7.04636H7.03908H7.03181H7.02453H7.01726H7.00999H7.00271H6.99544H6.98817H6.9809H6.97363H6.96637H6.9591H6.95183H6.94457H6.93731H6.93004H6.92278H6.91552H6.90826H6.90101H6.89375H6.88649H6.87924H6.87199H6.86473H6.85748H6.85023H6.84299H6.83574H6.8285H6.82125H6.81401H6.80677H6.79953H6.79229H6.78506H6.77782H6.77059H6.76336H6.75613H6.7489H6.74168H6.73445H6.72723H6.72001H6.71279H6.70557H6.69836H6.69114H6.68393H6.67672H6.66951H6.66231H6.6551H6.6479H6.6407H6.6335H6.62631H6.61911H6.61192H6.60473H6.59754H6.59036H6.58318H6.576H6.56882H6.56164H6.55447H6.5473H6.54013H6.53296H6.52579H6.51863H6.51147H6.50432H6.49716H6.49001H6.48286H6.47571H6.46857H6.46143H6.45429H6.44715H6.44002H6.43289H6.42576H6.41863H6.41151H6.40439H6.39727H6.39016H6.38304H6.37594H6.36883H6.36173H6.35463H6.34753H6.34044H6.33335H6.32626H6.31917H6.31209H6.30501H6.29794H6.29087H6.2838H6.27673H6.26967H6.26261H6.25555H6.2485H6.24145H6.23441H6.22736H6.22032H6.21329H6.20625H6.19923H6.1922H6.18518H6.17816H6.17115H6.16414H6.15713H6.15012H6.14312H6.13613H6.12913H6.12215H6.11516H6.10818H6.1012H6.09423H6.08726H6.08029H6.07333H6.06637H6.05942H6.05247H6.04552H6.03858H6.03164H6.0247H6.01777H6.01085H6.00393H5.99701H5.9901H5.98319H5.97628H5.96938H5.96248H5.95559H5.9487H5.94182H5.93494H5.92807H5.9212H5.91433H5.90747H5.90061H5.89376H5.88691H5.88007H5.87323H5.86639H5.85956H5.85274H5.84592H5.8391H5.83229H5.82549H5.81868H5.81189H5.8051H5.79831H5.79153H5.78475H5.77798H5.77121H5.76445H5.75769H5.75094H5.74419H5.73745H5.73071H5.72398H5.71725H5.71053H5.70381H5.6971H5.6904H5.68369H5.677H5.67031H5.66362H5.65694H5.65027H5.6436H5.63694H5.63028H5.62362H5.61698H5.61034H5.6037H5.59707H5.59044H5.58382H5.57721H5.5706H5.564H5.5574H5.55081H5.54422H5.53764H5.53107H5.5245H5.51794H5.51138H5.50483H5.49829H5.49175H5.48522H5.47869H5.47217ZM4.66217 6.83711C4.66217 5.39551 5.83057 4.22711 7.27217 4.22711C7.71926 4.22711 8.08217 4.59001 8.08217 5.03711C8.08217 5.4842 7.71926 5.84711 7.27217 5.84711C6.72566 5.84711 6.28217 6.2906 6.28217 6.83711C6.28217 7.2842 5.91926 7.64711 5.47217 7.64711C5.02507 7.64711 4.66217 7.2842 4.66217 6.83711Z"
    fill="#99A7EE" stroke="#99A7EE" stroke-width="0.18" />
</svg>
  