<svg width="25" height="25" viewBox="0 0 25 25" fill="none" xmlns="http://www.w3.org/2000/svg">
<path fill-rule="evenodd" clip-rule="evenodd" d="M11.7451 8.21226C12.1216 9.57285 11.6981 10.9923 10.77 11.8672C10.5941 12.0331 10.5374 12.3012 10.6756 12.4997C10.9699 12.9221 11.3045 13.3237 11.6798 13.6992C12.0545 14.0742 12.4551 14.4087 12.8765 14.7029C13.0755 14.8418 13.3445 14.7841 13.5101 14.6067C14.3836 13.6713 15.8071 13.2431 17.1714 13.6212C19.0104 14.131 20.0454 15.9126 19.4832 17.6006C17.8358 22.5472 11.4933 17.6443 9.61551 15.765C7.69231 13.8404 2.86472 7.53437 7.76866 5.89877C9.45544 5.33615 11.2357 6.37194 11.7451 8.21226Z" stroke="#435FF0" stroke-width="1.7"/>
</svg>
