<svg width="24" height="25" viewBox="0 0 24 25" fill="none" xmlns="http://www.w3.org/2000/svg">
<path fill-rule="evenodd" clip-rule="evenodd" d="M10.4611 2.5874C8.84286 2.5874 7.40614 3.62293 6.89439 5.15817C6.83711 5.33003 6.69599 5.46071 6.52025 5.50464L5.79554 5.68582C4.15258 6.09656 3 7.57276 3 9.26628V16.0874C3 18.5727 5.01472 20.5874 7.5 20.5874H16.5C18.9853 20.5874 21 18.5727 21 16.0874V9.26628C21 7.57276 19.8474 6.09656 18.2045 5.68582L17.4798 5.50464C17.304 5.46071 17.1629 5.33003 17.1056 5.15817C16.5939 3.62293 15.1571 2.5874 13.5389 2.5874H10.4611ZM8.60202 5.72738C8.86876 4.92716 9.61764 4.3874 10.4611 4.3874H13.5389C14.3824 4.3874 15.1312 4.92716 15.398 5.72738C15.6499 6.48308 16.2704 7.0577 17.0432 7.2509L17.7679 7.43208C18.6096 7.64249 19.2 8.39872 19.2 9.26628V16.0874C19.2 17.5786 17.9912 18.7874 16.5 18.7874H7.5C6.00883 18.7874 4.8 17.5786 4.8 16.0874V9.26628C4.8 8.39872 5.39045 7.64249 6.2321 7.43208L6.95681 7.2509C7.7296 7.0577 8.35013 6.48308 8.60202 5.72738ZM10.2 12.4874C10.2 11.4933 11.0059 10.6874 12 10.6874C12.9941 10.6874 13.8 11.4933 13.8 12.4874C13.8 13.4815 12.9941 14.2874 12 14.2874C11.0059 14.2874 10.2 13.4815 10.2 12.4874ZM12 8.8874C10.0118 8.8874 8.4 10.4992 8.4 12.4874C8.4 14.4756 10.0118 16.0874 12 16.0874C13.9882 16.0874 15.6 14.4756 15.6 12.4874C15.6 10.4992 13.9882 8.8874 12 8.8874Z" fill="#435FF0"/>
</svg>
