<svg width="25" height="25" viewBox="0 0 25 25" fill="none" xmlns="http://www.w3.org/2000/svg">
<path fill-rule="evenodd" clip-rule="evenodd" d="M12.8184 5.3874C8.84191 5.3874 5.61836 8.61095 5.61836 12.5874C5.61836 14.1103 6.09018 15.5204 6.89561 16.6827C7.16216 17.0674 7.22641 17.581 7.01528 18.0352L6.20092 19.7874H12.8184C16.7948 19.7874 20.0184 16.5639 20.0184 12.5874C20.0184 8.61095 16.7948 5.3874 12.8184 5.3874ZM3.81836 12.5874C3.81836 7.61684 7.8478 3.5874 12.8184 3.5874C17.7889 3.5874 21.8184 7.61684 21.8184 12.5874C21.8184 17.558 17.7889 21.5874 12.8184 21.5874H5.49379C4.47299 21.5874 3.82723 20.5014 4.29901 19.6088L5.27794 17.5026C4.35495 16.0892 3.81836 14.3997 3.81836 12.5874Z" fill="#435FF0"/>
</svg>
