<svg width="16" height="16" viewBox="0 0 16 16" fill="none" xmlns="http://www.w3.org/2000/svg">
  <path
    d="M2.15784 0.817449C1.86739 0.526996 1.39648 0.526996 1.10602 0.817449C0.81557 1.1079 0.81557 1.57882 1.10602 1.86927L7.22074 7.98398L1.10604 14.0987C0.815586 14.3891 0.815586 14.8601 1.10604 15.1505C1.39649 15.441 1.86741 15.441 2.15786 15.1505L8.27256 9.03581L14.3873 15.1505C14.6777 15.441 15.1486 15.441 15.4391 15.1505C15.7295 14.8601 15.7295 14.3891 15.4391 14.0987L9.32438 7.98398L15.4391 1.86927C15.7295 1.57882 15.7295 1.1079 15.4391 0.817449C15.1486 0.526996 14.6777 0.526996 14.3873 0.817449L8.27256 6.93216L2.15784 0.817449Z"
    fill="#313E4C" />
</svg>
  