<svg width="24" height="25" viewBox="0 0 24 25" fill="none" xmlns="http://www.w3.org/2000/svg">
<path fill-rule="evenodd" clip-rule="evenodd" d="M6.52822 7.2959H17.4722C18.4939 7.2959 19.3222 8.12417 19.3222 9.1459V16.3459C19.3222 17.3676 18.4939 18.1959 17.4722 18.1959H6.52822C5.5065 18.1959 4.67822 17.3676 4.67822 16.3459V9.1459C4.67822 8.12417 5.5065 7.2959 6.52822 7.2959ZM2.92822 9.1459C2.92822 7.15767 4.54 5.5459 6.52822 5.5459H17.4722C19.4604 5.5459 21.0722 7.15767 21.0722 9.1459V16.3459C21.0722 18.3341 19.4604 19.9459 17.4722 19.9459H6.52822C4.54 19.9459 2.92822 18.3341 2.92822 16.3459V9.1459ZM11.6999 12.7459C11.6999 13.4438 11.1341 14.0096 10.4363 14.0096C9.7384 14.0096 9.17266 13.4438 9.17266 12.7459C9.17266 12.0481 9.7384 11.4823 10.4363 11.4823C11.1341 11.4823 11.6999 12.0481 11.6999 12.7459ZM8.57294 12.746C8.57294 13.4439 8.00719 14.0097 7.30932 14.0097C6.61144 14.0097 6.0457 13.4439 6.0457 12.746C6.0457 12.0482 6.61144 11.4824 7.30932 11.4824C8.00719 11.4824 8.57294 12.0482 8.57294 12.746ZM13.5637 14.0096C14.2616 14.0096 14.8273 13.4438 14.8273 12.7459C14.8273 12.0481 14.2616 11.4823 13.5637 11.4823C12.8658 11.4823 12.3001 12.0481 12.3001 12.7459C12.3001 13.4438 12.8658 14.0096 13.5637 14.0096ZM17.9545 12.7459C17.9545 13.4438 17.3887 14.0096 16.6909 14.0096C15.993 14.0096 15.4272 13.4438 15.4272 12.7459C15.4272 12.0481 15.993 11.4823 16.6909 11.4823C17.3887 11.4823 17.9545 12.0481 17.9545 12.7459Z" fill="#435FF0"/>
</svg>
