<svg width="24" height="25" viewBox="0 0 24 25" fill="none" xmlns="http://www.w3.org/2000/svg">
<path fill-rule="evenodd" clip-rule="evenodd" d="M5.45722 6.84762C5.45471 6.85587 5.45472 6.85935 5.45472 6.86008L5.45472 6.86013L5.45472 6.86018C5.45472 6.86023 5.45472 6.86029 5.45472 6.86036C5.45473 6.86137 5.45487 6.86492 5.45722 6.87264C5.46 6.88176 5.46685 6.89977 5.48342 6.92676C5.51815 6.98333 5.58897 7.06838 5.72165 7.17294C5.99179 7.38584 6.4334 7.61335 7.05203 7.81956C8.28074 8.22913 10.0302 8.49649 12.0002 8.49649C13.9701 8.49649 15.7196 8.22913 16.9483 7.81956C17.567 7.61335 18.0086 7.38584 18.2787 7.17294C18.4114 7.06838 18.4822 6.98333 18.5169 6.92676C18.5335 6.89977 18.5404 6.88176 18.5431 6.87264C18.5455 6.86484 18.5456 6.8613 18.5456 6.86032C18.5456 6.86027 18.5456 6.86022 18.5456 6.86018V6.86013C18.5456 6.85953 18.5457 6.85609 18.5431 6.84762C18.5404 6.8385 18.5335 6.82049 18.5169 6.7935C18.4822 6.73693 18.4114 6.65188 18.2787 6.54732C18.0086 6.33442 17.567 6.10691 16.9483 5.9007C15.7196 5.49113 13.9701 5.22377 12.0002 5.22377C10.0302 5.22377 8.28074 5.49113 7.05203 5.9007C6.4334 6.10691 5.99179 6.33442 5.72165 6.54732C5.58897 6.65188 5.51815 6.73693 5.48342 6.7935C5.46685 6.82049 5.46 6.8385 5.45722 6.84762ZM18.5456 8.92735C18.2174 9.09522 17.8529 9.24291 17.4658 9.37195C16.0294 9.85075 14.0971 10.1329 12.0002 10.1329C9.9033 10.1329 7.97097 9.85075 6.53457 9.37195C6.14744 9.24291 5.783 9.09522 5.45472 8.92735V12.5874C5.45472 12.5889 5.45479 12.5932 5.4575 12.6021C5.46041 12.6118 5.46736 12.63 5.48383 12.6571C5.51831 12.7136 5.58848 12.7985 5.71997 12.9026C5.98784 13.1149 6.42662 13.342 7.04336 13.5479C8.26838 13.9569 10.0175 14.2238 12.0002 14.2238C13.9828 14.2238 15.732 13.9569 16.957 13.5479C17.5737 13.342 18.0125 13.1149 18.2804 12.9026C18.4119 12.7985 18.482 12.7136 18.5165 12.6571C18.533 12.63 18.5399 12.6118 18.5429 12.6021C18.5456 12.5932 18.5456 12.5889 18.5456 12.5874V8.92735ZM20.182 12.5874V6.86013C20.182 6.16308 19.7574 5.62925 19.2916 5.2621C18.8165 4.88768 18.1797 4.58628 17.4658 4.34831C16.0294 3.86951 14.0971 3.5874 12.0002 3.5874C9.9033 3.5874 7.97097 3.86951 6.53457 4.34831C5.82064 4.58628 5.18387 4.88768 4.70878 5.2621C4.24291 5.62925 3.81836 6.16308 3.81836 6.86013V12.5874V18.3147C3.81836 19.0096 4.23825 19.5436 4.70368 19.9124C5.17729 20.2877 5.81237 20.5894 6.52518 20.8273C7.95925 21.3061 9.89192 21.5874 12.0002 21.5874C14.1084 21.5874 16.0411 21.3061 17.4752 20.8273C18.188 20.5894 18.8231 20.2877 19.2967 19.9124C19.7621 19.5436 20.182 19.0096 20.182 18.3147V12.5874ZM18.5456 14.6589C18.22 14.8254 17.8589 14.972 17.4752 15.1001C16.0411 15.5788 14.1084 15.8601 12.0002 15.8601C9.89192 15.8601 7.95925 15.5788 6.52518 15.1001C6.14148 14.972 5.78031 14.8254 5.45472 14.6589V18.3147C5.45472 18.3162 5.45479 18.3204 5.4575 18.3294C5.46041 18.339 5.46736 18.3573 5.48383 18.3843C5.51831 18.4409 5.58848 18.5257 5.71997 18.6299C5.98784 18.8422 6.42662 19.0693 7.04336 19.2752C8.26838 19.6842 10.0175 19.951 12.0002 19.951C13.9828 19.951 15.732 19.6842 16.957 19.2752C17.5737 19.0693 18.0125 18.8422 18.2804 18.6299C18.4119 18.5257 18.482 18.4409 18.5165 18.3843C18.533 18.3573 18.5399 18.339 18.5429 18.3294C18.5456 18.3204 18.5456 18.3162 18.5456 18.3147V14.6589Z" fill="#435FF0"/>
</svg>
