<svg width="25" height="25" viewBox="0 0 25 25" fill="none" xmlns="http://www.w3.org/2000/svg">
<path fill-rule="evenodd" clip-rule="evenodd" d="M10.6257 5.80239C10.7732 5.65492 10.9732 5.57207 11.1818 5.57207H14.4545C14.663 5.57207 14.8631 5.65492 15.0105 5.80239C15.158 5.94986 15.2409 6.14988 15.2409 6.35843V7.1448H10.3954V6.35843C10.3954 6.14988 10.4783 5.94986 10.6257 5.80239ZM8.6954 7.1448V6.35843C8.6954 5.69901 8.95736 5.06659 9.42364 4.60031C9.88992 4.13403 10.5223 3.87207 11.1818 3.87207H14.4545C15.1139 3.87207 15.7463 4.13403 16.2126 4.60031C16.6789 5.06659 16.9409 5.69901 16.9409 6.35843V7.1448H18.5445L18.5454 7.1448L18.5463 7.1448H20.1818C20.6512 7.1448 21.0318 7.52536 21.0318 7.9948C21.0318 8.46424 20.6512 8.8448 20.1818 8.8448H19.3954V19.4493C19.3954 20.1088 19.1334 20.7412 18.6672 21.2075C18.2009 21.6737 17.5685 21.9357 16.909 21.9357H8.72722C8.06779 21.9357 7.43538 21.6738 6.96909 21.2075C6.50281 20.7412 6.24086 20.1088 6.24086 19.4493V8.8448H5.45449C4.98505 8.8448 4.60449 8.46424 4.60449 7.9948C4.60449 7.52536 4.98505 7.1448 5.45449 7.1448H7.08995L7.09086 7.1448L7.09177 7.1448H8.6954ZM7.94086 8.8448H9.5454H16.0909H17.6954V19.4493C17.6954 19.6579 17.6126 19.8579 17.4651 20.0054C17.3176 20.1529 17.1176 20.2357 16.909 20.2357H8.72722C8.51866 20.2357 8.31865 20.1529 8.17118 20.0054C8.0237 19.8579 7.94086 19.6579 7.94086 19.4493V8.8448ZM11.1818 11.2357C11.6512 11.2357 12.0318 11.6163 12.0318 12.0857V16.9948C12.0318 17.4642 11.6512 17.8448 11.1818 17.8448C10.7123 17.8448 10.3318 17.4642 10.3318 16.9948V12.0857C10.3318 11.6163 10.7123 11.2357 11.1818 11.2357ZM15.3045 12.0857C15.3045 11.6163 14.9239 11.2357 14.4545 11.2357C13.9851 11.2357 13.6045 11.6163 13.6045 12.0857V16.9948C13.6045 17.4642 13.9851 17.8448 14.4545 17.8448C14.9239 17.8448 15.3045 17.4642 15.3045 16.9948V12.0857Z" fill="#435FF0"/>
</svg>
