<svg width="25" height="25" viewBox="0 0 25 25" fill="none" xmlns="http://www.w3.org/2000/svg">
<path fill-rule="evenodd" clip-rule="evenodd" d="M12.1817 16.0819C12.5332 16.4334 13.103 16.4334 13.4545 16.0819L17.0545 12.4819C17.406 12.1305 17.406 11.5606 17.0545 11.2091C16.703 10.8577 16.1332 10.8577 15.7817 11.2091L13.7182 13.2727V4.64561C13.7182 4.14855 13.3152 3.74561 12.8181 3.74561C12.3211 3.74561 11.9181 4.14855 11.9181 4.64561V13.2728L9.85451 11.2091C9.50304 10.8577 8.93319 10.8577 8.58172 11.2091C8.23025 11.5606 8.23025 12.1305 8.58172 12.4819L12.1817 16.0819ZM7.41816 14.6456C7.41816 14.1486 7.01522 13.7456 6.51816 13.7456C6.02111 13.7456 5.61816 14.1486 5.61816 14.6456V18.1456C5.61816 20.1338 7.22994 21.7456 9.21816 21.7456H16.4182C18.4064 21.7456 20.0182 20.1338 20.0182 18.1456V14.6456C20.0182 14.1486 19.6152 13.7456 19.1182 13.7456C18.6211 13.7456 18.2182 14.1486 18.2182 14.6456V18.1456C18.2182 19.1397 17.4123 19.9456 16.4182 19.9456H9.21816C8.22405 19.9456 7.41816 19.1397 7.41816 18.1456V14.6456Z" fill="#435FF0"/>
</svg>
