<svg width="24" height="25" viewBox="0 0 24 25" fill="none" xmlns="http://www.w3.org/2000/svg">
<path fill-rule="evenodd" clip-rule="evenodd" d="M18.3814 5.49561C18.0545 5.49561 17.7411 5.62545 17.51 5.85656L15.6995 7.66707L17.4423 9.40993L19.2528 7.59943C19.3673 7.48499 19.458 7.34913 19.52 7.19961C19.5819 7.05009 19.6138 6.88984 19.6138 6.72799C19.6138 6.56615 19.5819 6.4059 19.52 6.25638C19.458 6.10686 19.3673 5.971 19.2528 5.85656C19.1384 5.74213 19.0025 5.65135 18.853 5.58942C18.7035 5.52748 18.5432 5.49561 18.3814 5.49561ZM6.61205 16.7545L14.2852 9.08128L16.0281 10.8241L8.35491 18.4973C7.9384 18.9139 7.41651 19.2093 6.84506 19.3522L5.39456 19.7148L5.75719 18.2643C5.90005 17.6929 6.19554 17.171 6.61205 16.7545ZM16.4493 4.7959C16.9617 4.28348 17.6567 3.99561 18.3814 3.99561C18.7402 3.99561 19.0955 4.06628 19.427 4.2036C19.7585 4.34091 20.0598 4.54218 20.3135 4.7959C20.5672 5.04963 20.7685 5.35084 20.9058 5.68235C21.0431 6.01386 21.1138 6.36917 21.1138 6.72799C21.1138 7.08682 21.0431 7.44213 20.9058 7.77363C20.7685 8.10514 20.5672 8.40636 20.3135 8.66009L9.41557 19.558C8.80682 20.1668 8.04406 20.5986 7.20886 20.8074L4.54569 21.4732C4.29011 21.5371 4.01974 21.4622 3.83346 21.2759C3.64717 21.0897 3.57228 20.8193 3.63618 20.5637L4.30197 17.9005C4.51077 17.0653 4.94264 16.3026 5.55139 15.6938L16.4493 4.7959ZM13.3638 20.0698C12.8115 20.0698 12.3638 20.445 12.3638 20.9077C12.3638 21.3705 12.8115 21.7456 13.3638 21.7456H20.3638C20.9161 21.7456 21.3638 21.3705 21.3638 20.9077C21.3638 20.445 20.9161 20.0698 20.3638 20.0698H13.3638Z" fill="#435FF0"/>
</svg>
