<svg width="25" height="25" viewBox="0 0 25 25" fill="none" xmlns="http://www.w3.org/2000/svg">
<path fill-rule="evenodd" clip-rule="evenodd" d="M3.50488 12.5872C3.50488 7.64426 7.51193 3.63721 12.4549 3.63721C17.3978 3.63721 21.4049 7.64426 21.4049 12.5872C21.4049 17.5302 17.3978 21.5372 12.4549 21.5372C7.51193 21.5372 3.50488 17.5302 3.50488 12.5872ZM12.4549 5.33721C8.45082 5.33721 5.20488 8.58314 5.20488 12.5872C5.20488 16.5913 8.45082 19.8372 12.4549 19.8372C16.4589 19.8372 19.7049 16.5913 19.7049 12.5872C19.7049 8.58314 16.4589 5.33721 12.4549 5.33721ZM9.15384 9.28617C9.48579 8.95422 10.024 8.95422 10.3559 9.28617L12.4549 11.3851L14.5538 9.28617C14.8858 8.95422 15.424 8.95422 15.7559 9.28617C16.0879 9.61811 16.0879 10.1563 15.7559 10.4882L13.657 12.5872L15.7559 14.6862C16.0879 15.0181 16.0879 15.5563 15.7559 15.8882C15.424 16.2202 14.8858 16.2202 14.5538 15.8882L12.4549 13.7893L10.3559 15.8882C10.024 16.2202 9.48579 16.2202 9.15384 15.8882C8.8219 15.5563 8.8219 15.0181 9.15384 14.6862L11.2528 12.5872L9.15384 10.4882C8.8219 10.1563 8.8219 9.61811 9.15384 9.28617Z" fill="#435FF0"/>
</svg>
