<svg width="25" height="25" viewBox="0 0 25 25" fill="none" xmlns="http://www.w3.org/2000/svg">
<path fill-rule="evenodd" clip-rule="evenodd" d="M12.8181 8.9587C10.8095 8.9587 9.18547 10.5827 9.18547 12.5914C9.18547 14.6 10.8095 16.224 12.8181 16.224C14.8267 16.224 16.4508 14.6 16.4508 12.5914C16.4508 10.5827 14.8267 8.9587 12.8181 8.9587ZM10.4712 12.5914C10.4712 11.2928 11.5196 10.2444 12.8181 10.2444C14.1167 10.2444 15.1651 11.2928 15.1651 12.5914C15.1651 13.8899 14.1167 14.9383 12.8181 14.9383C11.5196 14.9383 10.4712 13.8899 10.4712 12.5914Z" fill="#435FF0"/>
<path fill-rule="evenodd" clip-rule="evenodd" d="M12.8182 4.82666C9.5098 4.82666 6.5201 6.77749 4.49327 9.96347C4.00957 10.7216 3.79639 11.6803 3.79639 12.5874C3.79639 13.4943 4.00946 14.4528 4.49291 15.2108C6.51976 18.3971 9.50961 20.3482 12.8182 20.3482C16.1268 20.3482 19.1167 18.3971 21.1435 15.2108C21.627 14.4528 21.84 13.4943 21.84 12.5874C21.84 11.6805 21.627 10.722 21.1435 9.96403C19.1167 6.77772 16.1268 4.82666 12.8182 4.82666ZM5.9273 10.8765C7.72538 8.04977 10.2307 6.52666 12.8182 6.52666C15.4057 6.52666 17.911 8.04977 19.7091 10.8765L19.7098 10.8776C19.9775 11.2969 20.14 11.9164 20.14 12.5874C20.14 13.2585 19.9775 13.8779 19.7098 14.2973L19.7091 14.2984C17.911 17.1251 15.4057 18.6482 12.8182 18.6482C10.2307 18.6482 7.72538 17.1251 5.9273 14.2984L5.92659 14.2973C5.65891 13.8779 5.49639 13.2585 5.49639 12.5874C5.49639 11.9164 5.65891 11.2969 5.92659 10.8776L5.9273 10.8765Z" fill="#435FF0"/>
</svg>
