<svg
  width="33"
  height="33"
  viewBox="0 0 33 33"
  fill="none"
  xmlns="http://www.w3.org/2000/svg"
>
  <rect x="0.272461" y="0.984375" width="32" height="32" rx="6" fill="white" />
  <path
    d="M12.335 23.3828C12.0643 23.3828 11.8428 23.1613 11.8428 22.8906V11.0781C11.8428 10.8074 12.0643 10.5859 12.335 10.5859H17.2568V13.0469C17.2568 13.5914 17.6967 14.0312 18.2412 14.0312H20.7021V22.8906C20.7021 23.1613 20.4807 23.3828 20.21 23.3828H12.335ZM12.335 9.10938C11.2491 9.10938 10.3662 9.99224 10.3662 11.0781V22.8906C10.3662 23.9765 11.2491 24.8594 12.335 24.8594H20.21C21.2958 24.8594 22.1787 23.9765 22.1787 22.8906V13.8621C22.1787 13.3391 21.9726 12.8377 21.6035 12.4686L18.8165 9.68462C18.4473 9.31548 17.949 9.10938 17.426 9.10938H12.335ZM14.0576 16.9844C13.6485 16.9844 13.3193 17.3135 13.3193 17.7227C13.3193 18.1318 13.6485 18.4609 14.0576 18.4609H18.4873C18.8964 18.4609 19.2256 18.1318 19.2256 17.7227C19.2256 17.3135 18.8964 16.9844 18.4873 16.9844H14.0576ZM14.0576 19.9375C13.6485 19.9375 13.3193 20.2667 13.3193 20.6758C13.3193 21.0849 13.6485 21.4141 14.0576 21.4141H18.4873C18.8964 21.4141 19.2256 21.0849 19.2256 20.6758C19.2256 20.2667 18.8964 19.9375 18.4873 19.9375H14.0576Z"
    fill="#435FF0"
  />
</svg>