<svg
  width="32"
  height="33"
  viewBox="0 0 32 33"
  fill="none"
  xmlns="http://www.w3.org/2000/svg"
>
  <rect x="0.00683594" y="0.983887" width="32" height="32" rx="16" fill="#EBEEF8" />
  <path
    d="M10.8506 10.187C10.8506 9.79736 10.5371 9.48389 10.1475 9.48389C9.75781 9.48389 9.44434 9.79736 9.44434 10.187V11.3589V19.7524V21.2026V23.7808C9.44434 24.1704 9.75781 24.4839 10.1475 24.4839C10.5371 24.4839 10.8506 24.1704 10.8506 23.7808V20.8511L13.2031 20.2622C14.4072 19.9604 15.6816 20.1011 16.792 20.6548C18.0869 21.3022 19.5898 21.3813 20.9434 20.8716L21.96 20.4907C22.3262 20.353 22.5693 20.0044 22.5693 19.6118V11.4175C22.5693 10.7437 21.8604 10.3042 21.2568 10.606L20.9756 10.7466C19.6191 11.4263 18.0225 11.4263 16.666 10.7466C15.6377 10.231 14.457 10.1021 13.3408 10.3804L10.8506 11.0073V10.187ZM10.8506 12.4575L13.6807 11.7485C14.4717 11.5522 15.3066 11.6431 16.0361 12.0063C17.6445 12.8091 19.5137 12.8765 21.1631 12.2056V19.2896L20.4482 19.5562C19.4609 19.9253 18.3623 19.8696 17.4189 19.3979C16.0068 18.6919 14.3926 18.5161 12.8604 18.897L10.8506 19.4009V12.4575Z"
    fill="#313E4C"
  />
</svg>