<svg width="25" height="25" viewBox="0 0 25 25" fill="none" xmlns="http://www.w3.org/2000/svg">
<path d="M6.53955 4.74756C6.53955 4.27998 6.16338 3.90381 5.6958 3.90381C5.22822 3.90381 4.85205 4.27998 4.85205 4.74756V6.15381V16.2261V17.9663V21.0601C4.85205 21.5276 5.22822 21.9038 5.6958 21.9038C6.16338 21.9038 6.53955 21.5276 6.53955 21.0601V17.5444L9.3626 16.8378C10.8075 16.4757 12.3368 16.6444 13.6692 17.3089C15.2231 18.0858 17.0267 18.1808 18.6509 17.569L19.8708 17.112C20.3103 16.9468 20.6021 16.5284 20.6021 16.0573V6.22412C20.6021 5.41553 19.7513 4.88818 19.0271 5.25029L18.6896 5.41904C17.0618 6.23467 15.1458 6.23467 13.5181 5.41904C12.2841 4.80029 10.8673 4.64561 9.52783 4.97959L6.53955 5.73193V4.74756ZM6.53955 7.47217L9.93564 6.62139C10.8849 6.38584 11.8868 6.49482 12.7622 6.93076C14.6923 7.89404 16.9353 7.9749 18.9146 7.16982V15.6706L18.0567 15.9905C16.872 16.4335 15.5536 16.3667 14.4216 15.8007C12.7271 14.9534 10.7899 14.7425 8.95127 15.1995L6.53955 15.8042V7.47217Z" fill="#435FF0"/>
</svg>
