<svg width="25" height="24" viewBox="0 0 25 24" fill="none" xmlns="http://www.w3.org/2000/svg">
<path d="M11.7797 21.0076C10.9787 21.0069 10.2107 20.6882 9.64434 20.1218C9.07803 19.5555 8.75933 18.7874 8.75857 17.9865V13.3245C7.60911 13.1747 6.55298 12.6122 5.78779 11.7409C5.02198 10.8704 4.59936 9.7515 4.59783 8.59206V6.15715C3.86795 5.86444 3.44837 5.09482 3.5974 4.32214C3.74643 3.55023 4.42282 2.99231 5.20924 2.99231C5.99567 2.99231 6.67206 3.55023 6.82108 4.32214C6.97012 5.09482 6.55054 5.86444 5.82066 6.15715V8.59206C5.82218 9.85846 6.49933 11.0285 7.59681 11.6615C8.69428 12.2944 10.0456 12.2943 11.143 11.6615C12.2404 11.0286 12.9169 9.85856 12.9192 8.59206V6.15715C12.1885 5.86444 11.7689 5.09482 11.918 4.32291C12.067 3.55023 12.7426 2.99231 13.5298 2.99231C14.3162 2.99231 14.9918 3.54947 15.1416 4.32214C15.2907 5.09405 14.8711 5.86367 14.142 6.15639V8.59207C14.1404 9.75147 13.717 10.8705 12.952 11.7409C12.1862 12.6122 11.1308 13.1747 9.98124 13.3245V17.9865C9.99194 18.9717 10.7936 19.765 11.7796 19.765C12.7647 19.765 13.5664 18.9716 13.5771 17.9865V16.7874C13.587 15.9161 13.9661 15.0899 14.6196 14.5145C15.2738 13.9382 16.1412 13.6669 17.0063 13.7663C17.3128 12.6061 18.4325 11.8533 19.6232 12.0077C20.8131 12.1621 21.7043 13.1755 21.7051 14.3755C21.7051 15.5761 20.8155 16.5903 19.6255 16.7454C18.4356 16.9013 17.3145 16.1493 17.0071 14.9891C16.4683 14.8913 15.9135 15.0334 15.4885 15.3796C15.0643 15.7259 14.8129 16.2402 14.7999 16.7874V17.9866C14.7992 18.7875 14.4805 19.5556 13.9141 20.1219C13.3478 20.6882 12.5806 21.0069 11.7797 21.0076ZM18.1513 14.3775C18.1406 14.6886 18.2606 14.9882 18.4822 15.206C18.7031 15.4238 19.0065 15.5392 19.3168 15.5232C19.6225 15.5262 19.9167 15.407 20.1346 15.1915C20.3524 14.9767 20.4747 14.6832 20.4747 14.3768C20.4747 14.0711 20.3524 13.7776 20.1346 13.5621C19.9167 13.3473 19.6225 13.2281 19.3168 13.2311C19.0065 13.2151 18.7031 13.3297 18.4822 13.5475C18.2606 13.7654 18.1406 14.0672 18.1513 14.3775ZM13.1011 4.62932C13.1057 4.86547 13.2998 5.05349 13.5352 5.05042C13.7714 5.04737 13.9609 4.85477 13.9594 4.61862C13.9548 4.38323 13.7607 4.1952 13.5253 4.19751C13.2891 4.20057 13.0996 4.39317 13.1011 4.62932ZM5.2093 4.21508C5.09695 4.21126 4.98843 4.25406 4.90817 4.33202C4.82716 4.40997 4.78207 4.51697 4.78207 4.62931C4.78207 4.74166 4.82716 4.84942 4.90817 4.92737C4.98842 5.00532 5.09695 5.04736 5.2093 5.0443C5.32088 5.0466 5.42941 5.00456 5.50967 4.92661C5.58991 4.84865 5.63501 4.74165 5.63501 4.62931C5.63501 4.51773 5.58991 4.41073 5.50967 4.33278C5.42942 4.25406 5.32089 4.21202 5.2093 4.21508Z" fill="#435FF0"/>
<path fill-rule="evenodd" clip-rule="evenodd" d="M18.1513 14.3775C18.1513 14.3778 18.1513 14.3773 18.1513 14.3775C18.1406 14.0672 18.2606 13.7654 18.4822 13.5475C18.7031 13.3297 19.0065 13.2151 19.3168 13.2311C19.6225 13.2281 19.9167 13.3473 20.1346 13.5621C20.3524 13.7776 20.4747 14.0711 20.4747 14.3768C20.4747 14.6832 20.3524 14.9767 20.1346 15.1915C19.9167 15.407 19.6225 15.5262 19.3168 15.5232C19.0065 15.5392 18.7031 15.4238 18.4822 15.206C18.2606 14.9882 18.1406 14.6886 18.1513 14.3775ZM20.0292 13.6688C19.8398 13.482 19.584 13.3784 19.3183 13.381L19.309 13.3811C19.0405 13.3673 18.7782 13.4662 18.5875 13.6543C18.3959 13.8426 18.292 14.1032 18.3012 14.3715L18.3016 14.3819C18.2923 14.6509 18.3957 14.9106 18.5874 15.0989C18.7782 15.2872 19.0408 15.3872 19.3091 15.3733L19.3183 15.3728C19.5839 15.3755 19.8397 15.2722 20.0291 15.0848C20.2181 14.8984 20.3247 14.6432 20.3247 14.3767C20.3247 14.1111 20.2185 13.8561 20.0292 13.6688ZM11.7795 21.1575C10.9388 21.1567 10.1327 20.8222 9.53828 20.2278C8.94387 19.6334 8.60937 18.8272 8.60857 17.9865V13.4543C7.47383 13.2755 6.43531 12.7054 5.67513 11.8399C4.88528 10.942 4.4494 9.788 4.44783 8.5922L4.44783 6.25543C3.70962 5.90949 3.29401 5.10307 3.45011 4.29371C3.61278 3.45116 4.351 2.84229 5.20924 2.84229C6.06748 2.84229 6.80569 3.45113 6.96836 4.29368C7.12447 5.10304 6.70886 5.90949 5.97065 6.25543V8.59183C5.97212 9.80464 6.62063 10.9253 7.67174 11.5315C8.72283 12.1376 10.017 12.1375 11.0681 11.5315C12.1191 10.9254 12.767 9.80478 12.7691 8.59174V6.25547C12.0303 5.90957 11.6145 5.10317 11.7707 4.29444C11.9333 3.45121 12.6707 2.84229 13.5298 2.84229C14.3881 2.84229 15.1254 3.4504 15.2889 4.29357C15.445 5.10221 15.0294 5.90867 14.292 6.25463V8.59203C14.2904 9.78786 13.8537 10.9421 13.0647 11.8399C12.304 12.7054 11.2661 13.2755 10.1312 13.4544V17.9856C10.1415 18.8881 10.8761 19.6149 11.7796 19.6149C12.6822 19.6149 13.4169 18.8882 13.4271 17.9856V16.7856C13.4375 15.8718 13.8351 15.0054 14.5204 14.4018C15.1747 13.8256 16.0322 13.5401 16.897 13.6052C17.267 12.4422 18.4195 11.7003 19.6425 11.8588L19.6232 12.0077C18.4325 11.8533 17.3128 12.6061 17.0063 13.7663C16.1412 13.6669 15.2738 13.9382 14.6196 14.5145C13.9661 15.0899 13.587 15.9161 13.5771 16.7874V17.9865C13.5664 18.9716 12.7647 19.765 11.7796 19.765C10.7936 19.765 9.99194 18.9717 9.98124 17.9865V13.3245C11.1308 13.1747 12.1862 12.6122 12.952 11.7409C13.717 10.8705 14.1404 9.75147 14.142 8.59207V6.15639C14.8711 5.86367 15.2907 5.09405 15.1416 4.32214C14.9918 3.54947 14.3162 2.99231 13.5298 2.99231C12.7426 2.99231 12.067 3.55023 11.918 4.32291C11.7689 5.09482 12.1885 5.86444 12.9192 6.15715V8.59206C12.9169 9.85856 12.2404 11.0286 11.143 11.6615C10.0456 12.2943 8.69428 12.2944 7.59681 11.6615C6.49933 11.0285 5.82218 9.85846 5.82066 8.59206V6.15715C6.55054 5.86444 6.97012 5.09482 6.82108 4.32214C6.67206 3.55023 5.99567 2.99231 5.20924 2.99231C4.42282 2.99231 3.74643 3.55023 3.5974 4.32214C3.44837 5.09482 3.86795 5.86444 4.59783 6.15715V8.59206C4.59936 9.7515 5.02198 10.8704 5.78779 11.7409C6.55298 12.6122 7.60911 13.1747 8.75857 13.3245V17.9865C8.75933 18.7874 9.07803 19.5555 9.64434 20.1218C10.2107 20.6882 10.9787 21.0069 11.7797 21.0076C12.5806 21.0069 13.3478 20.6882 13.9141 20.1219C14.4805 19.5556 14.7992 18.7875 14.7999 17.9866V16.7874C14.8129 16.2402 15.0643 15.7259 15.4885 15.3796C15.9135 15.0334 16.4683 14.8913 17.0071 14.9891C17.3145 16.1493 18.4356 16.9013 19.6255 16.7454C20.8155 16.5903 21.7051 15.5761 21.7051 14.3755C21.7043 13.1755 20.8131 12.1621 19.6232 12.0077L19.6425 11.8588C20.9071 12.0229 21.8543 13.1 21.8551 14.3753C21.8551 15.6512 20.9097 16.7291 19.645 16.8941C18.4131 17.0555 17.2507 16.3013 16.8893 15.1226C16.4226 15.0633 15.9503 15.1969 15.5834 15.4958M15.5834 15.4958C15.1937 15.8139 14.9624 16.2864 14.9499 16.7892V17.9865C14.9491 18.8272 14.6146 19.6335 14.0202 20.2279C13.4258 20.8223 12.6203 21.1567 11.7795 21.1575M13.5333 4.9004C13.687 4.89841 13.8099 4.77349 13.8094 4.62056C13.8059 4.46817 13.6799 4.3461 13.527 4.34747C13.3734 4.34959 13.2507 4.47447 13.2511 4.62733C13.2546 4.7808 13.3809 4.90239 13.5333 4.9004ZM13.1011 4.62932C13.0996 4.39317 13.2891 4.20057 13.5253 4.19751C13.7607 4.1952 13.9548 4.38323 13.9594 4.61862C13.9609 4.85477 13.7714 5.04737 13.5352 5.05042C13.2998 5.05349 13.1057 4.86547 13.1011 4.62932ZM5.2042 4.36497C5.13335 4.36256 5.0642 4.38954 5.01268 4.43958C4.96133 4.489 4.93207 4.55734 4.93207 4.62928C4.93207 4.70152 4.96104 4.77005 5.01217 4.81925C5.06315 4.86877 5.13292 4.89629 5.20522 4.89433L5.21238 4.89413C5.28447 4.89561 5.35407 4.86858 5.40515 4.81898M5.2042 4.36497L5.21341 4.365L5.2042 4.36497ZM5.2093 4.21508C5.09695 4.21126 4.98843 4.25406 4.90817 4.33202C4.82716 4.40997 4.78207 4.51697 4.78207 4.62931C4.78207 4.74166 4.82716 4.84942 4.90817 4.92737C4.98842 5.00532 5.09695 5.04736 5.2093 5.0443C5.32088 5.0466 5.42941 5.00456 5.50967 4.92661C5.58991 4.84865 5.63501 4.74165 5.63501 4.62931C5.63501 4.51773 5.58991 4.41073 5.50967 4.33278C5.42942 4.25406 5.32089 4.21202 5.2093 4.21508ZM5.21341 4.365C5.28469 4.36304 5.35371 4.38989 5.40462 4.43983L5.21341 4.365ZM5.40515 4.81898C5.45616 4.76942 5.485 4.7013 5.485 4.62928C5.485 4.55816 5.45574 4.48948 5.40462 4.43983" fill="#435FF0"/>
</svg>
