<svg width="24" height="24" viewBox="0 0 24 24" fill="none" xmlns="http://www.w3.org/2000/svg">
<path d="M12.0293 18.4599L7.74672 14.1341L7.70674 14.0938L7.65159 14.1074C7.5276 14.1382 7.39931 14.1541 7.26768 14.1541H6.13954H5.89982L6.06848 14.3244L11.4273 19.7374C11.7595 20.0734 12.299 20.0734 12.6311 19.7375L12.0293 18.4599ZM12.0293 18.4599L16.3141 14.1341L16.3541 14.0938L16.4092 14.1074C16.5333 14.1382 16.6605 14.1541 16.7909 14.1541H17.9235H18.1634L17.9946 14.3245L12.6312 19.7374L12.0293 18.4599ZM20.7462 10.9971L20.6682 10.9868C20.5972 10.9775 20.5256 10.9729 20.4539 10.9731L20.4537 10.9731L19.4517 10.9731H19.2866L19.3631 10.8267C19.7315 10.1223 19.8665 9.31904 19.7485 8.53293C19.6305 7.74683 19.2657 7.01857 18.7067 6.45337L18.7063 6.45295C18.37 6.10889 17.9687 5.83518 17.5256 5.64777C17.0825 5.46037 16.6065 5.36301 16.1254 5.36138C15.6444 5.35975 15.1678 5.45387 14.7234 5.63826C14.2791 5.82263 13.8759 6.09357 13.5374 6.43529L20.7462 10.9971ZM20.7462 10.9971L20.7746 10.9238M20.7462 10.9971L20.7746 10.9238M20.7746 10.9238C21.1282 10.0107 21.2103 9.01472 21.0108 8.05601C20.8113 7.09737 20.3388 6.21687 19.6504 5.52062C19.1908 5.0517 18.6425 4.67884 18.0375 4.42373C17.4325 4.16858 16.7827 4.03631 16.126 4.0346C15.4694 4.03288 14.8189 4.16177 14.2125 4.41375C13.6061 4.66573 13.0559 5.03578 12.5939 5.50237L12.5938 5.50244L11.9931 6.11019L11.3828 5.49485C11.3827 5.49479 11.3827 5.49473 11.3826 5.49467C10.9236 5.02644 10.376 4.65414 9.77181 4.39941C9.16753 4.14465 8.51862 4.01257 7.86283 4.01086C7.20703 4.00914 6.55744 4.13783 5.95183 4.38944C5.34622 4.64104 4.79668 5.01054 4.33516 5.47644L4.33492 5.47669C3.64312 6.17986 3.1721 7.07001 2.97986 8.03753C2.78763 9.00504 2.88257 10.0076 3.25301 10.9219L3.28113 10.9913L3.35564 10.9838C3.42117 10.9773 3.48529 10.9731 3.54855 10.9731H4.5854H4.7543M20.7746 10.9238L4.7543 10.9731M4.7543 10.9731L4.67308 10.825M4.7543 10.9731L4.67308 10.825M4.67308 10.825C3.89678 9.40961 4.10158 7.59856 5.27853 6.4095L4.67308 10.825ZM9.80426 7.81915V7.8181L9.79663 7.79971C9.74656 7.679 9.66196 7.57577 9.55344 7.50296C9.44493 7.43015 9.31732 7.39101 9.18665 7.39044C9.05597 7.38987 8.92803 7.42791 8.81889 7.49977C8.70974 7.57164 8.62425 7.67413 8.57313 7.7944L8.57312 7.79443L6.82959 11.9001H3.54855C3.37258 11.9001 3.20382 11.97 3.07938 12.0944C2.95495 12.2188 2.88505 12.3876 2.88505 12.5636C2.88505 12.7395 2.95495 12.9083 3.07938 13.0327C3.20382 13.1572 3.37258 13.2271 3.54855 13.2271H7.26768C7.39776 13.2271 7.52498 13.1888 7.63352 13.1171C7.74205 13.0454 7.8271 12.9433 7.8781 12.8237L7.87814 12.8236L9.17706 9.7661L11.3881 15.0723L9.80426 7.81915ZM9.80426 7.81915L12.1193 13.3764M9.80426 7.81915L12.1193 13.3764M14.9076 11.4189L12.5638 15.1692L14.9076 11.4189ZM14.9076 11.4189L16.2918 13.0001L14.9076 11.4189ZM17.0921 11.9001H20.4537C20.6296 11.9001 20.7984 11.97 20.9228 12.0944C21.0473 12.2188 21.1172 12.3876 21.1172 12.5636C21.1172 12.7395 21.0473 12.9083 20.9228 13.0327C20.7984 13.1572 20.6296 13.2271 20.4537 13.2271H16.7909H16.7908C16.6963 13.227 16.6028 13.2067 16.5168 13.1675C16.4307 13.1284 16.354 13.0713 16.2918 13.0002L16.2919 13.0002L17.0921 11.9001ZM17.0921 11.9001L15.3188 9.87182C15.2505 9.79376 15.165 9.73277 15.0689 9.69377C14.9728 9.65476 14.8689 9.6388 14.7656 9.64719C14.6622 9.65558 14.5623 9.68807 14.4738 9.74206C14.3853 9.79603 14.3107 9.86998 14.2559 9.95799L14.256 9.95789L14.3408 10.0109L14.2559 9.95807L17.0921 11.9001ZM12.1193 13.3764L12.0542 13.4804L12.1193 13.3764ZM12.1193 13.3764L12.1664 13.4896L12.1193 13.3764ZM12.4656 7.5206L13.5373 6.4354L5.27858 6.40945C5.61671 6.06835 6.01931 5.79791 6.46296 5.61388C6.90663 5.42985 7.38247 5.33591 7.86279 5.33755C8.34311 5.33918 8.8183 5.43635 9.26071 5.62339C9.70311 5.81044 10.1039 6.08363 10.4397 6.42705L10.4401 6.42748L11.522 7.52065C11.522 7.52066 11.522 7.52067 11.5221 7.52068C11.5838 7.58305 11.6572 7.63258 11.7382 7.66638C11.8192 7.70018 11.906 7.71758 11.9938 7.71758C12.0815 7.71758 12.1684 7.70018 12.2494 7.66638C12.3304 7.63257 12.4038 7.58304 12.4655 7.52065L12.4656 7.5206ZM12.2986 15.4109C12.4075 15.3562 12.4992 15.2726 12.5638 15.1692L11.3881 15.0724C11.4348 15.1849 11.5116 15.2824 11.6101 15.3542C11.7086 15.4259 11.8249 15.4692 11.9464 15.4792C12.0679 15.4892 12.1897 15.4656 12.2986 15.4109Z" fill="#435FF0" stroke="#435FF0" stroke-width="0.2"/>
</svg>
