<svg width="24" height="24" viewBox="0 0 24 24" fill="none" xmlns="http://www.w3.org/2000/svg">
<path d="M16.4097 14.1079C16.5335 14.1386 16.6604 14.1538 16.7905 14.1538H18.1636L17.9946 14.3247L12.6313 19.7378C12.3199 20.0527 11.8258 20.0721 11.4917 19.7964L11.4272 19.7378L6.06885 14.3247L5.8999 14.1538H7.26807C7.39956 14.1538 7.52798 14.1386 7.65186 14.1079L7.70654 14.0942L7.74658 14.1343L12.0288 18.4595L16.314 14.1343L16.354 14.0942L16.4097 14.1079ZM9.18701 7.39014C9.31756 7.39077 9.44481 7.43068 9.55322 7.50342C9.66159 7.57614 9.7463 7.67881 9.79639 7.79932L9.8042 7.81787V7.81885L12.1187 13.3765L14.2563 9.95752C14.3111 9.86975 14.3858 9.79556 14.4741 9.7417C14.5624 9.68794 14.6621 9.6554 14.7651 9.64697C14.8685 9.63859 14.9728 9.65484 15.0688 9.69385C15.1649 9.73284 15.2506 9.79357 15.3188 9.87158L17.0913 11.8999H20.4536C20.6294 11.8999 20.798 11.97 20.9224 12.0942C21.0468 12.2187 21.1167 12.388 21.1167 12.564C21.1166 12.7398 21.0467 12.9084 20.9224 13.0327C20.798 13.157 20.6295 13.2271 20.4536 13.2271H16.7905C16.6962 13.2269 16.603 13.2065 16.5171 13.1675C16.4527 13.1382 16.3931 13.0991 16.3413 13.0513L16.2915 13.0005L14.9067 11.4185L12.564 15.1694C12.4995 15.2728 12.4072 15.356 12.2983 15.4106C12.1896 15.4652 12.0681 15.4889 11.9468 15.479C11.8253 15.469 11.7084 15.4258 11.6099 15.354C11.5361 15.3002 11.4741 15.2321 11.4282 15.1538L11.3882 15.0728L9.17627 9.76611L7.87842 12.8237C7.82743 12.9434 7.74181 13.045 7.6333 13.1167C7.55197 13.1704 7.46041 13.2061 7.36475 13.2202L7.26807 13.2271H3.54834C3.41639 13.227 3.28835 13.1879 3.18018 13.1157L3.07959 13.0327C2.95525 12.9084 2.88536 12.7398 2.88525 12.564C2.88525 12.388 2.95516 12.2187 3.07959 12.0942L3.18018 12.0112C3.28833 11.9391 3.41642 11.8999 3.54834 11.8999H6.83057L8.57275 7.79443L8.61768 7.70752C8.66839 7.62464 8.73703 7.55338 8.81885 7.49951C8.92797 7.42769 9.05637 7.38957 9.18701 7.39014ZM7.86279 4.01123C8.51857 4.01294 9.1677 4.14417 9.77197 4.39893L9.99561 4.50049C10.5114 4.74877 10.9807 5.085 11.3823 5.49463L11.9927 6.10986L12.5942 5.50244L12.771 5.33154C13.1941 4.94475 13.6819 4.63404 14.2124 4.41357C14.8188 4.16159 15.4698 4.03296 16.1265 4.03467C16.783 4.03644 17.4327 4.16828 18.0376 4.42334L18.2612 4.5249C18.7777 4.7735 19.2478 5.10986 19.6499 5.52002L19.8979 5.78955C20.4526 6.43773 20.8366 7.21712 21.0112 8.05615C21.2106 9.01461 21.1284 10.0104 20.7749 10.9233L20.7466 10.9976L20.6685 10.9868L20.4536 10.9731H19.2866L19.3628 10.8267C19.7312 10.1223 19.8665 9.31882 19.7485 8.53271C19.6305 7.74671 19.2654 7.01876 18.7065 6.45361V6.45264C18.3704 6.10867 17.9688 5.83535 17.5259 5.64795C17.0828 5.46055 16.6066 5.36346 16.1255 5.36182C15.6444 5.36018 15.1675 5.45379 14.7231 5.63818C14.3344 5.79954 13.9775 6.0277 13.6675 6.31104L13.5376 6.43506L12.4653 7.521C12.4037 7.58324 12.3303 7.63275 12.2495 7.6665C12.1685 7.70031 12.0814 7.71729 11.9937 7.71729C11.9059 7.71727 11.8187 7.70029 11.7378 7.6665C11.6973 7.64957 11.6588 7.62845 11.6226 7.604L11.522 7.521L10.4399 6.42725C10.1041 6.08382 9.70266 5.81058 9.26025 5.62354C8.81794 5.43658 8.34299 5.33904 7.86279 5.3374C7.38262 5.33577 6.90693 5.42984 6.46338 5.61377C6.07531 5.77474 5.71827 6.002 5.40869 6.28467L5.27881 6.40967C4.10185 7.5987 3.89708 9.40935 4.67334 10.8247L4.75439 10.9731H3.54834C3.48524 10.9732 3.42131 10.9774 3.35596 10.9839L3.28076 10.9917L3.25342 10.9224C2.88299 10.0082 2.78776 9.00509 2.97998 8.0376L3.06494 7.67822C3.29331 6.85038 3.72943 6.09217 4.33447 5.47705L4.33545 5.47607L4.51221 5.30615C4.93484 4.91989 5.42178 4.60931 5.95166 4.38916L6.18115 4.30127C6.72013 4.10813 7.28901 4.00974 7.86279 4.01123Z" fill="#435FF0" stroke="#435FF0" stroke-width="0.2"/>
</svg>
