<svg width="25" height="25" viewBox="0 0 25 25" fill="none" xmlns="http://www.w3.org/2000/svg">
<path fill-rule="evenodd" clip-rule="evenodd" d="M21.516 5.00036C21.848 4.66841 21.848 4.13022 21.516 3.79828C21.1841 3.46633 20.6459 3.46633 20.3139 3.79828L17.5965 6.51567C16.1281 5.51895 14.4628 4.96589 12.727 4.96589C9.47627 4.96589 6.54033 6.88274 4.5509 10.0099C4.07455 10.7565 3.86505 11.6998 3.86505 12.5915C3.86505 13.4831 4.07454 14.4264 4.55086 15.173C5.13175 16.0847 5.79739 16.8975 6.52446 17.5875L3.93792 20.1741C3.60598 20.506 3.60598 21.0442 3.93792 21.3761C4.26987 21.7081 4.80806 21.7081 5.14001 21.3761L11.2411 15.2751L11.2565 15.26L15.3997 11.1169C15.4028 11.1137 15.406 11.1105 15.4091 11.1073L21.516 5.00036ZM14.7308 9.38136L16.368 7.74426C15.2282 7.03612 13.9885 6.66589 12.727 6.66589C10.1972 6.66589 7.7456 8.15503 5.98493 10.9229L5.98422 10.924C5.7239 11.3319 5.56505 11.9358 5.56505 12.5915C5.56505 13.2471 5.7239 13.8511 5.98422 14.2589C6.50473 15.0759 7.09504 15.7906 7.72702 16.385L9.52092 14.5911C9.15666 14.0108 8.94574 13.3249 8.94574 12.5874C8.94574 10.4967 10.6364 8.80609 12.727 8.80609C13.4647 8.80609 14.1506 9.01705 14.7308 9.38136ZM10.6457 12.5874C10.6457 11.4356 11.5753 10.5061 12.727 10.5061C12.9895 10.5061 13.2395 10.5541 13.4699 10.6425L10.7821 13.3302C10.6938 13.0998 10.6457 12.8498 10.6457 12.5874Z" fill="#435FF0"/>
<path d="M18.7856 8.59262C19.1514 8.29839 19.6865 8.35641 19.9807 8.72221C20.2994 9.11842 20.6136 9.54554 20.904 10.0031C21.3798 10.7495 21.589 11.6922 21.589 12.5834C21.589 13.4751 21.3795 14.4184 20.9032 15.1649C18.9137 18.2921 15.9778 20.209 12.727 20.209C11.5992 20.209 10.4966 19.9704 9.46589 19.5364C9.03323 19.3543 8.83018 18.8558 9.01235 18.4232C9.19452 17.9905 9.69293 17.7875 10.1256 17.9697C10.9617 18.3217 11.8407 18.509 12.727 18.509C15.2568 18.509 17.7085 17.0198 19.4691 14.2519L19.4698 14.2508C19.7302 13.843 19.889 13.239 19.889 12.5834C19.889 11.9278 19.7302 11.3238 19.4698 10.9159L19.4686 10.914C19.2186 10.5201 18.9433 10.1448 18.6561 9.78769C18.3618 9.4219 18.4199 8.88685 18.7856 8.59262Z" fill="#435FF0"/>
<path d="M16.4369 13.3146C16.522 12.8529 16.2167 12.4097 15.7551 12.3245C15.2934 12.2394 14.8502 12.5446 14.765 13.0063C14.6161 13.8142 13.9457 14.4846 13.1378 14.6336C12.6761 14.7187 12.3709 15.1619 12.456 15.6236C12.5412 16.0853 12.9844 16.3905 13.4461 16.3054C14.9472 16.0286 16.1601 14.8157 16.4369 13.3146Z" fill="#435FF0"/>
</svg>
