<svg width="24" height="25" viewBox="0 0 24 25" fill="none" xmlns="http://www.w3.org/2000/svg">
<path fill-rule="evenodd" clip-rule="evenodd" d="M12.5238 3.76718C12.2156 3.52748 11.784 3.52748 11.4758 3.76718L4.14393 9.46977C3.93605 9.63146 3.81445 9.88007 3.81445 10.1434V19.1046C3.81445 19.7631 4.07603 20.3946 4.54164 20.8602C5.00724 21.3258 5.63874 21.5874 6.29721 21.5874H17.7024C18.3609 21.5874 18.9924 21.3258 19.458 20.8602C19.9236 20.3946 20.1851 19.7631 20.1851 19.1046V10.1434C20.1851 9.88007 20.0635 9.63146 19.8557 9.46977L12.5238 3.76718ZM5.52135 19.1046V10.5608L11.9998 5.52205L18.4782 10.5608V19.1046C18.4782 19.3104 18.3965 19.5078 18.251 19.6533C18.1055 19.7988 17.9082 19.8805 17.7024 19.8805H15.2973V12.5872C15.2973 12.1158 14.9152 11.7337 14.4439 11.7337H9.55593C9.08458 11.7337 8.70248 12.1158 8.70248 12.5872V19.8805H6.29721C6.09144 19.8805 5.8941 19.7988 5.74859 19.6533C5.60309 19.5078 5.52135 19.3104 5.52135 19.1046ZM10.4094 19.8805H13.5904V13.4406H10.4094V19.8805Z" fill="#435FF0"/>
</svg>
