<svg width="25" height="25" viewBox="0 0 25 25" fill="none" xmlns="http://www.w3.org/2000/svg">
<path fill-rule="evenodd" clip-rule="evenodd" d="M14.7149 3.41895C14.7546 3.41895 14.7935 3.4223 14.8314 3.42873L14.9562 3.42947C15.1445 3.42947 15.3245 3.50608 15.4556 3.64178L20.1319 8.51285C20.2546 8.64116 20.3239 8.81378 20.3239 8.99193V17.475C20.3386 19.791 18.5331 21.6732 16.2134 21.7562H8.69955C6.44703 21.7078 4.64051 19.8876 4.58481 17.658L4.58447 7.56393C4.63893 5.27378 6.5294 3.42947 8.80201 3.42947L14.5983 3.42873C14.6362 3.4223 14.6751 3.41895 14.7149 3.41895ZM14.022 4.81371L8.80478 4.81408C7.27524 4.81408 6.00509 6.05285 5.96909 7.58054V17.475C5.93586 19.0452 7.17278 20.3375 8.72817 20.3716H16.1894C17.73 20.3162 18.9494 19.0452 18.9393 17.4796L18.9392 9.86479L17.0853 9.86571C15.3952 9.8611 14.0226 8.48387 14.0226 6.79648L14.022 4.81371ZM12.0987 10.0272C12.2898 10.0272 12.4628 10.1047 12.5882 10.23L12.5891 10.2306L14.7547 12.4054C15.0242 12.6768 15.0233 13.1143 14.7528 13.3838C14.4814 13.6534 14.043 13.6534 13.7734 13.382L12.7906 12.3949L12.791 16.2958C12.791 16.6779 12.4808 16.9881 12.0987 16.9881C11.7165 16.9881 11.4064 16.6779 11.4064 16.2958L11.406 12.3949L10.4245 13.382C10.2897 13.5186 10.1116 13.586 9.93435 13.586C9.75804 13.586 9.58081 13.5186 9.44604 13.3838C9.17558 13.1143 9.17373 12.6768 9.4442 12.4054L11.6079 10.2306L11.6388 10.2021C11.6521 10.1903 11.6659 10.1789 11.6802 10.1681L11.6079 10.2306C11.6336 10.2048 11.6613 10.1815 11.6906 10.1608C11.8046 10.0767 11.9459 10.0272 12.0987 10.0272ZM15.4066 5.59002L15.4072 6.79648C15.4072 7.72325 16.1604 8.47833 17.0872 8.4811L18.1805 8.48018L15.4066 5.59002Z" fill="#435FF0"/>
</svg>
