<svg width="25" height="33" viewBox="0 0 25 33" fill="none" xmlns="http://www.w3.org/2000/svg">
<path fill-rule="evenodd" clip-rule="evenodd" d="M16.2194 10.7067C16.1152 10.8612 15.9978 11.0055 15.8644 11.1389C15.7309 11.2724 15.5866 11.3898 15.432 11.494C15.5866 11.5982 15.7308 11.7156 15.8643 11.849C15.9978 11.9825 16.1152 12.1268 16.2194 12.2814C16.3236 12.1269 16.4409 11.9826 16.5744 11.8491C16.7079 11.7157 16.8522 11.5983 17.0067 11.494C16.8522 11.3899 16.7079 11.2725 16.5745 11.139C16.441 11.0056 16.3236 10.8612 16.2194 10.7067ZM15.2767 7.99088C15.3824 7.45268 15.8538 7.21533 16.2194 7.21533C16.5849 7.21533 17.0563 7.45263 17.1621 7.99088L17.1622 7.99186C17.3941 9.17937 17.5897 9.62167 17.8408 9.87275C18.0918 10.1238 18.5341 10.3193 19.7215 10.5512L19.7225 10.5514C20.2607 10.6571 20.4981 11.1284 20.4981 11.494C20.4981 11.8596 20.2607 12.331 19.7225 12.4367L19.7216 12.4369C18.534 12.6688 18.0917 12.8643 17.8407 13.1154C17.5896 13.3665 17.3941 13.8087 17.1623 14.9962L17.1621 14.9972C17.0563 15.5354 16.5849 15.7727 16.2194 15.7727C15.855 15.7727 15.3826 15.5363 15.2767 14.9972L15.2765 14.9962C15.0446 13.8087 14.8491 13.3664 14.598 13.1153C14.3469 12.8642 13.9047 12.6687 12.7173 12.4369L12.7162 12.4367C12.178 12.331 11.9407 11.8596 11.9407 11.494C11.9407 11.1284 12.178 10.6571 12.7162 10.5514L12.7172 10.5512C13.9047 10.3193 14.347 10.1237 14.5981 9.87265C14.8492 9.62158 15.0447 9.17933 15.2765 7.9919L15.2767 7.99088Z" fill="#435FF0"/>
<path fill-rule="evenodd" clip-rule="evenodd" d="M17.5797 18.8027C17.6827 18.2813 18.1401 18.0494 18.4963 18.0494C18.8525 18.0494 19.31 18.2813 19.413 18.8027L19.4135 18.8051C19.5474 19.4926 19.6453 19.6358 19.6979 19.6884C19.7505 19.741 19.8937 19.8389 20.5812 19.9728L20.5836 19.9733C21.1051 20.0763 21.3369 20.5339 21.3369 20.89C21.3369 21.2461 21.1051 21.7036 20.5836 21.8066L20.5812 21.8071C19.8937 21.941 19.7505 22.0389 19.6979 22.0915C19.6453 22.1442 19.5474 22.2873 19.4135 22.9748L19.413 22.9772C19.31 23.4986 18.8525 23.7305 18.4963 23.7305C18.1454 23.7305 17.6813 23.5024 17.579 22.9741C17.5789 22.9734 17.5788 22.9728 17.5787 22.9721L18.4581 22.8036L17.579 22.9741C17.579 22.9738 17.5791 22.9743 17.579 22.9741C17.4452 22.2872 17.3473 22.1441 17.2947 22.0915C17.2421 22.0389 17.099 21.941 16.4115 21.8071L16.4091 21.8066C15.8876 21.7036 15.6558 21.2461 15.6558 20.89C15.6558 20.5339 15.8876 20.0763 16.4091 19.9733L16.4115 19.9728C17.099 19.8389 17.2421 19.741 17.2947 19.6884C17.3474 19.6358 17.4453 19.4926 17.5792 18.8051L17.5797 18.8027ZM19.3366 22.6309C19.3367 22.6314 19.3368 22.6319 19.3369 22.6324L19.3375 22.6351" fill="#435FF0"/>
<path fill-rule="evenodd" clip-rule="evenodd" d="M9.25132 12.3523C9.36905 11.7654 9.88121 11.5062 10.2838 11.5062C10.6864 11.5062 11.1985 11.7654 11.3162 12.3523C11.7198 14.3675 12.0979 15.3349 12.7038 15.9408C13.3096 16.5466 14.2768 16.9247 16.292 17.3282C16.8788 17.4459 17.1384 17.9582 17.1384 18.3607C17.1384 18.7633 16.8792 19.2755 16.2923 19.3932C14.2771 19.7967 13.3096 20.1749 12.7038 20.7807C12.0979 21.3866 11.7198 22.3537 11.3163 24.3689C11.1986 24.9558 10.6864 25.2153 10.2838 25.2153C9.88121 25.2153 9.36905 24.9561 9.25132 24.3692C8.84782 22.354 8.46967 21.3866 7.86381 20.7807C7.25796 20.1749 6.29081 19.7968 4.27562 19.3933C3.68873 19.2755 3.4292 18.7633 3.4292 18.3607C3.4292 17.9582 3.68842 17.446 4.27531 17.3283C6.2905 16.9248 7.25796 16.5466 7.86381 15.9408C8.46967 15.3349 8.84782 14.3675 9.25132 12.3523ZM10.2838 15.4068C10.5704 16.1206 10.932 16.7202 11.4281 17.2164C11.9242 17.7125 12.5238 18.0741 13.2376 18.3607C12.5238 18.6473 11.9243 19.0088 11.4282 19.5049C10.932 20.0011 10.5704 20.6007 10.2838 21.3146C9.99717 20.6007 9.63561 20.0011 9.13947 19.505C8.64336 19.0089 8.04382 18.6473 7.32997 18.3607C8.04378 18.0741 8.6433 17.7125 9.13941 17.2164C9.63557 16.7203 9.99716 16.1207 10.2838 15.4068Z" fill="#435FF0"/>
</svg>
