<svg width="25" height="25" viewBox="0 0 25 25" fill="none" xmlns="http://www.w3.org/2000/svg">
<path d="M8.71151 3.851C8.36004 3.49953 7.7902 3.49954 7.43873 3.85101L4.09075 7.19898C3.73928 7.55045 3.73928 8.1203 4.09075 8.47177C4.44222 8.82324 5.01207 8.82324 5.36354 8.47177L7.17512 6.66019V20.7483C7.17512 21.2117 7.57807 21.5874 8.07512 21.5874C8.57218 21.5874 8.97512 21.2117 8.97512 20.7483V6.66017L10.7868 8.47178C11.1382 8.82325 11.7081 8.82324 12.0596 8.47177C12.411 8.12029 12.411 7.55044 12.0595 7.19897L8.71151 3.851Z" fill="#435FF0"/>
<path d="M18.4612 4.4874C18.4612 3.99035 18.0582 3.5874 17.5612 3.5874C17.0641 3.5874 16.6612 3.99035 16.6612 4.4874V18.5148L14.8496 16.7032C14.4981 16.3518 13.9283 16.3518 13.5768 16.7033C13.2253 17.0547 13.2253 17.6246 13.5768 17.976L16.9248 21.324C17.2763 21.6755 17.8461 21.6755 18.1976 21.324L21.5456 17.976C21.8971 17.6246 21.8971 17.0547 21.5456 16.7033C21.1941 16.3518 20.6243 16.3518 20.2728 16.7033L18.4612 18.5149V4.4874Z" fill="#435FF0"/>
</svg>
