<svg width="24" height="25" viewBox="0 0 24 25" fill="none" xmlns="http://www.w3.org/2000/svg">
<path d="M20.7071 19.8745L17.3071 16.4845C18.4041 15.0869 18.9993 13.3611 18.9971 11.5845C18.9971 10.0022 18.5279 8.45551 17.6488 7.13991C16.7698 5.82432 15.5204 4.79894 14.0585 4.19344C12.5967 3.58794 10.9882 3.42951 9.43635 3.73819C7.8845 4.04688 6.45904 4.8088 5.34022 5.92762C4.2214 7.04644 3.45947 8.47191 3.15079 10.0238C2.84211 11.5756 3.00054 13.1841 3.60604 14.6459C4.21154 16.1078 5.23692 17.3572 6.55251 18.2362C7.8681 19.1153 9.41482 19.5845 10.9971 19.5845C12.7737 19.5867 14.4995 18.9915 15.8971 17.8945L19.2871 21.2945C19.38 21.3882 19.4906 21.4626 19.6125 21.5134C19.7344 21.5641 19.8651 21.5903 19.9971 21.5903C20.1291 21.5903 20.2598 21.5641 20.3817 21.5134C20.5035 21.4626 20.6141 21.3882 20.7071 21.2945C20.8008 21.2015 20.8752 21.0909 20.926 20.9691C20.9767 20.8472 21.0029 20.7165 21.0029 20.5845C21.0029 20.4525 20.9767 20.3218 20.926 20.1999C20.8752 20.078 20.8008 19.9674 20.7071 19.8745ZM4.99707 11.5845C4.99707 10.3978 5.34897 9.23775 6.00826 8.25106C6.66754 7.26436 7.60462 6.49532 8.70097 6.0412C9.79733 5.58707 11.0037 5.46825 12.1676 5.69976C13.3315 5.93128 14.4006 6.50272 15.2397 7.34184C16.0788 8.18095 16.6503 9.25005 16.8818 10.4139C17.1133 11.5778 16.9945 12.7842 16.5404 13.8806C16.0862 14.9769 15.3172 15.914 14.3305 16.5733C13.3438 17.2326 12.1838 17.5845 10.9971 17.5845C9.40578 17.5845 7.87965 16.9523 6.75443 15.8271C5.62922 14.7019 4.99707 13.1758 4.99707 11.5845Z" fill="#435FF0"/>
</svg>
