<svg width="24" height="25" viewBox="0 0 24 25" fill="none" xmlns="http://www.w3.org/2000/svg">
<path fill-rule="evenodd" clip-rule="evenodd" d="M9.98692 5.39402C9.98692 4.28217 10.8883 3.38086 12.0001 3.38086C13.1119 3.38086 14.0132 4.28217 14.0132 5.39402C14.0132 6.19377 13.5469 6.88459 12.8713 7.2094V7.84614H15.9484C17.5101 7.84614 18.728 9.14929 18.728 10.6965V13.7642C18.728 15.3115 17.5101 16.6146 15.9484 16.6146H12.8713V17.3087H17.7498C19.253 17.3087 20.4715 18.5273 20.4715 20.0305V20.9888V21.7941H19.6663H4.33407H3.52881V20.9888V20.0305C3.52881 18.5273 4.7474 17.3087 6.2506 17.3087H11.2608V16.6146H8.05122C6.48961 16.6146 5.27166 15.3115 5.27166 13.7642V10.6965C5.27166 9.14928 6.4896 7.84614 8.05122 7.84614H11.2608V7.26709C10.5147 6.97238 9.98692 6.24484 9.98692 5.39402ZM12.0001 4.99139C11.7777 4.99139 11.5974 5.17166 11.5974 5.39402C11.5974 5.61638 11.7777 5.79665 12.0001 5.79665C12.2224 5.79665 12.4027 5.61638 12.4027 5.39402C12.4027 5.17166 12.2224 4.99139 12.0001 4.99139ZM6.88219 10.6965C6.88219 9.98478 7.4321 9.45667 8.05122 9.45667H15.9484C16.5676 9.45667 17.1174 9.98477 17.1174 10.6965V13.7642C17.1174 14.476 16.5676 15.004 15.9484 15.004H8.05122C7.43209 15.004 6.88219 14.4759 6.88219 13.7642V10.6965ZM9.35516 12.2303C9.35516 12.04 9.50946 11.8857 9.69981 11.8857C9.89017 11.8857 10.0445 12.04 10.0445 12.2303C10.0445 12.4207 9.89017 12.575 9.69981 12.575C9.50946 12.575 9.35516 12.4207 9.35516 12.2303ZM9.69981 10.2752C8.62001 10.2752 7.74463 11.1505 7.74463 12.2303C7.74463 13.3102 8.62001 14.1855 9.69981 14.1855C10.7796 14.1855 11.655 13.3102 11.655 12.2303C11.655 11.1505 10.7796 10.2752 9.69981 10.2752ZM13.9548 12.2303C13.9548 12.04 14.1091 11.8857 14.2995 11.8857C14.4898 11.8857 14.6441 12.04 14.6441 12.2303C14.6441 12.4207 14.4898 12.575 14.2995 12.575C14.1091 12.575 13.9548 12.4207 13.9548 12.2303ZM14.2995 10.2752C13.2196 10.2752 12.3443 11.1505 12.3443 12.2303C12.3443 13.3102 13.2196 14.1855 14.2995 14.1855C15.3793 14.1855 16.2547 13.3102 16.2547 12.2303C16.2547 11.1505 15.3793 10.2752 14.2995 10.2752ZM5.13934 20.0305C5.13934 19.4168 5.63686 18.9193 6.2506 18.9193H17.7498C18.3635 18.9193 18.861 19.4168 18.861 20.0305V20.1835H5.13934V20.0305Z" fill="#435FF0"/>
</svg>
