<svg width="25" height="25" viewBox="0 0 25 25" fill="none" xmlns="http://www.w3.org/2000/svg">
<path d="M11.2983 3.62598C12.3201 3.11886 13.5393 3.15515 14.5405 3.73438H14.5396L19.6313 6.6748H19.6323L19.8257 6.79688C20.7708 7.43541 21.353 8.50757 21.353 9.6582V15.5215C21.3529 16.7487 20.691 17.8872 19.6323 18.5049H19.6313L14.5396 21.4434L14.5405 21.4443C14.0101 21.7537 13.4097 21.9043 12.8188 21.9043C12.3016 21.9043 11.7769 21.7889 11.2983 21.5527L11.0972 21.4443L6.00537 18.5049C4.94658 17.8873 4.28482 16.7488 4.28467 15.5215V9.6582C4.28468 8.43079 4.94647 7.2925 6.00537 6.6748L11.0972 3.73438L11.2983 3.62598ZM12.8188 4.76074C12.4849 4.76074 12.1416 4.85091 11.8394 5.02246L11.8384 5.02148L6.74854 7.96191C6.14492 8.31278 5.77003 8.95713 5.77002 9.6582V15.5215C5.77017 16.2141 6.14513 16.8671 6.74854 17.2178L11.8403 20.1572L11.9546 20.2188C12.5363 20.5065 13.2305 20.4862 13.7876 20.1582L13.7886 20.1572L18.8794 17.2178L18.9907 17.1484C19.5292 16.786 19.8587 16.1786 19.8589 15.5215V9.6582C19.8589 8.96537 19.483 8.31263 18.8794 7.96191V7.96094L13.7886 5.02148C13.4957 4.85066 13.1529 4.76079 12.8188 4.76074ZM12.8188 15.2861C13.0351 15.2862 13.255 15.3528 13.4272 15.4902L13.4976 15.5537L13.4995 15.5557L13.5601 15.626C13.6946 15.7974 13.7758 16.0136 13.7759 16.2324C13.7759 16.3273 13.759 16.4212 13.731 16.5098L13.6997 16.5967C13.6524 16.7103 13.5859 16.8144 13.5015 16.9082L13.4976 16.9121C13.3154 17.0942 13.0756 17.1893 12.8188 17.1895C12.5619 17.1895 12.3215 17.0943 12.1392 16.9121L12.1353 16.9082C12.0509 16.8145 11.9865 16.7122 11.9321 16.6035L11.9292 16.5967C11.8802 16.479 11.8608 16.3538 11.8608 16.2324C11.8609 15.9825 11.9667 15.7358 12.1372 15.5557L12.1392 15.5537L12.2095 15.4902C12.3818 15.3527 12.6024 15.2861 12.8188 15.2861ZM12.8188 8.2041C13.2252 8.20433 13.5608 8.53997 13.561 8.94629V13.4463C13.561 13.8528 13.2253 14.1892 12.8188 14.1895C12.4122 14.1895 12.0757 13.8529 12.0757 13.4463V8.94629C12.0759 8.53983 12.4123 8.2041 12.8188 8.2041Z" fill="#435FF0" stroke="#435FF0" stroke-width="0.2"/>
</svg>
