<svg width="19" height="19" viewBox="0 0 19 19" fill="none" xmlns="http://www.w3.org/2000/svg">
  <path fill-rule="evenodd" clip-rule="evenodd"
    d="M9.20605 2.78389C5.2296 2.78389 2.00605 6.00744 2.00605 9.98389C2.00605 11.5068 2.47788 12.9168 3.2833 14.0792C3.54985 14.4639 3.61411 14.9774 3.40297 15.4317L2.58861 17.1839H9.20605C13.1825 17.1839 16.4061 13.9603 16.4061 9.98389C16.4061 6.00744 13.1825 2.78389 9.20605 2.78389ZM0.206055 9.98389C0.206055 5.01332 4.23549 0.983887 9.20605 0.983887C14.1766 0.983887 18.2061 5.01332 18.2061 9.98389C18.2061 14.9545 14.1766 18.9839 9.20605 18.9839H1.88149C0.860682 18.9839 0.21493 17.8979 0.686705 17.0053L1.66563 14.8991C0.742645 13.4857 0.206055 11.7962 0.206055 9.98389ZM6.79639 7.94861C6.79639 6.61443 7.87211 5.53857 9.20636 5.53857C10.5406 5.53857 11.6163 6.61443 11.6163 7.94861C11.6163 9.00151 10.9241 9.55718 10.471 9.86679C10.2766 10.0011 10.1513 10.1068 10.0701 10.2157C10.0027 10.3061 9.95636 10.4107 9.95636 10.5786V10.7886C9.95636 11.2028 9.62057 11.5386 9.20636 11.5386C8.79215 11.5386 8.45636 11.2028 8.45636 10.7886V10.5786C8.45636 9.50174 9.16504 8.94573 9.62024 8.63142L9.62341 8.62924L9.62341 8.62925C9.80859 8.50279 9.92974 8.39955 10.0075 8.29462C10.0726 8.20675 10.1163 8.10634 10.1163 7.94861C10.1163 7.44279 9.71211 7.03857 9.20636 7.03857C8.70061 7.03857 8.29639 7.44279 8.29639 7.94861C8.29639 8.36282 7.9606 8.69861 7.54639 8.69861C7.13217 8.69861 6.79639 8.36282 6.79639 7.94861ZM9.20204 12.4287C8.78783 12.4287 8.45204 12.7645 8.45204 13.1787C8.45204 13.5929 8.78783 13.9287 9.20204 13.9287H9.21104C9.62526 13.9287 9.96104 13.5929 9.96104 13.1787C9.96104 12.7645 9.62526 12.4287 9.21104 12.4287H9.20204Z"
    fill="#5C6D80" />
</svg>