<svg width="25" height="25" viewBox="0 0 25 25" fill="none" xmlns="http://www.w3.org/2000/svg">
<path d="M20.1076 18.2411L15.2154 9.88743V5.03425H15.5903C15.9196 5.03425 16.1856 4.76819 16.1856 4.43888C16.1856 4.10957 15.9196 3.84352 15.5903 3.84352H9.83856C9.50925 3.84352 9.24319 4.10957 9.24319 4.43888C9.24319 4.76819 9.50925 5.03425 9.83856 5.03425H10.259V9.89195L5.51182 18.2699C5.10995 18.9788 5.11553 19.8216 5.52578 20.5249C5.9351 21.2282 6.66628 21.6477 7.48024 21.6477H18.1559C18.9763 21.6477 19.7103 21.2226 20.1187 20.5109C20.5271 19.7984 20.5234 18.9509 20.1085 18.243L20.1076 18.2411ZM14.0246 5.03425V10.0494C14.0246 10.1554 14.0526 10.2587 14.1065 10.3498L15.1605 12.1499H10.3473L11.3715 10.3424C11.4218 10.2531 11.4488 10.1517 11.4488 10.0484V5.03332H14.0236L14.0246 5.03425ZM19.0853 19.9174C18.8918 20.2551 18.5438 20.456 18.155 20.456H7.48034C7.09521 20.456 6.74823 20.257 6.55474 19.9239C6.36031 19.5909 6.35752 19.1918 6.54823 18.856L9.67389 13.3405H15.8593L19.0816 18.8429C19.2779 19.1787 19.2798 19.5797 19.0863 19.9173L19.0853 19.9174Z" fill="#435FF0"/>
<path fill-rule="evenodd" clip-rule="evenodd" d="M20.1965 18.1997L15.3132 9.86086V5.13215H15.5902C15.9735 5.13215 16.2834 4.82226 16.2834 4.43888C16.2834 4.0555 15.9735 3.74561 15.5902 3.74561H9.83846C9.45508 3.74561 9.14519 4.0555 9.14519 4.43888C9.14519 4.82226 9.45508 5.13215 9.83846 5.13215H10.161V9.86614L5.42655 18.2216C5.42655 18.2217 5.42656 18.2216 5.42655 18.2216C5.00749 18.9609 5.01331 19.8408 5.44111 20.5742C5.86802 21.3076 6.63144 21.7456 7.48014 21.7456H18.1558C19.0113 21.7456 19.7777 21.3017 20.2035 20.5597C20.6281 19.8188 20.6255 18.9367 20.1965 18.1997ZM5.52578 20.5249C5.9351 21.2282 6.66628 21.6477 7.48024 21.6477H18.1559C18.9763 21.6477 19.7103 21.2226 20.1187 20.5109C20.5271 19.7984 20.5234 18.9509 20.1085 18.243L20.1076 18.2411L15.2154 9.88743V5.03425H15.5903C15.9196 5.03425 16.1856 4.76819 16.1856 4.43888C16.1856 4.10957 15.9196 3.84352 15.5903 3.84352H9.83856C9.50925 3.84352 9.24319 4.10957 9.24319 4.43888C9.24319 4.76819 9.50925 5.03425 9.83856 5.03425H10.259V9.89195L5.51182 18.2699C5.10995 18.9788 5.11553 19.8216 5.52578 20.5249ZM11.3715 10.3424L10.3473 12.1499H15.1605L14.1065 10.3498C14.0526 10.2587 14.0246 10.1554 14.0246 10.0494V5.03425L14.0236 5.03332H11.4488V10.0484C11.4488 10.1517 11.4218 10.2531 11.3715 10.3424ZM11.5466 5.13122V10.0484C11.5466 10.1687 11.5152 10.2866 11.4568 10.3904L10.5152 12.052H14.9896L14.0222 10.3997C14.0221 10.3996 14.0222 10.3998 14.0222 10.3997C13.9592 10.2933 13.9266 10.1727 13.9266 10.0494V5.13122H11.5466ZM19.0863 19.9173C19.2798 19.5797 19.2779 19.1787 19.0816 18.8429L15.8593 13.3405H9.67389L6.54823 18.856C6.35752 19.1918 6.36031 19.5909 6.55474 19.9239C6.74823 20.257 7.09521 20.456 7.48034 20.456H18.155C18.5438 20.456 18.8918 20.2551 19.0853 19.9174L19.0863 19.9173ZM18.997 18.8924C19.1686 19.1859 19.1769 19.533 19.0211 19.8322L18.997 18.8924ZM18.997 18.8924L15.803 13.4384H9.73084L6.6333 18.9043C6.45986 19.2097 6.46233 19.5716 6.63919 19.8746C6.8151 20.1773 7.12988 20.3581 7.48024 20.3581H18.1549C18.5088 20.3581 18.8242 20.1759 19.0002 19.8688L19.0211 19.8322" fill="#435FF0"/>
</svg>
