<svg width="25" height="25" viewBox="0 0 25 25" fill="none" xmlns="http://www.w3.org/2000/svg">
<path d="M12.6362 3.67725C16.0659 3.67725 18.8461 6.4576 18.8462 9.88721C18.8462 10.7599 18.7251 11.4516 18.4722 12.0796C18.2506 12.6296 17.9262 13.1348 17.4878 13.6733L17.2935 13.9067H17.2925L17.0122 14.2446C16.6911 14.619 16.4729 14.9151 16.3364 15.2134C16.1989 15.514 16.146 15.812 16.146 16.187V17.9878C16.1458 19.926 14.5745 21.4976 12.6362 21.4976C10.6981 21.4975 9.12668 19.9259 9.12646 17.9878V16.187C9.12643 15.8119 9.07359 15.5141 8.93604 15.2134C8.79955 14.9151 8.58141 14.6191 8.26025 14.2446H8.26123L7.97998 13.9067C7.44126 13.2786 7.05348 12.7082 6.80029 12.0796C6.5474 11.4516 6.42627 10.7599 6.42627 9.88721C6.42637 6.45767 9.20669 3.67735 12.6362 3.67725ZM10.7466 17.9878C10.7468 19.0318 11.5922 19.8773 12.6362 19.8774C13.6803 19.8774 14.5266 19.0318 14.5269 17.9878V16.9976H10.7466V17.9878ZM12.6362 5.29736C10.1018 5.29747 8.04649 7.35276 8.04639 9.88721C8.04639 10.5316 8.12183 11.0267 8.30518 11.4849C8.44242 11.8277 8.63846 12.1467 8.90381 12.4897L9.19287 12.8433H9.19385C9.21859 12.8718 9.28471 12.9438 9.34912 13.0132L9.50244 13.1802C10.1375 13.9212 10.4998 14.5858 10.6587 15.3169L10.6743 15.3872H10.7466C11.3172 15.3872 11.9763 15.3864 12.6353 15.3853C13.2943 15.3841 13.9534 15.3823 14.5239 15.3823H14.5962L14.6118 15.312C14.7508 14.6732 15.0468 14.0876 15.5444 13.4546L15.77 13.1802C15.7929 13.1535 15.8571 13.0845 15.9233 13.0132L16.0796 12.8433C16.4963 12.3568 16.7852 11.9423 16.9683 11.4849C17.1516 11.0267 17.2261 10.5316 17.2261 9.88721C17.226 7.35269 15.1708 5.29736 12.6362 5.29736ZM12.6362 7.27783C13.0833 7.27783 13.4468 7.64031 13.4468 8.0874C13.4468 8.5345 13.0833 8.89697 12.6362 8.89697C12.0899 8.89708 11.6461 9.34086 11.646 9.88721C11.646 10.3343 11.2835 10.6978 10.8364 10.6978C10.3893 10.6978 10.0269 10.3343 10.0269 9.88721C10.027 8.44577 11.1948 7.27794 12.6362 7.27783Z" fill="#435FF0" stroke="#435FF0" stroke-width="0.18"/>
</svg>
