<svg width="25" height="25" viewBox="0 0 25 25" fill="none" xmlns="http://www.w3.org/2000/svg">
<path fill-rule="evenodd" clip-rule="evenodd" d="M12.2725 3.14111C10.2843 3.14111 8.67251 4.75289 8.67251 6.74111V9.44111C6.68428 9.44111 5.07251 11.0529 5.07251 13.0411V17.5411C5.07251 19.5293 6.68428 21.1411 8.67251 21.1411H15.8725C17.8607 21.1411 19.4725 19.5293 19.4725 17.5411V13.0411C19.4725 11.0529 17.8607 9.44111 15.8725 9.44111V6.74111C15.8725 4.75289 14.2607 3.14111 12.2725 3.14111ZM14.0725 9.44111V6.74111C14.0725 5.747 13.2666 4.94111 12.2725 4.94111C11.2784 4.94111 10.4725 5.747 10.4725 6.74111V9.44111H14.0725ZM6.87251 13.0411C6.87251 12.047 7.6784 11.2411 8.67251 11.2411H15.8725C16.8666 11.2411 17.6725 12.047 17.6725 13.0411V17.5411C17.6725 18.5352 16.8666 19.3411 15.8725 19.3411H8.67251C7.6784 19.3411 6.87251 18.5352 6.87251 17.5411V13.0411Z" fill="#435FF0"/>
</svg>
