<svg width="25" height="25" viewBox="0 0 25 25" fill="none" xmlns="http://www.w3.org/2000/svg">
<path fill-rule="evenodd" clip-rule="evenodd" d="M2.82227 8.47158C2.82227 6.48336 4.43404 4.87158 6.42227 4.87158H17.2223C19.2105 4.87158 20.8223 6.48336 20.8223 8.47158V10.2716C20.8223 10.7686 20.4193 11.1716 19.9223 11.1716C19.4252 11.1716 19.0223 10.7686 19.0223 10.2716V8.47158C19.0223 7.47747 18.2164 6.67158 17.2223 6.67158H6.42227C5.42815 6.67158 4.62227 7.47747 4.62227 8.47158V15.6716C4.62227 16.6657 5.42815 17.4716 6.42227 17.4716H11.8223C12.3193 17.4716 12.7223 17.8745 12.7223 18.3716C12.7223 18.8686 12.3193 19.2716 11.8223 19.2716H6.42227C4.43404 19.2716 2.82227 17.6598 2.82227 15.6716V8.47158ZM6.61948 8.80936C6.92999 8.42122 7.49636 8.35829 7.88449 8.6688L11.8223 11.819L15.76 8.6688C16.1482 8.35829 16.7145 8.42122 17.025 8.80936C17.3356 9.19749 17.2726 9.76386 16.8845 10.0744L12.3845 13.6744L11.8223 14.1241L11.26 13.6744L6.76004 10.0744C6.3719 9.76386 6.30898 9.19749 6.61948 8.80936ZM21.4788 15.3871C21.8188 15.0245 21.8004 14.455 21.4378 14.115C21.0752 13.775 20.5056 13.7934 20.1657 14.156L17.3626 17.146L15.9879 16.0352C15.6013 15.7228 15.0347 15.7829 14.7223 16.1695C14.4098 16.5562 14.47 17.1228 14.8566 17.4352L16.8816 19.0716C17.2483 19.3679 17.7814 19.331 18.1038 18.9871L21.4788 15.3871Z" fill="#435FF0"/>
</svg>
