<svg width="25" height="25" viewBox="0 0 25 25" fill="none" xmlns="http://www.w3.org/2000/svg">
<path fill-rule="evenodd" clip-rule="evenodd" d="M15.8183 3.5874C15.266 3.5874 14.8183 4.03512 14.8183 4.5874C14.8183 5.13969 15.266 5.5874 15.8183 5.5874H18.4041L14.1112 9.88031C13.7207 10.2708 13.7207 10.904 14.1113 11.2945C14.5018 11.685 15.1349 11.685 15.5255 11.2945L19.8183 7.00163V9.5874C19.8183 10.1397 20.266 10.5874 20.8183 10.5874C21.3706 10.5874 21.8183 10.1397 21.8183 9.5874V4.5874C21.8183 4.03512 21.3706 3.5874 20.8183 3.5874H15.8183ZM11.5255 15.2945C11.916 14.904 11.916 14.2708 11.5255 13.8803C11.135 13.4898 10.5018 13.4898 10.1113 13.8803L5.81836 18.1732V15.4445C5.81836 14.8923 5.37064 14.4445 4.81836 14.4445C4.26607 14.4445 3.81836 14.8923 3.81836 15.4445V20.5874C3.81836 21.1397 4.26607 21.5874 4.81836 21.5874H9.96126C10.5135 21.5874 10.9613 21.1397 10.9613 20.5874C10.9613 20.0352 10.5135 19.5874 9.96126 19.5874H7.23257L11.5255 15.2945Z" fill="#435FF0"/>
</svg>
