<svg width="24" height="25" viewBox="0 0 24 25" fill="none" xmlns="http://www.w3.org/2000/svg">
<path fill-rule="evenodd" clip-rule="evenodd" d="M7.89204 4.89529C7.89204 4.15624 8.49116 3.55713 9.2302 3.55713H14.9018C15.6409 3.55713 16.24 4.15624 16.24 4.89529V8.64991H20.0211C20.7601 8.64991 21.3592 9.24902 21.3592 9.98806V15.7392C21.3592 16.4782 20.7601 17.0773 20.0211 17.0773H16.24V20.9115C16.24 21.6506 15.6409 22.2497 14.9018 22.2497H9.2302C8.49115 22.2497 7.89204 21.6506 7.89204 20.9115V17.0773H3.9783C3.23925 17.0773 2.64014 16.4782 2.64014 15.7392V9.98806C2.64014 9.24902 3.23925 8.64991 3.97829 8.64991H7.89204V4.89529ZM9.50257 5.16766V8.92228C9.50257 9.66132 8.90345 10.2604 8.16441 10.2604H4.25066V15.4668H8.16441C8.90345 15.4668 9.50257 16.0659 9.50257 16.805V20.6392H14.6295V16.805C14.6295 16.0659 15.2286 15.4668 15.9676 15.4668H19.7487V10.2604H15.9676C15.2286 10.2604 14.6295 9.66132 14.6295 8.92228V5.16766H9.50257Z" fill="#435FF0"/>
</svg>
