<svg width="25" height="25" viewBox="0 0 25 25" fill="none" xmlns="http://www.w3.org/2000/svg">
<path fill-rule="evenodd" clip-rule="evenodd" d="M21.5255 5.29451C21.916 4.90398 21.916 4.27082 21.5255 3.88029C21.135 3.48977 20.5018 3.48977 20.1113 3.8803L15.8184 8.17323V5.44454C15.8184 4.89226 15.3706 4.44454 14.8184 4.44454C14.2661 4.44454 13.8184 4.89226 13.8184 5.44454V10.5874C13.8184 11.1397 14.2661 11.5874 14.8184 11.5874H19.9613C20.5135 11.5874 20.9613 11.1397 20.9613 10.5874C20.9613 10.0352 20.5135 9.58745 19.9613 9.58745H17.2326L21.5255 5.29451ZM5.81832 13.5874C5.26604 13.5874 4.81832 14.0351 4.81832 14.5874C4.81832 15.1397 5.26604 15.5874 5.81832 15.5874H8.40412L4.11125 19.8803C3.72073 20.2708 3.72073 20.904 4.11126 21.2945C4.50178 21.685 5.13495 21.685 5.52547 21.2945L9.81832 17.0016V19.5874C9.81832 20.1397 10.266 20.5874 10.8183 20.5874C11.3706 20.5874 11.8183 20.1397 11.8183 19.5874V14.5874C11.8183 14.0351 11.3706 13.5874 10.8183 13.5874H5.81832Z" fill="#435FF0"/>
</svg>
