<svg width="25" height="25" viewBox="0 0 25 25" fill="none" xmlns="http://www.w3.org/2000/svg">
<mask id="path-1-outside-1_316_3042" maskUnits="userSpaceOnUse" x="2.53564" y="4.40918" width="20" height="16" fill="black">
<rect fill="white" x="2.53564" y="4.40918" width="20" height="16"/>
<path d="M19.5091 11.065C19.5091 11.0325 19.5145 11 19.5145 10.9675C19.5145 8.97388 17.892 7.35135 15.8956 7.35135C15.4785 7.35135 15.0667 7.42448 14.674 7.56534C14.1079 6.26785 12.8239 5.40918 11.3639 5.40918C9.7224 5.40918 8.30032 6.53601 7.87775 8.07187C7.64209 8.02311 7.40102 7.99873 7.15723 7.99873C5.15818 7.99873 3.53564 9.62127 3.53564 11.6149C3.53564 13.0776 4.39702 14.3616 5.6918 14.925C5.55095 15.3177 5.47781 15.7295 5.47781 16.1493C5.47781 18.143 7.10035 19.7655 9.09669 19.7655C10.1991 19.7655 11.2176 19.2725 11.9002 18.4301C12.2334 18.5276 12.5774 18.5818 12.9268 18.5818C14.116 18.5818 15.2157 17.9886 15.8848 17.0432C16.5593 17.7366 17.4911 18.1457 18.4825 18.1457C20.4788 18.1457 22.1013 16.5231 22.1013 14.5295C22.1013 12.9178 21.0151 11.512 19.5091 11.065ZM18.431 10.9675C18.431 11.1057 18.4202 11.2492 18.3958 11.3955C18.3822 11.4686 18.366 11.5391 18.3497 11.6122C18.3443 11.6339 18.3362 11.6555 18.3308 11.6772C18.3172 11.726 18.3037 11.772 18.2874 11.8181C18.2793 11.8451 18.2685 11.8695 18.2576 11.8939C18.2414 11.9345 18.2251 11.9752 18.2062 12.0158C18.1953 12.0429 18.1818 12.0673 18.1683 12.0943C18.1493 12.1323 18.1303 12.1702 18.1087 12.2054C18.0951 12.2298 18.0789 12.2569 18.0653 12.2812C18.0437 12.3165 18.022 12.3517 17.9976 12.3869C17.9813 12.4113 17.9651 12.4356 17.9461 12.46C17.9218 12.4925 17.8974 12.525 17.8703 12.5575C17.8513 12.5792 17.8351 12.6036 17.8161 12.6253C17.789 12.6578 17.7592 12.6876 17.7321 12.7174C17.7132 12.739 17.6942 12.758 17.6726 12.7769C17.6428 12.8067 17.6103 12.8365 17.5777 12.8636C17.5588 12.8826 17.5371 12.8988 17.5182 12.9178C17.4829 12.9476 17.445 12.9774 17.4071 13.0045C17.3881 13.018 17.3719 13.0316 17.3529 13.0451C17.296 13.0857 17.2364 13.1237 17.1769 13.1589C17.1714 13.1616 17.1633 13.1643 17.1579 13.1697C17.1037 13.1995 17.0495 13.2293 16.9927 13.2564C16.971 13.2672 16.9466 13.2754 16.9249 13.2862C16.8843 13.3052 16.8437 13.3214 16.8003 13.3377C16.7733 13.3485 16.7462 13.3566 16.7164 13.3675C16.6784 13.381 16.6378 13.3945 16.5999 13.4054C16.5701 13.4135 16.5403 13.4216 16.5078 13.4298C16.4699 13.4379 16.432 13.4487 16.3913 13.4568C16.3588 13.4623 16.3263 13.4677 16.2938 13.4731C16.2721 13.4758 16.2505 13.4785 16.2288 13.4812C16.1827 13.3783 16.1313 13.2781 16.0771 13.1833C16.0121 13.0695 15.9417 12.9611 15.8658 12.8555C15.855 12.842 15.8469 12.8257 15.836 12.8122C15.7629 12.7146 15.6843 12.6198 15.6031 12.5305C15.5868 12.5142 15.5733 12.4979 15.557 12.4817C15.4758 12.395 15.3891 12.311 15.297 12.2352C15.2807 12.2217 15.2645 12.2081 15.2455 12.1919C15.1507 12.1133 15.0559 12.0402 14.9557 11.9725C14.9449 11.9643 14.9313 11.9589 14.9205 11.9508C14.823 11.8885 14.7254 11.8289 14.6225 11.7747C14.6063 11.7666 14.59 11.7558 14.5738 11.7476C14.4681 11.6935 14.3625 11.6474 14.2514 11.6041C14.227 11.5932 14.2 11.5824 14.1756 11.5743C14.0672 11.5336 13.9589 11.5011 13.8478 11.4713C13.8207 11.4632 13.7909 11.4578 13.7638 11.4497C13.6501 11.4226 13.5363 11.4009 13.4198 11.3847C13.4144 11.3847 13.409 11.3847 13.4036 11.3819C13.3982 11.3576 13.3927 11.3332 13.39 11.3061C13.3873 11.2817 13.3846 11.2573 13.3819 11.2357C13.3738 11.149 13.3657 11.0596 13.3657 10.9702C13.3657 10.8565 13.3738 10.7454 13.3873 10.637C13.4767 9.97611 13.8234 9.37477 14.3489 8.96575C14.4058 8.92241 14.4654 8.88449 14.525 8.84657C14.5602 8.8249 14.59 8.79781 14.6252 8.77885C15.0126 8.55403 15.4514 8.43755 15.8956 8.43755C17.2933 8.43755 18.431 9.57251 18.431 10.9702V10.9675ZM11.3612 6.49268C12.4149 6.49268 13.3359 7.12923 13.7124 8.0827C13.7097 8.08541 13.7043 8.08812 13.7015 8.09083C13.604 8.16668 13.5119 8.24523 13.4225 8.3292C13.4063 8.34545 13.39 8.359 13.3738 8.37525C13.2871 8.45922 13.2058 8.5459 13.13 8.638C13.1165 8.65425 13.1029 8.67321 13.0894 8.68946C13.0135 8.78427 12.9404 8.88178 12.8727 8.98201C12.8645 8.99284 12.8591 9.00638 12.851 9.01722C12.786 9.12015 12.7237 9.22579 12.6695 9.33414C12.6641 9.34227 12.6614 9.35039 12.656 9.35852C12.6018 9.46958 12.553 9.58335 12.5097 9.69982C12.5016 9.71878 12.4962 9.73774 12.488 9.75671C12.4474 9.87047 12.4122 9.98424 12.3851 10.1007C12.3797 10.1224 12.3743 10.1441 12.3688 10.1657C12.3418 10.2849 12.3201 10.4041 12.3038 10.526C12.3038 10.5422 12.3011 10.5612 12.2984 10.5775C12.2849 10.7048 12.2767 10.8348 12.2767 10.9648C12.2767 11.1029 12.2849 11.2411 12.3011 11.3792C12.2605 11.3955 12.2199 11.4117 12.1765 11.4253C12.163 11.428 12.1494 11.4334 12.1332 11.4361C12.0492 11.4632 11.9707 11.4849 11.8948 11.5011C11.8867 11.5011 11.8786 11.5011 11.8704 11.5066C11.4993 11.5824 11.1228 11.5743 10.768 11.4876C10.768 11.4578 10.7626 11.428 10.7626 11.4009C10.7626 11.3657 10.7599 11.3305 10.7544 11.2953C10.749 11.2411 10.7436 11.1896 10.7355 11.1355C10.7301 11.1029 10.7273 11.0704 10.7219 11.0406C10.7111 10.9783 10.7003 10.9188 10.6867 10.8565C10.6813 10.8348 10.6786 10.8131 10.6732 10.7914C10.6542 10.7102 10.6325 10.6289 10.6082 10.5477C10.6027 10.5287 10.5946 10.5097 10.5892 10.4908C10.5702 10.4312 10.5486 10.3689 10.5269 10.3093C10.5161 10.2822 10.5052 10.2551 10.4944 10.228C10.4727 10.1766 10.4511 10.1278 10.4294 10.079C10.4158 10.0492 10.4023 10.0222 10.3888 9.99507C10.3644 9.94903 10.34 9.90027 10.3156 9.85422C10.2994 9.82713 10.2858 9.80005 10.2696 9.77296C10.2425 9.72691 10.2127 9.68086 10.1829 9.63481C10.1666 9.61043 10.1504 9.58605 10.1341 9.56168C10.0989 9.51292 10.0637 9.46416 10.0285 9.41811C10.0149 9.39915 10.0014 9.38019 9.98515 9.36123C9.93639 9.29893 9.88222 9.23663 9.82805 9.17704C9.82805 9.17704 9.82534 9.17162 9.82263 9.17162C9.76304 9.10661 9.70344 9.04702 9.63843 8.98742C9.63031 8.9793 9.62218 8.97388 9.61406 8.96575C9.55988 8.917 9.50571 8.86824 9.44882 8.81948C9.42986 8.80594 9.4109 8.78969 9.39465 8.77614C9.34589 8.73822 9.29713 8.7003 9.24567 8.66508C9.224 8.64883 9.19962 8.63258 9.17795 8.61904C9.12919 8.58653 9.08043 8.55403 9.03168 8.52423C9.0073 8.50798 8.98021 8.49443 8.95583 8.47818C8.93687 8.46735 8.91791 8.4538 8.89624 8.44297C9.1617 7.32426 10.1829 6.48997 11.3612 6.48997V6.49268ZM4.61914 11.6149C4.61914 10.2172 5.75681 9.08223 7.15452 9.08223C7.47686 9.08223 7.79378 9.14182 8.09445 9.26371C9.06147 9.65106 9.68719 10.5747 9.68719 11.6149C9.68719 11.688 9.68719 11.7612 9.67906 11.837C9.64656 12.2135 9.5355 12.5657 9.34589 12.888C8.89624 13.6681 8.05653 14.1503 7.15452 14.1503C6.95407 14.1503 6.75363 14.1259 6.5586 14.0771C5.41551 13.8063 4.61914 12.7932 4.61914 11.6149ZM9.09669 18.682C7.69898 18.682 6.56131 17.547 6.56131 16.1493C6.56131 15.827 6.62361 15.5074 6.74279 15.2094C6.87823 15.2256 7.01637 15.2338 7.15452 15.2338C7.24662 15.2338 7.33601 15.2284 7.4281 15.2229C7.45519 15.2229 7.48499 15.2175 7.51207 15.2148C7.57437 15.2094 7.63938 15.2013 7.70169 15.1904C7.73148 15.185 7.76399 15.1796 7.79378 15.1742C7.85608 15.1633 7.91838 15.1498 7.97798 15.1363C8.00506 15.1308 8.03215 15.1227 8.05924 15.1173C8.1405 15.0956 8.22447 15.0713 8.30303 15.0442C8.30844 15.0442 8.31115 15.0442 8.31657 15.0415C8.40054 15.0117 8.48451 14.9792 8.56848 14.9439C8.59015 14.9331 8.61453 14.9223 8.6362 14.9141C8.69579 14.8871 8.75538 14.86 8.81227 14.8302C8.83936 14.8166 8.86373 14.8031 8.88811 14.7895C8.945 14.7597 8.99917 14.7272 9.05335 14.692C9.07502 14.6785 9.09939 14.6649 9.12106 14.6487C9.18878 14.6053 9.2565 14.5566 9.32151 14.5078C9.32693 14.5051 9.33235 14.4997 9.33776 14.497C9.33235 14.5403 9.32964 14.5837 9.32422 14.627C9.32151 14.6595 9.31609 14.6893 9.31609 14.7218C9.31068 14.8031 9.30797 14.8843 9.30797 14.9656C9.30797 15.101 9.3188 15.2365 9.33235 15.3692C9.33505 15.3936 9.33776 15.418 9.34047 15.4423C9.35672 15.5697 9.3811 15.6943 9.4109 15.8189C9.41632 15.8432 9.42444 15.8676 9.42986 15.892C9.46237 16.0193 9.50029 16.1412 9.54634 16.2631C9.54634 16.2685 9.55175 16.2739 9.55175 16.2793C9.5978 16.3958 9.64927 16.5096 9.70886 16.6206C9.7197 16.6423 9.73053 16.664 9.74137 16.6857C9.80096 16.794 9.86326 16.8996 9.93369 17.0026C9.94994 17.0243 9.96619 17.0486 9.98244 17.0703C10.0556 17.1732 10.1314 17.2735 10.2154 17.3656C10.2235 17.3764 10.2344 17.3845 10.2425 17.3926C10.321 17.4793 10.405 17.5633 10.4944 17.6418C10.5134 17.6608 10.535 17.6798 10.554 17.696C10.6461 17.7773 10.7436 17.8504 10.8438 17.9236C10.8547 17.9317 10.8655 17.9398 10.8763 17.9479C10.4077 18.4138 9.77116 18.682 9.09127 18.682H9.09669ZM12.9268 17.4983C12.5774 17.4983 12.2388 17.4279 11.9165 17.2897C10.9928 16.8861 10.3942 15.9733 10.3942 14.9656C10.3942 14.4862 10.5296 14.0203 10.7815 13.6139C11.0957 13.121 11.5671 12.7499 12.1115 12.5657C12.2172 12.544 12.3228 12.5169 12.4339 12.4817C12.5937 12.4492 12.7589 12.4329 12.9241 12.4329H12.9512C13.8505 12.4411 14.6848 12.9341 15.1318 13.7196C15.1751 13.7927 15.2157 13.8713 15.2509 13.9525C15.2862 14.0338 15.316 14.1178 15.343 14.2045C15.343 14.2045 15.343 14.2045 15.343 14.2072C15.4189 14.4482 15.4595 14.7029 15.4595 14.9629C15.4595 15.2663 15.4053 15.567 15.2997 15.8541C14.9286 16.8346 13.9751 17.4956 12.9241 17.4956L12.9268 17.4983ZM18.4825 17.0622C17.6509 17.0622 16.8735 16.6504 16.4022 15.9733C16.4022 15.9651 16.4076 15.9543 16.4103 15.9462C16.4184 15.9191 16.4238 15.892 16.432 15.8622C16.4482 15.7945 16.4645 15.7241 16.478 15.6536C16.4834 15.6211 16.4888 15.5886 16.4943 15.5534C16.5051 15.4857 16.5159 15.4153 16.5213 15.3475C16.524 15.3177 16.5295 15.288 16.5322 15.2582C16.5403 15.1606 16.5457 15.0631 16.5457 14.9629C16.5457 14.8329 16.5376 14.7029 16.524 14.5756C16.524 14.5593 16.524 14.5458 16.524 14.5295C16.5268 14.5295 16.5322 14.5295 16.5349 14.5295C16.5511 14.5268 16.5701 14.5214 16.5863 14.5187C16.6649 14.5024 16.7407 14.4862 16.8193 14.4672C16.8491 14.4591 16.8789 14.4509 16.9087 14.4428C16.9764 14.4239 17.0414 14.4022 17.1064 14.3805C17.1335 14.3724 17.1606 14.3616 17.185 14.3534C17.3638 14.2857 17.5371 14.2045 17.6996 14.1096C17.7213 14.0961 17.743 14.0853 17.7619 14.0717C17.8242 14.0338 17.8865 13.9932 17.9461 13.9525C17.9678 13.939 17.9868 13.9255 18.0084 13.9092C18.0789 13.8577 18.1493 13.8063 18.2143 13.7494C18.2197 13.744 18.2251 13.7413 18.2306 13.7358C18.3064 13.6735 18.3768 13.6058 18.4473 13.5354C18.4581 13.5246 18.4662 13.5164 18.4743 13.5056C18.5339 13.446 18.5908 13.3837 18.645 13.3187C18.6585 13.3024 18.6721 13.2889 18.6829 13.2726C18.7371 13.2049 18.7913 13.1372 18.8427 13.0641C18.8481 13.0559 18.8536 13.0478 18.859 13.0397C18.9727 12.8772 19.073 12.7038 19.1597 12.5223C19.1678 12.5061 19.1759 12.4898 19.184 12.4709C19.2192 12.395 19.2517 12.3165 19.2815 12.2352C19.287 12.2189 19.2951 12.2027 19.3005 12.1864C19.3059 12.1702 19.314 12.1539 19.3195 12.1377C20.3136 12.4871 21.0178 13.4406 21.0178 14.5295C21.0178 15.9272 19.8802 17.0622 18.4825 17.0622Z"/>
</mask>
<path d="M19.5091 11.065C19.5091 11.0325 19.5145 11 19.5145 10.9675C19.5145 8.97388 17.892 7.35135 15.8956 7.35135C15.4785 7.35135 15.0667 7.42448 14.674 7.56534C14.1079 6.26785 12.8239 5.40918 11.3639 5.40918C9.7224 5.40918 8.30032 6.53601 7.87775 8.07187C7.64209 8.02311 7.40102 7.99873 7.15723 7.99873C5.15818 7.99873 3.53564 9.62127 3.53564 11.6149C3.53564 13.0776 4.39702 14.3616 5.6918 14.925C5.55095 15.3177 5.47781 15.7295 5.47781 16.1493C5.47781 18.143 7.10035 19.7655 9.09669 19.7655C10.1991 19.7655 11.2176 19.2725 11.9002 18.4301C12.2334 18.5276 12.5774 18.5818 12.9268 18.5818C14.116 18.5818 15.2157 17.9886 15.8848 17.0432C16.5593 17.7366 17.4911 18.1457 18.4825 18.1457C20.4788 18.1457 22.1013 16.5231 22.1013 14.5295C22.1013 12.9178 21.0151 11.512 19.5091 11.065ZM18.431 10.9675C18.431 11.1057 18.4202 11.2492 18.3958 11.3955C18.3822 11.4686 18.366 11.5391 18.3497 11.6122C18.3443 11.6339 18.3362 11.6555 18.3308 11.6772C18.3172 11.726 18.3037 11.772 18.2874 11.8181C18.2793 11.8451 18.2685 11.8695 18.2576 11.8939C18.2414 11.9345 18.2251 11.9752 18.2062 12.0158C18.1953 12.0429 18.1818 12.0673 18.1683 12.0943C18.1493 12.1323 18.1303 12.1702 18.1087 12.2054C18.0951 12.2298 18.0789 12.2569 18.0653 12.2812C18.0437 12.3165 18.022 12.3517 17.9976 12.3869C17.9813 12.4113 17.9651 12.4356 17.9461 12.46C17.9218 12.4925 17.8974 12.525 17.8703 12.5575C17.8513 12.5792 17.8351 12.6036 17.8161 12.6253C17.789 12.6578 17.7592 12.6876 17.7321 12.7174C17.7132 12.739 17.6942 12.758 17.6726 12.7769C17.6428 12.8067 17.6103 12.8365 17.5777 12.8636C17.5588 12.8826 17.5371 12.8988 17.5182 12.9178C17.4829 12.9476 17.445 12.9774 17.4071 13.0045C17.3881 13.018 17.3719 13.0316 17.3529 13.0451C17.296 13.0857 17.2364 13.1237 17.1769 13.1589C17.1714 13.1616 17.1633 13.1643 17.1579 13.1697C17.1037 13.1995 17.0495 13.2293 16.9927 13.2564C16.971 13.2672 16.9466 13.2754 16.9249 13.2862C16.8843 13.3052 16.8437 13.3214 16.8003 13.3377C16.7733 13.3485 16.7462 13.3566 16.7164 13.3675C16.6784 13.381 16.6378 13.3945 16.5999 13.4054C16.5701 13.4135 16.5403 13.4216 16.5078 13.4298C16.4699 13.4379 16.432 13.4487 16.3913 13.4568C16.3588 13.4623 16.3263 13.4677 16.2938 13.4731C16.2721 13.4758 16.2505 13.4785 16.2288 13.4812C16.1827 13.3783 16.1313 13.2781 16.0771 13.1833C16.0121 13.0695 15.9417 12.9611 15.8658 12.8555C15.855 12.842 15.8469 12.8257 15.836 12.8122C15.7629 12.7146 15.6843 12.6198 15.6031 12.5305C15.5868 12.5142 15.5733 12.4979 15.557 12.4817C15.4758 12.395 15.3891 12.311 15.297 12.2352C15.2807 12.2217 15.2645 12.2081 15.2455 12.1919C15.1507 12.1133 15.0559 12.0402 14.9557 11.9725C14.9449 11.9643 14.9313 11.9589 14.9205 11.9508C14.823 11.8885 14.7254 11.8289 14.6225 11.7747C14.6063 11.7666 14.59 11.7558 14.5738 11.7476C14.4681 11.6935 14.3625 11.6474 14.2514 11.6041C14.227 11.5932 14.2 11.5824 14.1756 11.5743C14.0672 11.5336 13.9589 11.5011 13.8478 11.4713C13.8207 11.4632 13.7909 11.4578 13.7638 11.4497C13.6501 11.4226 13.5363 11.4009 13.4198 11.3847C13.4144 11.3847 13.409 11.3847 13.4036 11.3819C13.3982 11.3576 13.3927 11.3332 13.39 11.3061C13.3873 11.2817 13.3846 11.2573 13.3819 11.2357C13.3738 11.149 13.3657 11.0596 13.3657 10.9702C13.3657 10.8565 13.3738 10.7454 13.3873 10.637C13.4767 9.97611 13.8234 9.37477 14.3489 8.96575C14.4058 8.92241 14.4654 8.88449 14.525 8.84657C14.5602 8.8249 14.59 8.79781 14.6252 8.77885C15.0126 8.55403 15.4514 8.43755 15.8956 8.43755C17.2933 8.43755 18.431 9.57251 18.431 10.9702V10.9675ZM11.3612 6.49268C12.4149 6.49268 13.3359 7.12923 13.7124 8.0827C13.7097 8.08541 13.7043 8.08812 13.7015 8.09083C13.604 8.16668 13.5119 8.24523 13.4225 8.3292C13.4063 8.34545 13.39 8.359 13.3738 8.37525C13.2871 8.45922 13.2058 8.5459 13.13 8.638C13.1165 8.65425 13.1029 8.67321 13.0894 8.68946C13.0135 8.78427 12.9404 8.88178 12.8727 8.98201C12.8645 8.99284 12.8591 9.00638 12.851 9.01722C12.786 9.12015 12.7237 9.22579 12.6695 9.33414C12.6641 9.34227 12.6614 9.35039 12.656 9.35852C12.6018 9.46958 12.553 9.58335 12.5097 9.69982C12.5016 9.71878 12.4962 9.73774 12.488 9.75671C12.4474 9.87047 12.4122 9.98424 12.3851 10.1007C12.3797 10.1224 12.3743 10.1441 12.3688 10.1657C12.3418 10.2849 12.3201 10.4041 12.3038 10.526C12.3038 10.5422 12.3011 10.5612 12.2984 10.5775C12.2849 10.7048 12.2767 10.8348 12.2767 10.9648C12.2767 11.1029 12.2849 11.2411 12.3011 11.3792C12.2605 11.3955 12.2199 11.4117 12.1765 11.4253C12.163 11.428 12.1494 11.4334 12.1332 11.4361C12.0492 11.4632 11.9707 11.4849 11.8948 11.5011C11.8867 11.5011 11.8786 11.5011 11.8704 11.5066C11.4993 11.5824 11.1228 11.5743 10.768 11.4876C10.768 11.4578 10.7626 11.428 10.7626 11.4009C10.7626 11.3657 10.7599 11.3305 10.7544 11.2953C10.749 11.2411 10.7436 11.1896 10.7355 11.1355C10.7301 11.1029 10.7273 11.0704 10.7219 11.0406C10.7111 10.9783 10.7003 10.9188 10.6867 10.8565C10.6813 10.8348 10.6786 10.8131 10.6732 10.7914C10.6542 10.7102 10.6325 10.6289 10.6082 10.5477C10.6027 10.5287 10.5946 10.5097 10.5892 10.4908C10.5702 10.4312 10.5486 10.3689 10.5269 10.3093C10.5161 10.2822 10.5052 10.2551 10.4944 10.228C10.4727 10.1766 10.4511 10.1278 10.4294 10.079C10.4158 10.0492 10.4023 10.0222 10.3888 9.99507C10.3644 9.94903 10.34 9.90027 10.3156 9.85422C10.2994 9.82713 10.2858 9.80005 10.2696 9.77296C10.2425 9.72691 10.2127 9.68086 10.1829 9.63481C10.1666 9.61043 10.1504 9.58605 10.1341 9.56168C10.0989 9.51292 10.0637 9.46416 10.0285 9.41811C10.0149 9.39915 10.0014 9.38019 9.98515 9.36123C9.93639 9.29893 9.88222 9.23663 9.82805 9.17704C9.82805 9.17704 9.82534 9.17162 9.82263 9.17162C9.76304 9.10661 9.70344 9.04702 9.63843 8.98742C9.63031 8.9793 9.62218 8.97388 9.61406 8.96575C9.55988 8.917 9.50571 8.86824 9.44882 8.81948C9.42986 8.80594 9.4109 8.78969 9.39465 8.77614C9.34589 8.73822 9.29713 8.7003 9.24567 8.66508C9.224 8.64883 9.19962 8.63258 9.17795 8.61904C9.12919 8.58653 9.08043 8.55403 9.03168 8.52423C9.0073 8.50798 8.98021 8.49443 8.95583 8.47818C8.93687 8.46735 8.91791 8.4538 8.89624 8.44297C9.1617 7.32426 10.1829 6.48997 11.3612 6.48997V6.49268ZM4.61914 11.6149C4.61914 10.2172 5.75681 9.08223 7.15452 9.08223C7.47686 9.08223 7.79378 9.14182 8.09445 9.26371C9.06147 9.65106 9.68719 10.5747 9.68719 11.6149C9.68719 11.688 9.68719 11.7612 9.67906 11.837C9.64656 12.2135 9.5355 12.5657 9.34589 12.888C8.89624 13.6681 8.05653 14.1503 7.15452 14.1503C6.95407 14.1503 6.75363 14.1259 6.5586 14.0771C5.41551 13.8063 4.61914 12.7932 4.61914 11.6149ZM9.09669 18.682C7.69898 18.682 6.56131 17.547 6.56131 16.1493C6.56131 15.827 6.62361 15.5074 6.74279 15.2094C6.87823 15.2256 7.01637 15.2338 7.15452 15.2338C7.24662 15.2338 7.33601 15.2284 7.4281 15.2229C7.45519 15.2229 7.48499 15.2175 7.51207 15.2148C7.57437 15.2094 7.63938 15.2013 7.70169 15.1904C7.73148 15.185 7.76399 15.1796 7.79378 15.1742C7.85608 15.1633 7.91838 15.1498 7.97798 15.1363C8.00506 15.1308 8.03215 15.1227 8.05924 15.1173C8.1405 15.0956 8.22447 15.0713 8.30303 15.0442C8.30844 15.0442 8.31115 15.0442 8.31657 15.0415C8.40054 15.0117 8.48451 14.9792 8.56848 14.9439C8.59015 14.9331 8.61453 14.9223 8.6362 14.9141C8.69579 14.8871 8.75538 14.86 8.81227 14.8302C8.83936 14.8166 8.86373 14.8031 8.88811 14.7895C8.945 14.7597 8.99917 14.7272 9.05335 14.692C9.07502 14.6785 9.09939 14.6649 9.12106 14.6487C9.18878 14.6053 9.2565 14.5566 9.32151 14.5078C9.32693 14.5051 9.33235 14.4997 9.33776 14.497C9.33235 14.5403 9.32964 14.5837 9.32422 14.627C9.32151 14.6595 9.31609 14.6893 9.31609 14.7218C9.31068 14.8031 9.30797 14.8843 9.30797 14.9656C9.30797 15.101 9.3188 15.2365 9.33235 15.3692C9.33505 15.3936 9.33776 15.418 9.34047 15.4423C9.35672 15.5697 9.3811 15.6943 9.4109 15.8189C9.41632 15.8432 9.42444 15.8676 9.42986 15.892C9.46237 16.0193 9.50029 16.1412 9.54634 16.2631C9.54634 16.2685 9.55175 16.2739 9.55175 16.2793C9.5978 16.3958 9.64927 16.5096 9.70886 16.6206C9.7197 16.6423 9.73053 16.664 9.74137 16.6857C9.80096 16.794 9.86326 16.8996 9.93369 17.0026C9.94994 17.0243 9.96619 17.0486 9.98244 17.0703C10.0556 17.1732 10.1314 17.2735 10.2154 17.3656C10.2235 17.3764 10.2344 17.3845 10.2425 17.3926C10.321 17.4793 10.405 17.5633 10.4944 17.6418C10.5134 17.6608 10.535 17.6798 10.554 17.696C10.6461 17.7773 10.7436 17.8504 10.8438 17.9236C10.8547 17.9317 10.8655 17.9398 10.8763 17.9479C10.4077 18.4138 9.77116 18.682 9.09127 18.682H9.09669ZM12.9268 17.4983C12.5774 17.4983 12.2388 17.4279 11.9165 17.2897C10.9928 16.8861 10.3942 15.9733 10.3942 14.9656C10.3942 14.4862 10.5296 14.0203 10.7815 13.6139C11.0957 13.121 11.5671 12.7499 12.1115 12.5657C12.2172 12.544 12.3228 12.5169 12.4339 12.4817C12.5937 12.4492 12.7589 12.4329 12.9241 12.4329H12.9512C13.8505 12.4411 14.6848 12.9341 15.1318 13.7196C15.1751 13.7927 15.2157 13.8713 15.2509 13.9525C15.2862 14.0338 15.316 14.1178 15.343 14.2045C15.343 14.2045 15.343 14.2045 15.343 14.2072C15.4189 14.4482 15.4595 14.7029 15.4595 14.9629C15.4595 15.2663 15.4053 15.567 15.2997 15.8541C14.9286 16.8346 13.9751 17.4956 12.9241 17.4956L12.9268 17.4983ZM18.4825 17.0622C17.6509 17.0622 16.8735 16.6504 16.4022 15.9733C16.4022 15.9651 16.4076 15.9543 16.4103 15.9462C16.4184 15.9191 16.4238 15.892 16.432 15.8622C16.4482 15.7945 16.4645 15.7241 16.478 15.6536C16.4834 15.6211 16.4888 15.5886 16.4943 15.5534C16.5051 15.4857 16.5159 15.4153 16.5213 15.3475C16.524 15.3177 16.5295 15.288 16.5322 15.2582C16.5403 15.1606 16.5457 15.0631 16.5457 14.9629C16.5457 14.8329 16.5376 14.7029 16.524 14.5756C16.524 14.5593 16.524 14.5458 16.524 14.5295C16.5268 14.5295 16.5322 14.5295 16.5349 14.5295C16.5511 14.5268 16.5701 14.5214 16.5863 14.5187C16.6649 14.5024 16.7407 14.4862 16.8193 14.4672C16.8491 14.4591 16.8789 14.4509 16.9087 14.4428C16.9764 14.4239 17.0414 14.4022 17.1064 14.3805C17.1335 14.3724 17.1606 14.3616 17.185 14.3534C17.3638 14.2857 17.5371 14.2045 17.6996 14.1096C17.7213 14.0961 17.743 14.0853 17.7619 14.0717C17.8242 14.0338 17.8865 13.9932 17.9461 13.9525C17.9678 13.939 17.9868 13.9255 18.0084 13.9092C18.0789 13.8577 18.1493 13.8063 18.2143 13.7494C18.2197 13.744 18.2251 13.7413 18.2306 13.7358C18.3064 13.6735 18.3768 13.6058 18.4473 13.5354C18.4581 13.5246 18.4662 13.5164 18.4743 13.5056C18.5339 13.446 18.5908 13.3837 18.645 13.3187C18.6585 13.3024 18.6721 13.2889 18.6829 13.2726C18.7371 13.2049 18.7913 13.1372 18.8427 13.0641C18.8481 13.0559 18.8536 13.0478 18.859 13.0397C18.9727 12.8772 19.073 12.7038 19.1597 12.5223C19.1678 12.5061 19.1759 12.4898 19.184 12.4709C19.2192 12.395 19.2517 12.3165 19.2815 12.2352C19.287 12.2189 19.2951 12.2027 19.3005 12.1864C19.3059 12.1702 19.314 12.1539 19.3195 12.1377C20.3136 12.4871 21.0178 13.4406 21.0178 14.5295C21.0178 15.9272 19.8802 17.0622 18.4825 17.0622Z" fill="#435FF0"/>
<path d="M19.5091 11.065C19.5091 11.0325 19.5145 11 19.5145 10.9675C19.5145 8.97388 17.892 7.35135 15.8956 7.35135C15.4785 7.35135 15.0667 7.42448 14.674 7.56534C14.1079 6.26785 12.8239 5.40918 11.3639 5.40918C9.7224 5.40918 8.30032 6.53601 7.87775 8.07187C7.64209 8.02311 7.40102 7.99873 7.15723 7.99873C5.15818 7.99873 3.53564 9.62127 3.53564 11.6149C3.53564 13.0776 4.39702 14.3616 5.6918 14.925C5.55095 15.3177 5.47781 15.7295 5.47781 16.1493C5.47781 18.143 7.10035 19.7655 9.09669 19.7655C10.1991 19.7655 11.2176 19.2725 11.9002 18.4301C12.2334 18.5276 12.5774 18.5818 12.9268 18.5818C14.116 18.5818 15.2157 17.9886 15.8848 17.0432C16.5593 17.7366 17.4911 18.1457 18.4825 18.1457C20.4788 18.1457 22.1013 16.5231 22.1013 14.5295C22.1013 12.9178 21.0151 11.512 19.5091 11.065ZM18.431 10.9675C18.431 11.1057 18.4202 11.2492 18.3958 11.3955C18.3822 11.4686 18.366 11.5391 18.3497 11.6122C18.3443 11.6339 18.3362 11.6555 18.3308 11.6772C18.3172 11.726 18.3037 11.772 18.2874 11.8181C18.2793 11.8451 18.2685 11.8695 18.2576 11.8939C18.2414 11.9345 18.2251 11.9752 18.2062 12.0158C18.1953 12.0429 18.1818 12.0673 18.1683 12.0943C18.1493 12.1323 18.1303 12.1702 18.1087 12.2054C18.0951 12.2298 18.0789 12.2569 18.0653 12.2812C18.0437 12.3165 18.022 12.3517 17.9976 12.3869C17.9813 12.4113 17.9651 12.4356 17.9461 12.46C17.9218 12.4925 17.8974 12.525 17.8703 12.5575C17.8513 12.5792 17.8351 12.6036 17.8161 12.6253C17.789 12.6578 17.7592 12.6876 17.7321 12.7174C17.7132 12.739 17.6942 12.758 17.6726 12.7769C17.6428 12.8067 17.6103 12.8365 17.5777 12.8636C17.5588 12.8826 17.5371 12.8988 17.5182 12.9178C17.4829 12.9476 17.445 12.9774 17.4071 13.0045C17.3881 13.018 17.3719 13.0316 17.3529 13.0451C17.296 13.0857 17.2364 13.1237 17.1769 13.1589C17.1714 13.1616 17.1633 13.1643 17.1579 13.1697C17.1037 13.1995 17.0495 13.2293 16.9927 13.2564C16.971 13.2672 16.9466 13.2754 16.9249 13.2862C16.8843 13.3052 16.8437 13.3214 16.8003 13.3377C16.7733 13.3485 16.7462 13.3566 16.7164 13.3675C16.6784 13.381 16.6378 13.3945 16.5999 13.4054C16.5701 13.4135 16.5403 13.4216 16.5078 13.4298C16.4699 13.4379 16.432 13.4487 16.3913 13.4568C16.3588 13.4623 16.3263 13.4677 16.2938 13.4731C16.2721 13.4758 16.2505 13.4785 16.2288 13.4812C16.1827 13.3783 16.1313 13.2781 16.0771 13.1833C16.0121 13.0695 15.9417 12.9611 15.8658 12.8555C15.855 12.842 15.8469 12.8257 15.836 12.8122C15.7629 12.7146 15.6843 12.6198 15.6031 12.5305C15.5868 12.5142 15.5733 12.4979 15.557 12.4817C15.4758 12.395 15.3891 12.311 15.297 12.2352C15.2807 12.2217 15.2645 12.2081 15.2455 12.1919C15.1507 12.1133 15.0559 12.0402 14.9557 11.9725C14.9449 11.9643 14.9313 11.9589 14.9205 11.9508C14.823 11.8885 14.7254 11.8289 14.6225 11.7747C14.6063 11.7666 14.59 11.7558 14.5738 11.7476C14.4681 11.6935 14.3625 11.6474 14.2514 11.6041C14.227 11.5932 14.2 11.5824 14.1756 11.5743C14.0672 11.5336 13.9589 11.5011 13.8478 11.4713C13.8207 11.4632 13.7909 11.4578 13.7638 11.4497C13.6501 11.4226 13.5363 11.4009 13.4198 11.3847C13.4144 11.3847 13.409 11.3847 13.4036 11.3819C13.3982 11.3576 13.3927 11.3332 13.39 11.3061C13.3873 11.2817 13.3846 11.2573 13.3819 11.2357C13.3738 11.149 13.3657 11.0596 13.3657 10.9702C13.3657 10.8565 13.3738 10.7454 13.3873 10.637C13.4767 9.97611 13.8234 9.37477 14.3489 8.96575C14.4058 8.92241 14.4654 8.88449 14.525 8.84657C14.5602 8.8249 14.59 8.79781 14.6252 8.77885C15.0126 8.55403 15.4514 8.43755 15.8956 8.43755C17.2933 8.43755 18.431 9.57251 18.431 10.9702V10.9675ZM11.3612 6.49268C12.4149 6.49268 13.3359 7.12923 13.7124 8.0827C13.7097 8.08541 13.7043 8.08812 13.7015 8.09083C13.604 8.16668 13.5119 8.24523 13.4225 8.3292C13.4063 8.34545 13.39 8.359 13.3738 8.37525C13.2871 8.45922 13.2058 8.5459 13.13 8.638C13.1165 8.65425 13.1029 8.67321 13.0894 8.68946C13.0135 8.78427 12.9404 8.88178 12.8727 8.98201C12.8645 8.99284 12.8591 9.00638 12.851 9.01722C12.786 9.12015 12.7237 9.22579 12.6695 9.33414C12.6641 9.34227 12.6614 9.35039 12.656 9.35852C12.6018 9.46958 12.553 9.58335 12.5097 9.69982C12.5016 9.71878 12.4962 9.73774 12.488 9.75671C12.4474 9.87047 12.4122 9.98424 12.3851 10.1007C12.3797 10.1224 12.3743 10.1441 12.3688 10.1657C12.3418 10.2849 12.3201 10.4041 12.3038 10.526C12.3038 10.5422 12.3011 10.5612 12.2984 10.5775C12.2849 10.7048 12.2767 10.8348 12.2767 10.9648C12.2767 11.1029 12.2849 11.2411 12.3011 11.3792C12.2605 11.3955 12.2199 11.4117 12.1765 11.4253C12.163 11.428 12.1494 11.4334 12.1332 11.4361C12.0492 11.4632 11.9707 11.4849 11.8948 11.5011C11.8867 11.5011 11.8786 11.5011 11.8704 11.5066C11.4993 11.5824 11.1228 11.5743 10.768 11.4876C10.768 11.4578 10.7626 11.428 10.7626 11.4009C10.7626 11.3657 10.7599 11.3305 10.7544 11.2953C10.749 11.2411 10.7436 11.1896 10.7355 11.1355C10.7301 11.1029 10.7273 11.0704 10.7219 11.0406C10.7111 10.9783 10.7003 10.9188 10.6867 10.8565C10.6813 10.8348 10.6786 10.8131 10.6732 10.7914C10.6542 10.7102 10.6325 10.6289 10.6082 10.5477C10.6027 10.5287 10.5946 10.5097 10.5892 10.4908C10.5702 10.4312 10.5486 10.3689 10.5269 10.3093C10.5161 10.2822 10.5052 10.2551 10.4944 10.228C10.4727 10.1766 10.4511 10.1278 10.4294 10.079C10.4158 10.0492 10.4023 10.0222 10.3888 9.99507C10.3644 9.94903 10.34 9.90027 10.3156 9.85422C10.2994 9.82713 10.2858 9.80005 10.2696 9.77296C10.2425 9.72691 10.2127 9.68086 10.1829 9.63481C10.1666 9.61043 10.1504 9.58605 10.1341 9.56168C10.0989 9.51292 10.0637 9.46416 10.0285 9.41811C10.0149 9.39915 10.0014 9.38019 9.98515 9.36123C9.93639 9.29893 9.88222 9.23663 9.82805 9.17704C9.82805 9.17704 9.82534 9.17162 9.82263 9.17162C9.76304 9.10661 9.70344 9.04702 9.63843 8.98742C9.63031 8.9793 9.62218 8.97388 9.61406 8.96575C9.55988 8.917 9.50571 8.86824 9.44882 8.81948C9.42986 8.80594 9.4109 8.78969 9.39465 8.77614C9.34589 8.73822 9.29713 8.7003 9.24567 8.66508C9.224 8.64883 9.19962 8.63258 9.17795 8.61904C9.12919 8.58653 9.08043 8.55403 9.03168 8.52423C9.0073 8.50798 8.98021 8.49443 8.95583 8.47818C8.93687 8.46735 8.91791 8.4538 8.89624 8.44297C9.1617 7.32426 10.1829 6.48997 11.3612 6.48997V6.49268ZM4.61914 11.6149C4.61914 10.2172 5.75681 9.08223 7.15452 9.08223C7.47686 9.08223 7.79378 9.14182 8.09445 9.26371C9.06147 9.65106 9.68719 10.5747 9.68719 11.6149C9.68719 11.688 9.68719 11.7612 9.67906 11.837C9.64656 12.2135 9.5355 12.5657 9.34589 12.888C8.89624 13.6681 8.05653 14.1503 7.15452 14.1503C6.95407 14.1503 6.75363 14.1259 6.5586 14.0771C5.41551 13.8063 4.61914 12.7932 4.61914 11.6149ZM9.09669 18.682C7.69898 18.682 6.56131 17.547 6.56131 16.1493C6.56131 15.827 6.62361 15.5074 6.74279 15.2094C6.87823 15.2256 7.01637 15.2338 7.15452 15.2338C7.24662 15.2338 7.33601 15.2284 7.4281 15.2229C7.45519 15.2229 7.48499 15.2175 7.51207 15.2148C7.57437 15.2094 7.63938 15.2013 7.70169 15.1904C7.73148 15.185 7.76399 15.1796 7.79378 15.1742C7.85608 15.1633 7.91838 15.1498 7.97798 15.1363C8.00506 15.1308 8.03215 15.1227 8.05924 15.1173C8.1405 15.0956 8.22447 15.0713 8.30303 15.0442C8.30844 15.0442 8.31115 15.0442 8.31657 15.0415C8.40054 15.0117 8.48451 14.9792 8.56848 14.9439C8.59015 14.9331 8.61453 14.9223 8.6362 14.9141C8.69579 14.8871 8.75538 14.86 8.81227 14.8302C8.83936 14.8166 8.86373 14.8031 8.88811 14.7895C8.945 14.7597 8.99917 14.7272 9.05335 14.692C9.07502 14.6785 9.09939 14.6649 9.12106 14.6487C9.18878 14.6053 9.2565 14.5566 9.32151 14.5078C9.32693 14.5051 9.33235 14.4997 9.33776 14.497C9.33235 14.5403 9.32964 14.5837 9.32422 14.627C9.32151 14.6595 9.31609 14.6893 9.31609 14.7218C9.31068 14.8031 9.30797 14.8843 9.30797 14.9656C9.30797 15.101 9.3188 15.2365 9.33235 15.3692C9.33505 15.3936 9.33776 15.418 9.34047 15.4423C9.35672 15.5697 9.3811 15.6943 9.4109 15.8189C9.41632 15.8432 9.42444 15.8676 9.42986 15.892C9.46237 16.0193 9.50029 16.1412 9.54634 16.2631C9.54634 16.2685 9.55175 16.2739 9.55175 16.2793C9.5978 16.3958 9.64927 16.5096 9.70886 16.6206C9.7197 16.6423 9.73053 16.664 9.74137 16.6857C9.80096 16.794 9.86326 16.8996 9.93369 17.0026C9.94994 17.0243 9.96619 17.0486 9.98244 17.0703C10.0556 17.1732 10.1314 17.2735 10.2154 17.3656C10.2235 17.3764 10.2344 17.3845 10.2425 17.3926C10.321 17.4793 10.405 17.5633 10.4944 17.6418C10.5134 17.6608 10.535 17.6798 10.554 17.696C10.6461 17.7773 10.7436 17.8504 10.8438 17.9236C10.8547 17.9317 10.8655 17.9398 10.8763 17.9479C10.4077 18.4138 9.77116 18.682 9.09127 18.682H9.09669ZM12.9268 17.4983C12.5774 17.4983 12.2388 17.4279 11.9165 17.2897C10.9928 16.8861 10.3942 15.9733 10.3942 14.9656C10.3942 14.4862 10.5296 14.0203 10.7815 13.6139C11.0957 13.121 11.5671 12.7499 12.1115 12.5657C12.2172 12.544 12.3228 12.5169 12.4339 12.4817C12.5937 12.4492 12.7589 12.4329 12.9241 12.4329H12.9512C13.8505 12.4411 14.6848 12.9341 15.1318 13.7196C15.1751 13.7927 15.2157 13.8713 15.2509 13.9525C15.2862 14.0338 15.316 14.1178 15.343 14.2045C15.343 14.2045 15.343 14.2045 15.343 14.2072C15.4189 14.4482 15.4595 14.7029 15.4595 14.9629C15.4595 15.2663 15.4053 15.567 15.2997 15.8541C14.9286 16.8346 13.9751 17.4956 12.9241 17.4956L12.9268 17.4983ZM18.4825 17.0622C17.6509 17.0622 16.8735 16.6504 16.4022 15.9733C16.4022 15.9651 16.4076 15.9543 16.4103 15.9462C16.4184 15.9191 16.4238 15.892 16.432 15.8622C16.4482 15.7945 16.4645 15.7241 16.478 15.6536C16.4834 15.6211 16.4888 15.5886 16.4943 15.5534C16.5051 15.4857 16.5159 15.4153 16.5213 15.3475C16.524 15.3177 16.5295 15.288 16.5322 15.2582C16.5403 15.1606 16.5457 15.0631 16.5457 14.9629C16.5457 14.8329 16.5376 14.7029 16.524 14.5756C16.524 14.5593 16.524 14.5458 16.524 14.5295C16.5268 14.5295 16.5322 14.5295 16.5349 14.5295C16.5511 14.5268 16.5701 14.5214 16.5863 14.5187C16.6649 14.5024 16.7407 14.4862 16.8193 14.4672C16.8491 14.4591 16.8789 14.4509 16.9087 14.4428C16.9764 14.4239 17.0414 14.4022 17.1064 14.3805C17.1335 14.3724 17.1606 14.3616 17.185 14.3534C17.3638 14.2857 17.5371 14.2045 17.6996 14.1096C17.7213 14.0961 17.743 14.0853 17.7619 14.0717C17.8242 14.0338 17.8865 13.9932 17.9461 13.9525C17.9678 13.939 17.9868 13.9255 18.0084 13.9092C18.0789 13.8577 18.1493 13.8063 18.2143 13.7494C18.2197 13.744 18.2251 13.7413 18.2306 13.7358C18.3064 13.6735 18.3768 13.6058 18.4473 13.5354C18.4581 13.5246 18.4662 13.5164 18.4743 13.5056C18.5339 13.446 18.5908 13.3837 18.645 13.3187C18.6585 13.3024 18.6721 13.2889 18.6829 13.2726C18.7371 13.2049 18.7913 13.1372 18.8427 13.0641C18.8481 13.0559 18.8536 13.0478 18.859 13.0397C18.9727 12.8772 19.073 12.7038 19.1597 12.5223C19.1678 12.5061 19.1759 12.4898 19.184 12.4709C19.2192 12.395 19.2517 12.3165 19.2815 12.2352C19.287 12.2189 19.2951 12.2027 19.3005 12.1864C19.3059 12.1702 19.314 12.1539 19.3195 12.1377C20.3136 12.4871 21.0178 13.4406 21.0178 14.5295C21.0178 15.9272 19.8802 17.0622 18.4825 17.0622Z" stroke="#435FF0" stroke-width="0.327273" mask="url(#path-1-outside-1_316_3042)"/>
</svg>
