<svg width="91" height="91" viewBox="0 0 91 91" fill="none" xmlns="http://www.w3.org/2000/svg">
  <path
    d="M45.3618 0.537109H45.1821C20.3321 0.537109 0.182129 20.6871 0.182129 45.5371C0.182129 54.1671 2.63205 62.2371 6.85205 69.0871L2.05225 88.7571L21.7622 83.9471C28.5822 88.1171 36.6021 90.5271 45.1821 90.5371H45.3618C70.2118 90.5371 90.3618 70.3871 90.3618 45.5371C90.3318 20.6971 70.2018 0.567109 45.3618 0.537109Z"
    fill="#EBECFD" />
  <path
    d="M59.851 56.5281L50.0665 39.8208V30.1144H50.8163C51.4749 30.1144 52.007 29.5823 52.007 28.9237C52.007 28.265 51.4749 27.7329 50.8163 27.7329H39.3129C38.6542 27.7329 38.1221 28.265 38.1221 28.9237C38.1221 29.5823 38.6542 30.1144 39.3129 30.1144H40.1538V39.8298L30.6594 56.5858C29.8556 58.0035 29.8668 59.6891 30.6873 61.0957C31.506 62.5022 32.9683 63.3413 34.5962 63.3413H55.9475C57.5884 63.3413 59.0564 62.491 59.8732 61.0678C60.6899 59.6426 60.6825 57.9477 59.8527 56.5319L59.851 56.5281ZM47.685 30.1144V40.1446C47.685 40.3567 47.7408 40.5632 47.8488 40.7456L49.9567 44.3457H40.3304L42.3788 40.7307C42.4793 40.5521 42.5332 40.3493 42.5332 40.1428V30.1125H47.6829L47.685 30.1144ZM57.8062 59.8808C57.4193 60.5561 56.7234 60.958 55.9458 60.958H34.5964C33.8262 60.958 33.1322 60.5598 32.7452 59.8938C32.3564 59.2277 32.3508 58.4295 32.7322 57.7579L38.9835 46.7269H51.3543L57.799 57.7317C58.1916 58.4033 58.1953 59.2052 57.8083 59.8806L57.8062 59.8808Z"
    fill="white" />
  <path fill-rule="evenodd" clip-rule="evenodd"
    d="M60.0287 56.4453L50.2621 39.7676V30.3102H50.8161C51.5828 30.3102 52.2026 29.6904 52.2026 28.9236C52.2026 28.1569 51.5828 27.5371 50.8161 27.5371H39.3127C38.5459 27.5371 37.9261 28.1569 37.9261 28.9236C37.9261 29.6904 38.5459 30.3102 39.3127 30.3102H39.9578V39.7782L30.4889 56.4892C30.4888 56.4892 30.4889 56.4892 30.4889 56.4892C29.6507 57.9676 29.6624 59.7276 30.518 61.1943C31.3718 62.6612 32.8986 63.5371 34.596 63.5371H55.9473C57.6584 63.5371 59.1911 62.6493 60.0428 61.1652C60.892 59.6835 60.8868 57.9193 60.0287 56.4453ZM30.6873 61.0957C31.506 62.5022 32.9683 63.3413 34.5962 63.3413H55.9475C57.5884 63.3413 59.0564 62.491 59.8732 61.0678C60.6899 59.6426 60.6825 57.9477 59.8527 56.5319L59.851 56.5281L50.0665 39.8208V30.1144H50.8163C51.4749 30.1144 52.007 29.5823 52.007 28.9237C52.007 28.265 51.4749 27.7329 50.8163 27.7329H39.3129C38.6542 27.7329 38.1221 28.265 38.1221 28.9237C38.1221 29.5823 38.6542 30.1144 39.3129 30.1144H40.1538V39.8298L30.6594 56.5858C29.8556 58.0035 29.8668 59.6891 30.6873 61.0957ZM42.3788 40.7307L40.3304 44.3457H49.9567L47.8488 40.7456C47.7408 40.5632 47.685 40.3567 47.685 40.1446V30.1144L47.6829 30.1125H42.5332V40.1428C42.5332 40.3493 42.4793 40.5521 42.3788 40.7307ZM42.7289 30.3083V40.1428C42.7289 40.3833 42.666 40.6191 42.5493 40.8267L40.6662 44.1499H49.615L47.68 40.8453C47.68 40.8452 47.6801 40.8454 47.68 40.8453C47.5542 40.6325 47.489 40.3912 47.489 40.1446V30.3083H42.7289ZM57.8083 59.8806C58.1953 59.2052 58.1916 58.4033 57.799 57.7317L51.3543 46.7269H38.9835L32.7322 57.7579C32.3508 58.4295 32.3564 59.2277 32.7452 59.8938C33.1322 60.5598 33.8262 60.958 34.5964 60.958H55.9458C56.7234 60.958 57.4193 60.5561 57.8062 59.8808L57.8083 59.8806ZM57.6298 57.8306C57.9729 58.4178 57.9895 59.1118 57.678 59.7103L57.6298 57.8306ZM57.6298 57.8306L51.2418 46.9227H39.0974L32.9023 57.8544C32.5555 58.4653 32.5604 59.1892 32.9141 59.795C33.2659 60.4006 33.8955 60.7622 34.5962 60.7622H55.9455C56.6533 60.7622 57.2842 60.3977 57.6361 59.7834L57.678 59.7103"
    fill="white" />
</svg>
  