<svg
  width="33"
  height="33"
  viewBox="0 0 33 33"
  fill="none"
  xmlns="http://www.w3.org/2000/svg"
>
  <rect x="0.94043" y="0.983887" width="32" height="32" rx="16" fill="#EBEEF8" />
  <path
    d="M23.0148 21.5635L18.9379 14.6021V10.5578H19.2504C19.5248 10.5578 19.7465 10.336 19.7465 10.0616C19.7465 9.78719 19.5248 9.56548 19.2504 9.56548H14.4573C14.1828 9.56548 13.9611 9.78719 13.9611 10.0616C13.9611 10.336 14.1828 10.5578 14.4573 10.5578H14.8077V14.6058L10.8517 21.5875C10.5168 22.1782 10.5214 22.8805 10.8633 23.4666C11.2044 24.0527 11.8137 24.4023 12.492 24.4023H21.3883C22.0721 24.4023 22.6837 24.048 23.0241 23.455C23.3644 22.8612 23.3613 22.155 23.0155 21.565L23.0148 21.5635ZM17.9457 10.5578V14.737C17.9457 14.8254 17.9689 14.9114 18.0139 14.9874L18.8922 16.4875H14.8812L15.7347 14.9812C15.7766 14.9068 15.7991 14.8223 15.7991 14.7362V10.557H17.9448L17.9457 10.5578ZM22.1628 22.9604C22.0016 23.2418 21.7117 23.4093 21.3876 23.4093H12.4921C12.1711 23.4093 11.882 23.2434 11.7207 22.9658C11.5587 22.6883 11.5564 22.3557 11.7153 22.0759L14.32 17.4797H19.4745L22.1598 22.065C22.3234 22.3448 22.3249 22.6789 22.1637 22.9603L22.1628 22.9604Z"
    fill="#313E4C"
  />
  <path
    fill-rule="evenodd"
    clip-rule="evenodd"
    d="M23.0889 21.529L19.0194 14.5799V10.6393H19.2503C19.5698 10.6393 19.828 10.3811 19.828 10.0616C19.828 9.74213 19.5698 9.48389 19.2503 9.48389H14.4572C14.1377 9.48389 13.8795 9.74213 13.8795 10.0616C13.8795 10.3811 14.1377 10.6393 14.4572 10.6393H14.726V14.5843L10.7806 21.5473C10.7806 21.5472 10.7806 21.5473 10.7806 21.5473C10.4314 22.1633 10.4362 22.8966 10.7927 23.5077C11.1485 24.1189 11.7847 24.4839 12.4919 24.4839H21.3883C22.1012 24.4839 22.7399 24.114 23.0947 23.4956C23.4486 22.8782 23.4464 22.1431 23.0889 21.529ZM10.8633 23.4666C11.2044 24.0527 11.8137 24.4023 12.492 24.4023H21.3883C22.0721 24.4023 22.6837 24.048 23.0241 23.455C23.3644 22.8612 23.3613 22.155 23.0155 21.565L23.0148 21.5635L18.9379 14.6021V10.5578H19.2504C19.5248 10.5578 19.7465 10.336 19.7465 10.0616C19.7465 9.78719 19.5248 9.56548 19.2504 9.56548H14.4573C14.1828 9.56548 13.9611 9.78719 13.9611 10.0616C13.9611 10.336 14.1828 10.5578 14.4573 10.5578H14.8077V14.6058L10.8517 21.5875C10.5168 22.1782 10.5214 22.8805 10.8633 23.4666ZM15.7347 14.9812L14.8812 16.4875H18.8922L18.0139 14.9874C17.9689 14.9114 17.9457 14.8254 17.9457 14.737V10.5578L17.9448 10.557H15.7991V14.7362C15.7991 14.8223 15.7766 14.9068 15.7347 14.9812ZM15.8806 10.6386V14.7362C15.8806 14.8365 15.8544 14.9347 15.8058 15.0212L15.0212 16.4059H18.7498L17.9436 15.029C17.9436 15.0289 17.9436 15.029 17.9436 15.029C17.8911 14.9403 17.864 14.8398 17.864 14.737V10.6386H15.8806ZM22.1637 22.9603C22.3249 22.6789 22.3234 22.3448 22.1598 22.065L19.4745 17.4797H14.32L11.7153 22.0759C11.5564 22.3557 11.5587 22.6883 11.7207 22.9658C11.882 23.2434 12.1711 23.4093 12.4921 23.4093H21.3876C21.7117 23.4093 22.0016 23.2418 22.1628 22.9604L22.1637 22.9603ZM22.0893 22.1062C22.2323 22.3508 22.2392 22.64 22.1094 22.8894ZM22.0893 22.1062L19.4277 17.5612H14.3675L11.7862 22.1161C11.6417 22.3706 11.6437 22.6722 11.7911 22.9247C11.9377 23.177 12.2 23.3277 12.492 23.3277H21.3875C21.6824 23.3277 21.9453 23.1758 22.092 22.9198L22.1094 22.8894"
    fill="#313E4C"
  />
</svg>