<svg width="25" height="25" viewBox="0 0 25 25" fill="none" xmlns="http://www.w3.org/2000/svg">
<path fill-rule="evenodd" clip-rule="evenodd" d="M4.94336 10.6538C3.70072 10.6538 2.69336 11.6612 2.69336 12.9038C2.69336 14.1464 3.70072 15.1538 4.94336 15.1538C6.186 15.1538 7.19336 14.1464 7.19336 12.9038C7.19336 11.6612 6.186 10.6538 4.94336 10.6538ZM10.5684 12.9038C10.5684 11.6612 11.5757 10.6538 12.8184 10.6538C14.061 10.6538 15.0684 11.6612 15.0684 12.9038C15.0684 14.1464 14.061 15.1538 12.8184 15.1538C11.5757 15.1538 10.5684 14.1464 10.5684 12.9038ZM18.4434 12.9038C18.4434 11.6612 19.4507 10.6538 20.6934 10.6538C21.936 10.6538 22.9434 11.6612 22.9434 12.9038C22.9434 14.1464 21.936 15.1538 20.6934 15.1538C19.4507 15.1538 18.4434 14.1464 18.4434 12.9038Z" fill="#435FF0"/>
</svg>
