<svg width="25" height="25" viewBox="0 0 25 25" fill="none" xmlns="http://www.w3.org/2000/svg">
<path d="M13.6362 4.5874C13.6362 4.03512 13.1885 3.5874 12.6362 3.5874C12.0839 3.5874 11.6362 4.03512 11.6362 4.5874L11.6362 11.5874H4.63623C4.08395 11.5874 3.63623 12.0351 3.63623 12.5874C3.63623 13.1397 4.08395 13.5874 4.63623 13.5874H11.6362L11.6362 20.5874C11.6362 21.1397 12.0839 21.5874 12.6362 21.5874C13.1885 21.5874 13.6362 21.1397 13.6362 20.5874V13.5874H20.6362C21.1885 13.5874 21.6362 13.1397 21.6362 12.5874C21.6362 12.0351 21.1885 11.5874 20.6362 11.5874H13.6362V4.5874Z" fill="#435FF0"/>
</svg>
