<svg width="25" height="25" viewBox="0 0 25 25" fill="none" xmlns="http://www.w3.org/2000/svg">
<path fill-rule="evenodd" clip-rule="evenodd" d="M9.21836 10.7874C9.21836 8.79918 10.8301 7.1874 12.8184 7.1874C14.8066 7.1874 16.4184 8.79918 16.4184 10.7874C16.4184 12.7756 14.8066 14.3874 12.8184 14.3874C10.8301 14.3874 9.21836 12.7756 9.21836 10.7874ZM12.8184 8.9874C11.8242 8.9874 11.0184 9.79329 11.0184 10.7874C11.0184 11.7815 11.8242 12.5874 12.8184 12.5874C13.8125 12.5874 14.6184 11.7815 14.6184 10.7874C14.6184 9.79329 13.8125 8.9874 12.8184 8.9874Z" fill="#435FF0"/>
<path fill-rule="evenodd" clip-rule="evenodd" d="M3.81836 12.5874C3.81836 7.61684 7.8478 3.5874 12.8184 3.5874C17.7889 3.5874 21.8184 7.61684 21.8184 12.5874C21.8184 17.558 17.7889 21.5874 12.8184 21.5874C7.8478 21.5874 3.81836 17.558 3.81836 12.5874ZM12.8184 5.3874C8.84191 5.3874 5.61836 8.61095 5.61836 12.5874C5.61836 14.4134 6.29812 16.0807 7.41839 17.3499C8.85078 16.0681 10.7438 15.2874 12.8183 15.2874C14.8929 15.2874 16.7859 16.0681 18.2183 17.3499C19.3386 16.0807 20.0184 14.4134 20.0184 12.5874C20.0184 8.61095 16.7948 5.3874 12.8184 5.3874ZM16.855 18.5503C15.7613 17.6363 14.3543 17.0874 12.8183 17.0874C11.2824 17.0874 9.87541 17.6363 8.78168 18.5502C9.93298 19.3312 11.3224 19.7874 12.8184 19.7874C14.3143 19.7874 15.7037 19.3312 16.855 18.5503Z" fill="#435FF0"/>
</svg>
