<svg width="14" height="16" viewBox="0 0 14 16" fill="none" xmlns="http://www.w3.org/2000/svg">
  <path
    d="M5.80664 1.26318C6.57295 0.882795 7.48732 0.909799 8.23828 1.34424L12.0566 3.54932L12.2021 3.64111C12.911 4.12002 13.3477 4.92461 13.3477 5.7876V10.1841C13.3477 11.0471 12.9111 11.8517 12.2021 12.3306L12.0566 12.4224L8.23828 14.6274L8.2373 14.6265C7.83971 14.8583 7.39016 14.9711 6.94727 14.9712C6.50405 14.9712 6.05312 14.8585 5.65527 14.6265V14.6274L1.83691 12.4224C1.04273 11.9591 0.545898 11.1047 0.545898 10.1841V5.7876C0.545898 4.86702 1.04273 4.01259 1.83691 3.54932L5.65527 1.34424L5.80664 1.26318ZM6.94727 2.11475C6.75949 2.11475 6.56738 2.15194 6.3877 2.2251L6.21289 2.31006L2.39453 4.51514C1.94177 4.77828 1.66016 5.26175 1.66016 5.7876V10.1841C1.66016 10.7037 1.94185 11.1935 2.39453 11.4565L6.21289 13.6616L6.3877 13.7476C6.80462 13.9201 7.28392 13.8913 7.67383 13.6616H7.6748L11.4932 11.4565L11.6543 11.3481C12.0116 11.0722 12.2266 10.6443 12.2266 10.1841V5.7876C12.2266 5.3329 12.0114 4.90058 11.6543 4.62354L11.4932 4.51514L7.6748 2.31006H7.67383C7.45427 2.18199 7.19772 2.11482 6.94727 2.11475ZM6.94629 10.0083C7.10848 10.0083 7.27409 10.0577 7.40332 10.1606L7.45605 10.2085L7.45801 10.2095L7.54395 10.3198C7.62018 10.4378 7.66504 10.5775 7.66504 10.7183C7.66501 10.7655 7.65922 10.8123 7.64941 10.8579L7.60742 10.9907C7.57196 11.0758 7.5222 11.1538 7.45898 11.2241L7.45605 11.2271C7.31932 11.3638 7.139 11.436 6.94629 11.436C6.75373 11.4359 6.57413 11.3637 6.4375 11.2271L6.43457 11.2251L6.49023 11.1743L6.43457 11.2241C6.37132 11.1538 6.32302 11.0772 6.28223 10.9956L6.2793 10.9907C6.24268 10.9027 6.22855 10.809 6.22852 10.7183C6.22852 10.5307 6.30753 10.3446 6.43555 10.2095L6.4375 10.2085L6.49023 10.1606C6.61934 10.0578 6.78427 10.0084 6.94629 10.0083ZM6.94629 4.69678C7.25126 4.69678 7.50386 4.94846 7.50391 5.25342V8.62842C7.50391 8.93341 7.25128 9.18604 6.94629 9.18604C6.64148 9.1858 6.38965 8.93327 6.38965 8.62842V5.25342C6.38969 4.9486 6.64151 4.69701 6.94629 4.69678Z"
    fill="#AF1B3F" stroke="#AF1B3F" stroke-width="0.15" />
</svg>
  