<svg width="25" height="25" viewBox="0 0 25 25" fill="none" xmlns="http://www.w3.org/2000/svg">
<path fill-rule="evenodd" clip-rule="evenodd" d="M9.74121 3.30615C8.80923 3.30615 8.05371 4.06167 8.05371 4.99365H7.20996C6.53863 4.99365 5.8948 5.26034 5.4201 5.73504C4.9454 6.20974 4.67871 6.85357 4.67871 7.5249V19.3374C4.67871 20.0087 4.9454 20.6526 5.4201 21.1273C5.8948 21.602 6.53863 21.8687 7.20996 21.8687H17.335C18.0063 21.8687 18.6501 21.602 19.1248 21.1273C19.5995 20.6526 19.8662 20.0087 19.8662 19.3374V7.5249C19.8662 6.85357 19.5995 6.20974 19.1248 5.73504C18.6501 5.26034 18.0063 4.99365 17.335 4.99365H16.4912C16.4912 4.06167 15.7357 3.30615 14.8037 3.30615H9.74121ZM16.4912 6.68115C16.4912 7.61313 15.7357 8.36865 14.8037 8.36865H9.74121C8.80923 8.36865 8.05371 7.61313 8.05371 6.68115H7.20996C6.98618 6.68115 6.77157 6.77005 6.61334 6.92828C6.45511 7.08651 6.36621 7.30113 6.36621 7.5249V19.3374C6.36621 19.5612 6.45511 19.7758 6.61334 19.934C6.77157 20.0923 6.98618 20.1812 7.20996 20.1812H17.335C17.5587 20.1812 17.7733 20.0923 17.9316 19.934C18.0898 19.7758 18.1787 19.5612 18.1787 19.3374V7.5249C18.1787 7.30113 18.0898 7.08651 17.9316 6.92828C17.7733 6.77005 17.5587 6.68115 17.335 6.68115H16.4912ZM9.74121 5.8374V6.68115H14.8037V5.8374V4.99365H9.74121V5.8374Z" fill="#435FF0"/>
</svg>
