<svg width="24" height="25" viewBox="0 0 24 25" fill="none" xmlns="http://www.w3.org/2000/svg">
<path d="M7.5 19.8999C7.19062 19.8999 6.9375 19.6468 6.9375 19.3374V5.8374C6.9375 5.52803 7.19062 5.2749 7.5 5.2749H13.125V8.0874C13.125 8.70967 13.6277 9.2124 14.25 9.2124H17.0625V19.3374C17.0625 19.6468 16.8094 19.8999 16.5 19.8999H7.5ZM7.5 3.5874C6.25898 3.5874 5.25 4.59639 5.25 5.8374V19.3374C5.25 20.5784 6.25898 21.5874 7.5 21.5874H16.5C17.741 21.5874 18.75 20.5784 18.75 19.3374V9.01904C18.75 8.42139 18.5145 7.84834 18.0926 7.42646L14.9074 4.24482C14.4855 3.82295 13.916 3.5874 13.3184 3.5874H7.5ZM9.46875 12.5874C9.00117 12.5874 8.625 12.9636 8.625 13.4312C8.625 13.8987 9.00117 14.2749 9.46875 14.2749H14.5312C14.9988 14.2749 15.375 13.8987 15.375 13.4312C15.375 12.9636 14.9988 12.5874 14.5312 12.5874H9.46875ZM9.46875 15.9624C9.00117 15.9624 8.625 16.3386 8.625 16.8062C8.625 17.2737 9.00117 17.6499 9.46875 17.6499H14.5312C14.9988 17.6499 15.375 17.2737 15.375 16.8062C15.375 16.3386 14.9988 15.9624 14.5312 15.9624H9.46875Z" fill="#435FF0"/>
</svg>
