<svg width="25" height="24" viewBox="0 0 25 24" fill="none" xmlns="http://www.w3.org/2000/svg">
<path d="M8.71151 3.2636C8.36004 2.91213 7.7902 2.91213 7.43873 3.2636L4.09075 6.61158C3.73928 6.96305 3.73928 7.5329 4.09075 7.88437C4.44222 8.23584 5.01207 8.23584 5.36354 7.88437L7.17512 6.07279V20.1609C7.17512 20.6243 7.57807 21 8.07512 21C8.57218 21 8.97512 20.6243 8.97512 20.1609V6.07277L10.7868 7.88438C11.1382 8.23584 11.7081 8.23584 12.0596 7.88436C12.411 7.53289 12.411 6.96304 12.0595 6.61157L8.71151 3.2636Z" fill="#435FF0"/>
<path d="M18.4612 3.9C18.4612 3.40294 18.0582 3 17.5612 3C17.0641 3 16.6612 3.40294 16.6612 3.9V17.9274L14.8496 16.1158C14.4981 15.7644 13.9283 15.7644 13.5768 16.1159C13.2253 16.4673 13.2253 17.0372 13.5768 17.3886L16.9248 20.7366C17.2763 21.0881 17.8461 21.0881 18.1976 20.7366L21.5456 17.3886C21.8971 17.0372 21.8971 16.4673 21.5456 16.1158C21.1941 15.7644 20.6243 15.7644 20.2728 16.1158L18.4612 17.9275V3.9Z" fill="#435FF0"/>
</svg>
