<svg width="24" height="25" viewBox="0 0 24 25" fill="none" xmlns="http://www.w3.org/2000/svg">
<path d="M20.4182 9.92571L15.0222 9.1045L12.61 3.98355C12.5441 3.84335 12.4357 3.72984 12.3018 3.66085C11.966 3.48726 11.558 3.63192 11.3901 3.98355L8.97791 9.1045L3.58186 9.92571C3.4331 9.94797 3.29708 10.0214 3.19294 10.1327C3.06704 10.2682 2.99767 10.4505 3.00006 10.6395C3.00245 10.8286 3.07641 11.0089 3.20569 11.1409L7.10981 15.1268L6.18744 20.7551C6.16581 20.8861 6.17965 21.0207 6.22738 21.1438C6.27511 21.2669 6.35483 21.3736 6.45749 21.4517C6.56016 21.5298 6.68166 21.5762 6.80823 21.5856C6.93479 21.5951 7.06136 21.5672 7.17356 21.5051L12 18.8479L16.8265 21.5051C16.9583 21.5786 17.1113 21.6031 17.258 21.5764C17.6277 21.5096 17.8764 21.1424 17.8126 20.7551L16.8903 15.1268L20.7944 11.1409C20.9007 11.0318 20.9708 10.8894 20.992 10.7336C21.0494 10.3441 20.7901 9.98358 20.4182 9.92571Z" fill="#435FF0"/>
</svg>
