<svg width="25" height="25" viewBox="0 0 25 25" fill="none" xmlns="http://www.w3.org/2000/svg">
<path d="M12.5532 4.82861C14.4926 4.82861 16.3526 5.59904 17.7239 6.9704C19.0953 8.34175 19.8657 10.2017 19.8657 12.1411C19.8657 14.0805 19.0953 15.9405 17.7239 17.3118C16.3526 18.6832 14.4926 19.4536 12.5532 19.4536C10.6138 19.4536 8.75386 18.6832 7.3825 17.3118C6.01114 15.9405 5.24072 14.0805 5.24072 12.1411C5.24072 10.2017 6.01114 8.34175 7.3825 6.9704C8.75386 5.59904 10.6138 4.82861 12.5532 4.82861ZM12.5532 21.1411C14.9402 21.1411 17.2294 20.1929 18.9172 18.5051C20.605 16.8172 21.5532 14.5281 21.5532 12.1411C21.5532 9.75416 20.605 7.46498 18.9172 5.77715C17.2294 4.08933 14.9402 3.14111 12.5532 3.14111C10.1663 3.14111 7.87709 4.08933 6.18926 5.77715C4.50143 7.46498 3.55322 9.75416 3.55322 12.1411C3.55322 14.5281 4.50143 16.8172 6.18926 18.5051C7.87709 20.1929 10.1663 21.1411 12.5532 21.1411ZM16.5259 10.4888C16.8563 10.1583 16.8563 9.62393 16.5259 9.29697C16.1954 8.97002 15.661 8.9665 15.3341 9.29697L11.4317 13.1993L9.77939 11.547C9.44893 11.2165 8.91455 11.2165 8.5876 11.547C8.26064 11.8774 8.25713 12.4118 8.5876 12.7388L10.8376 14.9888C11.1681 15.3192 11.7024 15.3192 12.0294 14.9888L16.5259 10.4888Z" fill="#435FF0"/>
</svg>
