<svg width="25" height="25" viewBox="0 0 25 25" fill="none" xmlns="http://www.w3.org/2000/svg">
<path fill-rule="evenodd" clip-rule="evenodd" d="M12.6362 5.70381C8.65978 5.70381 5.43623 8.92736 5.43623 12.9038C5.43623 14.4267 5.90805 15.8368 6.71348 16.9991C6.98003 17.3838 7.04429 17.8974 6.83315 18.3517L6.01879 20.1038H12.6362C16.6127 20.1038 19.8362 16.8803 19.8362 12.9038C19.8362 8.92736 16.6127 5.70381 12.6362 5.70381ZM3.63623 12.9038C3.63623 7.93325 7.66567 3.90381 12.6362 3.90381C17.6068 3.90381 21.6362 7.93325 21.6362 12.9038C21.6362 17.8744 17.6068 21.9038 12.6362 21.9038H5.31166C4.29086 21.9038 3.64511 20.8178 4.11688 19.9252L5.09581 17.819C4.17282 16.4056 3.63623 14.7161 3.63623 12.9038ZM10.2266 10.8685C10.2266 9.53435 11.3023 8.4585 12.6365 8.4585C13.9708 8.4585 15.0465 9.53435 15.0465 10.8685C15.0465 11.9214 14.3543 12.4771 13.9012 12.7867C13.7068 12.9211 13.5815 13.0267 13.5003 13.1356C13.4329 13.226 13.3865 13.3306 13.3865 13.4985V13.7085C13.3865 14.1227 13.0507 14.4585 12.6365 14.4585C12.2223 14.4585 11.8865 14.1227 11.8865 13.7085V13.4985C11.8865 12.4217 12.5952 11.8657 13.0504 11.5513L13.0536 11.5492L13.0536 11.5492C13.2388 11.4227 13.3599 11.3195 13.4377 11.2145C13.5028 11.1267 13.5465 11.0263 13.5465 10.8685C13.5465 10.3627 13.1423 9.9585 12.6365 9.9585C12.1308 9.9585 11.7266 10.3627 11.7266 10.8685C11.7266 11.2827 11.3908 11.6185 10.9766 11.6185C10.5623 11.6185 10.2266 11.2827 10.2266 10.8685ZM12.6322 15.3486C12.218 15.3486 11.8822 15.6844 11.8822 16.0986C11.8822 16.5128 12.218 16.8486 12.6322 16.8486H12.6412C13.0554 16.8486 13.3912 16.5128 13.3912 16.0986C13.3912 15.6844 13.0554 15.3486 12.6412 15.3486H12.6322Z" fill="#435FF0"/>
</svg>
