<svg width="25" height="25" viewBox="0 0 25 25" fill="none" xmlns="http://www.w3.org/2000/svg">
<path fill-rule="evenodd" clip-rule="evenodd" d="M12.1817 3.85101C12.5332 3.49953 13.103 3.49953 13.4545 3.85101L17.0545 7.45101C17.406 7.80248 17.406 8.37233 17.0545 8.7238C16.703 9.07527 16.1332 9.07527 15.7817 8.7238L13.7182 6.66023V15.2873C13.7182 15.7844 13.3152 16.1873 12.8181 16.1873C12.3211 16.1873 11.9181 15.7844 11.9181 15.2873V6.66016L9.85451 8.7238C9.50304 9.07527 8.93319 9.07527 8.58172 8.7238C8.23025 8.37233 8.23025 7.80248 8.58172 7.45101L12.1817 3.85101ZM7.41816 14.4874C7.41816 13.9903 7.01522 13.5874 6.51816 13.5874C6.02111 13.5874 5.61816 13.9903 5.61816 14.4874V17.9874C5.61816 19.9756 7.22994 21.5874 9.21816 21.5874H16.4182C18.4064 21.5874 20.0182 19.9756 20.0182 17.9874V14.4874C20.0182 13.9903 19.6152 13.5874 19.1182 13.5874C18.6211 13.5874 18.2182 13.9903 18.2182 14.4874V17.9874C18.2182 18.9815 17.4123 19.7874 16.4182 19.7874H9.21816C8.22405 19.7874 7.41816 18.9815 7.41816 17.9874V14.4874Z" fill="#435FF0"/>
</svg>
