<svg width="54" height="55" viewBox="0 0 54 55" fill="none" xmlns="http://www.w3.org/2000/svg">
<path d="M26.9902 1.83838C41.3496 1.83838 52.9902 13.479 52.9902 27.8384C52.9902 42.1978 41.3496 53.8384 26.9902 53.8384C12.6308 53.8384 0.990234 42.1978 0.990234 27.8384C0.990234 13.479 12.6308 1.83838 26.9902 1.83838Z" fill="url(#paint0_radial_221_747)"/>
<path d="M26.9902 1.83838C41.3496 1.83838 52.9902 13.479 52.9902 27.8384C52.9902 42.1978 41.3496 53.8384 26.9902 53.8384C12.6308 53.8384 0.990234 42.1978 0.990234 27.8384C0.990234 13.479 12.6308 1.83838 26.9902 1.83838Z" stroke="#313E4C" stroke-width="2"/>
<path fill-rule="evenodd" clip-rule="evenodd" d="M26.1417 16.1899C26.6103 15.7212 27.3701 15.7212 27.8388 16.1899L32.6388 20.9899C33.1074 21.4585 33.1074 22.2183 32.6388 22.6869C32.1701 23.1555 31.4103 23.1555 30.9417 22.6869L28.1903 19.9355V31.4383C28.1903 32.101 27.653 32.6383 26.9903 32.6383C26.3275 32.6383 25.7903 32.101 25.7903 31.4383V19.9354L23.0388 22.6869C22.5701 23.1555 21.8103 23.1555 21.3417 22.6869C20.8731 22.2183 20.8731 21.4585 21.3417 20.9899L26.1417 16.1899ZM19.7903 30.3717C19.7903 29.709 19.253 29.1717 18.5903 29.1717C17.9276 29.1717 17.3903 29.709 17.3903 30.3717V35.0384C17.3903 37.6893 19.5393 39.8384 22.1903 39.8384H31.7903C34.4413 39.8384 36.5903 37.6893 36.5903 35.0384V30.3717C36.5903 29.709 36.053 29.1717 35.3903 29.1717C34.7276 29.1717 34.1903 29.709 34.1903 30.3717V35.0384C34.1903 36.3639 33.1158 37.4384 31.7903 37.4384H22.1903C20.8648 37.4384 19.7903 36.3639 19.7903 35.0384V30.3717Z" fill="white"/>
<defs>
<radialGradient id="paint0_radial_221_747" cx="0" cy="0" r="1" gradientUnits="userSpaceOnUse" gradientTransform="translate(26.9902 15.8384) rotate(90) scale(45)">
<stop stop-color="#435FF0"/>
<stop offset="0.6875" stop-color="#6171EA"/>
<stop offset="1" stop-color="#F6CACC"/>
</radialGradient>
</defs>
</svg>
