<svg width="136" height="137" viewBox="0 0 136 137" fill="none" xmlns="http://www.w3.org/2000/svg">
  <path
    d="M134 68.5C134 104.951 104.451 134.5 68 134.5C31.5492 134.5 2 104.951 2 68.5C2 32.0492 31.5492 2.5 68 2.5C104.451 2.5 134 32.0492 134 68.5Z"
    fill="#AF1B3F" fill-opacity="0.05" />
  <path
    d="M68 135.5C105.003 135.5 135 105.503 135 68.5C135 31.4969 105.003 1.5 68 1.5C30.9969 1.5 1 31.4969 1 68.5C1 105.503 30.9969 135.5 68 135.5Z"
    stroke="#AF1B3F" stroke-opacity="0.1" stroke-width="2" />
  <mask id="mask0_765_3680" style="mask-type:alpha" maskUnits="userSpaceOnUse" x="1" y="1"
    width="134" height="135">
    <circle opacity="0.2" cx="68" cy="68.5" r="66.5" fill="white" stroke="#313E4C" />
  </mask>
  <g mask="url(#mask0_765_3680)">
    <path fill-rule="evenodd" clip-rule="evenodd"
      d="M63.12 40.3715C75.5688 58.8577 95.5342 69.2542 116.207 70.2321C115.457 69.2363 114.729 68.2151 114.025 67.1688C92.4919 35.1932 100.958 -8.18383 132.933 -29.7165C144.593 -37.5681 157.768 -41.4312 170.848 -41.6201C148.772 -67.4484 110.348 -73.1732 81.4868 -53.7378C57.7206 -37.7334 47.3253 -9.30542 53.1244 17.0781C55.8021 16.5452 58.6594 17.62 60.2798 20.0263C62.433 23.2238 61.5865 27.5615 58.3889 29.7148C58.0938 29.9135 57.789 30.0866 57.4772 30.2348C59.0403 33.7113 60.9188 37.1027 63.12 40.3715ZM55.5502 30.8259C57.1794 34.4843 59.147 38.0523 61.4611 41.4887C74.6188 61.0277 95.9332 71.7882 117.818 72.2898C140.352 99.9941 180.715 106.411 210.91 86.0775C242.885 64.5448 251.351 21.1677 229.818 -10.8079C216.661 -30.3469 195.346 -41.1074 173.461 -41.6091C150.928 -69.3133 110.565 -75.7305 80.3697 -55.3967C55.8283 -38.8703 45.1357 -9.4762 51.2254 17.7549C51.0098 17.8693 50.7981 17.9961 50.5912 18.1354C47.3937 20.2887 46.5471 24.6264 48.7004 27.8239C50.2592 30.1388 52.963 31.2215 55.5502 30.8259ZM228.16 -9.69074C215.711 -28.177 195.745 -38.5734 175.072 -39.5513C175.822 -38.5555 176.55 -37.5344 177.255 -36.488C198.788 -4.51243 190.322 38.8646 158.346 60.3973C146.687 68.2489 133.511 72.1119 120.432 72.3009C142.508 98.1291 180.932 103.854 209.793 84.4185C240.852 63.5028 249.075 21.3687 228.16 -9.69074ZM175.596 -35.3709C174.607 -36.84 173.57 -38.2581 172.489 -39.6243C159.258 -39.7469 145.855 -36.0066 134.05 -28.0576C102.991 -7.14188 94.7678 34.9923 115.683 66.0517C116.673 67.5208 117.71 68.9388 118.79 70.3051C132.021 70.4277 145.425 66.6874 157.229 58.7384C188.289 37.8227 196.512 -4.3115 175.596 -35.3709Z"
      fill="#AF1B3F" fill-opacity="0.5" />
  </g>
  <path
    d="M65.7045 83.0176L65.7105 83.0241L65.7167 83.0304C66.3292 83.6429 67.1358 83.9639 67.9991 83.9639C68.8625 83.9639 69.6691 83.6429 70.2816 83.0304L70.2878 83.0241L70.2938 83.0176C70.5775 82.7023 70.7998 82.3534 70.9589 81.9716C71.1172 81.5916 71.2151 81.1733 71.2151 80.7479C71.2151 79.9075 70.8615 79.0774 70.2879 78.472L70.288 78.4719L70.2816 78.4655C69.6761 77.86 68.8297 77.5679 67.9991 77.5679C67.1686 77.5679 66.3222 77.86 65.7167 78.4655L65.7166 78.4654L65.7104 78.472C65.1368 79.0774 64.7831 79.9075 64.7831 80.7479C64.7831 81.1557 64.8458 81.576 65.0106 81.9716L65.0151 81.9823L65.0202 81.9926C65.2032 82.3585 65.4207 82.7022 65.7045 83.0176ZM90.8909 88.3825L90.8922 88.3817C94.4502 86.3063 96.675 82.4813 96.675 78.3571V58.658C96.675 54.5338 94.4502 50.7088 90.8922 48.6333L90.8909 48.6326L73.784 38.7544C70.1958 36.6786 65.776 36.6777 62.2151 38.7545C62.2149 38.7547 62.2146 38.7548 62.2143 38.755L45.1084 48.6326L45.1071 48.6334C41.5492 50.7088 39.3244 54.5338 39.3244 58.658V78.3571C39.3244 82.4813 41.5492 86.3063 45.1071 88.3817L45.1084 88.3825L62.2143 98.2601C62.2146 98.2603 62.2149 98.2604 62.2152 98.2606C63.9973 99.3 66.0144 99.8035 67.9997 99.8035C69.985 99.8035 72.0022 99.2999 73.7844 98.2605C73.7846 98.2604 73.7848 98.2602 73.785 98.2601L90.8909 88.3825ZM71.2576 43.0794L71.2589 43.0801L88.3653 52.9581C88.3654 52.9581 88.3656 52.9582 88.3657 52.9583C90.3934 54.1368 91.6541 56.3302 91.6541 58.658V78.3571C91.6541 80.7131 90.394 82.8782 88.3653 84.057L71.2589 93.9349L71.2564 93.9364C69.2599 95.1124 66.74 95.1136 64.7125 93.9354L64.7117 93.9349L47.6052 84.057C45.5772 82.8786 44.3164 80.685 44.3164 78.3571V58.658C44.3164 56.3022 45.5764 54.1372 47.6048 52.9583C47.6049 52.9582 47.6051 52.9582 47.6052 52.9581L64.7095 43.0814C64.7099 43.0812 64.7102 43.081 64.7106 43.0808C65.7259 42.5048 66.878 42.2035 67.9997 42.2035C69.1224 42.2035 70.2734 42.5053 71.2576 43.0794ZM65.5031 71.3873C65.5031 72.7537 66.6328 73.8833 67.9991 73.8833C69.3655 73.8833 70.4952 72.7537 70.4952 71.3873V56.2673C70.4952 54.9009 69.3655 53.7713 67.9991 53.7713C66.6328 53.7713 65.5031 54.9009 65.5031 56.2673V71.3873Z"
    fill="#AF1B3F" stroke="#AF1B3F" stroke-width="0.672" />
</svg>
  