<svg width="25" height="25" viewBox="0 0 25 25" fill="none" xmlns="http://www.w3.org/2000/svg">
<path d="M20.2271 12.7456C20.2271 16.8877 16.8692 20.2456 12.7271 20.2456M20.2271 12.7456C20.2271 8.60347 16.8692 5.24561 12.7271 5.24561M20.2271 12.7456H5.22705M12.7271 20.2456C8.58492 20.2456 5.22705 16.8877 5.22705 12.7456M12.7271 20.2456C14.603 18.1918 15.6691 15.5266 15.7271 12.7456C15.6691 9.96463 14.603 7.29937 12.7271 5.24561M12.7271 20.2456C10.8511 18.1918 9.78499 15.5266 9.72705 12.7456C9.78499 9.96463 10.8511 7.29937 12.7271 5.24561M5.22705 12.7456C5.22705 8.60347 8.58492 5.24561 12.7271 5.24561" stroke="#435FF0" stroke-width="1.2" stroke-linecap="round" stroke-linejoin="round"/>
</svg>
